<mxfile host="65bd71144e">
    <diagram id="zs3JZRgUDfqx3J9ct7lg" name="Page-1">
        <mxGraphModel dx="542" dy="1459" grid="1" gridSize="10" guides="1" tooltips="1" connect="1" arrows="1" fold="1" page="1" pageScale="1" pageWidth="827" pageHeight="1169" math="0" shadow="0">
            <root>
                <mxCell id="0"/>
                <mxCell id="1" parent="0"/>
                <mxCell id="3" value="" style="shape=image;imageAspect=0;aspect=fixed;verticalLabelPosition=bottom;verticalAlign=top;image=data:image/jpeg,/9j/4AAQSkZJRgABAQAAAQABAAD/4QBkRXhpZgAASUkqAAgAAAACADEBAgAHAAAAJgAAAGmHBAABAAAALgAAAAAAAABHb29nbGUAAAIAAJAHAAQAAAAwMjIwhpIHAA8AAABMAAAAAAAAAEFTQ0lJAAAAb3Bwb18wAAD/2wCEAAMCAgoKCgoKCgoKCgoKCgoICgoKCAgICAoKCAgKCAgICAgICAgICAgICAgICAoICAgICgoKCAgNDQoIDQgICggBAwQEBgUGCgYGCg0NCA0NDQ0NDQ0NDQ0NDQ0NDQ0NDQ0NDQ0NDQ0NDQ0NDQ0NDQ0NDQ0NDQ0NDQ0NDQ0NDQ0NDf/AABEIA6sCwAMBIgACEQEDEQH/xAAeAAABBAMBAQEAAAAAAAAAAAACAAEDBAUGBwgJCv/EAGYQAAIBAwICBgcEBgMKBwwFDQECAwAEERIhBTEGBxNBUWEIFCJxgZHwIzKhsQkVQsHR4VJi8SQlJjNDVHKCkpQ0U3N0orK0FkRjhJOjpLPC0tPUGDU2VWRlgxcZRXV2laW1hZbj/8QAGwEBAQEAAwEBAAAAAAAAAAAAAAECAwQFBgf/xABEEQACAgEDAgMEBgcGBQMFAAAAAQIRAwQhMRJBBVFhEyIycYGRocHR8AYUI0JScrEzYoKywuEVkqLS8SRjwzVDU3PT/9oADAMBAAIRAxEAPwDe0lJ5fj+FWIrfG5AOMbZ5786qxn8KtQy5B92RXlWzv0ZGFt/Lu/KpkTPwNUYpuXh+R+udWfWcHyPnRtikX1fvHd/ZUqy4zjyz7/Ksdbz7N+FTQvtmlikXw+R+FGG+Y51VL4+Q/jUgnGfjj3DupYottz8+VTR8vHlVIy77fCpEJ/HNLFF1OVSLJgfPHl5VUMvhyomanUxSLudqJHHdz5VTZ9s+YqQSgZ86nUxSJQ9LVUKyfX5fCiV/H30tiiRBtRYyPdUMkvLHj9fjUsbU6iUAJP5UidhTGQZppGzSxRMPGm7TlQK9CsmKJstE4OT4fvpivhtUYn286YnapbJQlTnSioGemEmKWy0Su5PKk6mmimx86YtSxQg4+vlUi58KhAqTtPrxpbM0Ry0oqOZs/X4VBGM0TYon1YohvTNQQCr1MlCdvGmbGKeVqGN6Wy0KGHHnS1UAI50KDH8adTKkgiTSLUTpj68aFR41LFBMtAlLVmkxp1CgxypKe+hZqQT8N6lsUI0teaYmgVaWy0iVZPxoCm/v/jT680ytRNigs/OgXv8AnQsvOiib8KrkyURSLT5yfhRvg0BP51OotBou9CyY2+NOHqPXSxQ5oTT66IvTqYoizT05psUTYoE0glLTTEVbYoRSgIqQ02im4oErTsKYUtNS2WkNQvRYp2pbJRHihqXFCUpbFDEULJ31M1AUpYoEUzUemn7OligCKj0VNpocVLZqiMCmAqbFAy0tkoDTQhefnUqmgY1epmaREI6j7LxqYrT4omxRSMe9Dpq1KlAy7UthorslMyVNooNNW2KRGVpmqQrQstLZqiLTUbLU+mhZaqbJSMHHNt+FTI3hVG3lx/CrULfzoEXY5e6pEl7u7mP4e6qcR/CrMcn47fP+FGUsW0hx7hy8iKt20vLfnz+VUIJd8cjjHv3qVdiPDmR9d9QGSNz+fz+udSM1U3Iz5Y/Gpdefz+XdUBcik+vKrMcvP8aoxnBHf/OrBPwPP5VopY1bHy5VIxqssn8/4VKG+vKoQlMm3uogd/Ko0FOB9edVlJBJijPfUKvTRv8AlRAnaTu+NJZD+NRBu6nJ51CEjUnlx7u+o8bGmDbfhQrLCyVGJO6otfhQZogWFb50cj1VjbenlflSiFhnoRJvUBanjahSUb1MGquklOZaUQsLJ3UUJqDtKcTbVATsf51XtudOXoFbegLRNM/4VGxpo2oCY8vGmxTavdvUJfzqkGK+FJpd6YUiuajKO2TtSSM0Bk2qSI7VAC8W+1E7UwzTSGhA3kp+VCjfj+dPKMZ8qFFJTSU7n8aFpapUDRN3UOqn7TO4rJQH5Ua/lQM38aXMZqglYDmO+hk5fGhjl286Zn50oCBp+w/Ko9VGH2+NCWCq05oO23pw1AwjTGkzULHlRMgxNNii00OapBy1IPSAps0KPRCkopgaAZKBaNqbFANSoiaZqAF6LTSIoagsRWnNItQ0A4WmdadRTsKgAAoTRGm0UNA0qcim00ICajZKlJpmNUlELGk42qQrUMiGgIgN6eRaPlTk0CKbimKVZkHlUQSgAJqFqmkoStbDNNgbx8wauRN/CsNFLnfwq4k/fyqE7GXhbNWFbkfP4eX76xRuOWDVmO59mtBGQO/7jU0U2du8b++sas2w8akjm+fvqFMqj53qeKYbVi456mW4qUDLRTVN2tYhbkjfHv8Aj3/CiE3OqDLCXYUQl7/7MVjUm3FELioUyXb/AMaJpvkd/OsYLnenFz3d1LBklk7+7vo4pKxS3X50/rtQGVEwoVuedYsz99ELz+FUIyok250u0/KsV63+dH6xUKX1lp0krGLdfKiFxt+VDJk9WKbtqxpuM4Pwoxc0LZd7TP76MPVJZ6d7jI/CrRC6Go9VU4ps1J21QE4NGHquJKkU0BMgoRUSE0QaqQn1Uyn4VFnepGYfXKhRIu31inoFanU/21CBk0KvQBaMigsdTmm5A0GKYjagJGJpFM0zH6/dTRnehQiNvxqRjn5VCzCpEbn4UAgw2FCxpyahE1DRMp2qNUwD86cNvQq9SiCY08R5ULPTxpRhBat6AH8vyphLzp6MDoM0wp1G1CtQgZ2pFqjJp6pAnpzQg0abUKCKErRMeVNijA7UJFOacURABRE05FEF76FsjzT4oWFGEqgADNLNEFoaAfNMaQFNQCpBaemBqWAhTEU4NMaMtgBaEVKRQ1CjYpjTuabFQlgOlOBSpVQA1DUmKBTQhGVFIrUjR1GBVBEYvChK1PUUid4qghqNqsz/AJ1E0dQHLraY/wAvCrKzc6x8Z7/nVpDWzBfherCSVTiepkNU0XIJN8eNTw3FUoZKs6eVQpa194+VTCflUAFMFx/CsgvpJUhmquhowapSwkg/Cj7TbNVlH18amQHu5GgJFY00lBp76LNKIR9p39/4VL2vOowAKYL8qAnEtB2u/lQCPNRqaWCwZvxoO2qNjUemgLYm7qZbn68KiC05alAnWfei7WqUZqRjv+P18KgL8b/X8Kkjl5+H1vWPM/d304n8aFMlHc8hUiTVj45aIS1SGS7Xn8KmU1QD/KiNz4VAZASUzS1TF1SikoC+zU61Xa6+v30MklAWaONqrh/rxo45N6pC2vL67qDPdyqFX3py9RoIsMdqGVvCgeSi0/X176FBjk+u6kDvtUTtRow+vKhAy3176T7VG5/Ckkn9lComdx8KpzTY3+vCj7XfBqG6fOfdUND2tzn5VJNNjfw3z4ADesLk52OKxPTe+kNpciIEyGGRI9P3tboVBGO8Zz8KEZuNtda1Rh91lWRT3FWGVYHvBB51MfKvBnV76RFzwpxC/wBtb5wbeQnC/wBaGTBeFsf0dSH9qN+72p1e9O7e/hE1u2dsvG2BNHnb21BIZM8pYyUPfobKimEzNGpAtSMKKbfB8qGgVUcqAmikH8aRrABLUGcUec0mSqBgKJuVCq0QPOqBgafFMtMaEC7vdSbupxT5291WwMWpxypaedNmoBtNIGlmkapRzTLSpBaARFNinNIGoBKtNinBpZqgbTROKEilpqAamAoqRqFAIps1Iajk238KgBKUWKCF8jPLPz+PhT6qoFJQZow1I1SEZoMVI60tNUtEbLQFKkOedMHqMEGmhkopRQ4oiHI4FzVkfXjVe2U1eVK5DBKi8u+p0iFDFHU0YoUOJKsCLPvqGJqsotQ0HHHjFTKaBDViNKAaMVIq06JRVATQ/Xh76dufLahSpwKWCFBRyJipOzx8aS94q2CPNCi8x3VMq7Uo08aAjWgxUoj/AAocVGCIeNEpqYKBUMi0sEI8KWqjKYpSL/KgItFNT02aUB3pUxpFqUCWJt/xqVJRjbuqsr08bb1QWhcbip0lFUS3zFGZMfXjQF1ZPzow9UlPL5/Op3f+P4VAWXk+v30aXNU9f5UamgL4b6/fQLJk4qqZKlVuX19e+oCz2lThvCqmofHenWb+NUF0HbzpJn5VWRs5/Cktxk1BRZEn76BWz+dR6qESYoCTGM/XdUN3OFAPwoHvsc/rb+FYW64hnbwP4Hx/jQqL9xed/I5/Csbc8Wwvxxn3H+FQhtW315fhWG4nAd9+/l8KFMi3GwSSDy28vOs/0b6Ny3KsEGAwO52AJGM52rCdWnV+9y++Qin2j3HyHv8Arz9N8J6NrEgRRgAY2GPr31pHE2eXOkvoG204y7Bnx7vgCRz+X764TfdUnEOAz9rbmR4lOSmTqA5akYZzkbEb5GQQwyK+kZtyO/NYPpF0dWdCrqCD4j99cqfmcdHnrqx64oL9QMiOfkUOEVjjuBOI5Cf2fuOfuFSRGOgPER8NiDsQR4iuKdbXo3vC5ntSVYb5A2bvxIo2YEbFsb94OdpurHr2JYW1/mOQAKspBOw2Go7mWPzGZEGw7QAKvHKPkbUjsBjoKmZc+BBGpSCCrA8mVhkMpHJgSKAg/ga4jYGKAij0+FMD+FC1YBFSKNs0glCpqoCFINT6qWKFQ9ICpgPr3c6jzQDBqbNPimFAOB3U1Madmq2WhGjU1GaQoZHp2oSKdazZaBphT0sVWQenVaS02qslFSpgaJjVAOKRWnYUwFCDFaEx1JTYoCMx0uzqSmNEWiMimapKErWiAigcVIwoCagIXWherGaFxUKcchQj3Vc0VBHv8Ksxg1yGEW1j/jUqCo1WpY/r+FU0SQLvVpBVfsxViPP17qzQJUX+ypQfr99RIKmi51QSxLUgjoCtSq3fQDonMVIRTKNqQNQWO42qXTTsvKmIpQBFImjxTfXKqSwTTDepMU5SpRSBYqF07qlePBpMtKBXK0L71YaozH51AQBaBqm0d1MyfXurSBCozQkVMfwqPTvQDZps0ZptFCCBpy1Mq0RXagCFHqxzG+KiDUi/KoC2rbU4blVZR4UZlzihS6w76OIgjPl+NQoudqILvtULQ+urEU2w8jg/uqqrVNE2M+GapCxDtgfLx+HuoHX6FCkgz7qDtxk+dGaRYgfx+s/2VDcS48MVWa4xmsXxC9yMd/I/n9e6oAp77JxmoEl7/rG/18arzZ2+sbUMkuOXPGflzoRE3aafifz7qv8ARno29zKI1G37Z/ojPP3nuFYDh8bzuIo8lmOkfHmfcBvk+Fen+gPQtbWILsWONbeJ8fd4CqkRsyfRro2kEaogwAMe/wAz51mBUUj0leto4w5YqozJV0SULx5qkMNfWwYYIzXCetnqEhnVmA0sPaBG2DzyCORJxXoOWCsPfcN1VTDR426HdZFxw5/V7sNLbaiFfkyFu8E7Kx78+w/7WCdad7t7pZEWSNg8bZKuvI45qR+y696HccxkEE2usPqmjuEbKjOOePz8a8+2DXXCJWABkt22eJiSMDkUPPKjOkjDLnbUCyviUTSZ3YDvoZD+JrG9FulMN2uuB8jGShI7RMc8rtqAzuyjA/aCH2RlCvIVx0cqYTpyoWFSvQlNs1TdkbCnI2+u6nUUgPyoQJX2pKM1FmpGGB9e+slAHhUhxj41Frx8Kveo4QN4jPuzQUUgtOop0FEpoQAiiIpGmxQo9MKeM0iKFAp8U5FOFoQYrTMKek1QAYpyKfFImhATTZosUtNCUMKVICiArSLYAFN30RWkBVMjGmomocUKLFRMtSqKYigI2FRVOVoWFQrOPwmrgTl5VXgOatx+Fb7mEWIlogKZKNVqmiaJRVgVCR4VJG2allJFerCL/bUUAqyx/hRAlRaILQVJihAhRUFGBVMksW9Fio1SiG+ajKOFpgfxo08P7KQFRAjaiNOyU/lQoxbxqMtUnZ03ZfOhRmWq5G/4VODQYNGQDRihqYihEdaBWaPagK1YC91RsBnFRgiZKQoyKEVKIA1ODRmgKYqksNqFx9e6lTGhaCjG486dxj4HxqOnLmgLsTd+eW37qUR76rmT5UaSbe/f+VRlJy4zU0Um2DyJ/A1TVxkeY/n/ACrH9I+IOIm7P7w5bVDRmHffAO3Laq9xLiuI9TnWLfSXAiuY8DQRI2CqiRRzQb7M2wBJ2I3ON+u8TvP5fGpZQ769xj8qivbIoI2PKRO0GTzGorny35VQuJ848R+dRXt6dKZyQoCDyBZnwPLUzEDz91CE5vBjHl/ZWBmuiWwMk8lA/l31Uvb86sb9/Lz5V2XqM6tc4uJRy3jB7/62Pyq0Zs3Pqf6txbp2rgdqw35eyOekefj7h4V0ySWgZ8VX7auQyWQ9Fmq+acPUMssBqcNUSSUWa0GSYzVe4gqYmizmhkxMsdah0u6EpMpDKDmt/mgqhPBVIeNOmvVjPZSdvbMykHVtkA45atJyGHdIu9bl1fdckdyeyuMQXKjcnCpIfFsYVCf+MX2D3iPYv3rjPBVcEEZBrz31odSitmSLKup1ArswPip5/wCryP41GrCdHTZgRsRv3/upoxXEegfXJJbFba+BZB7EcoG64PIE+HfExC/0SnJ+3oQVV0YPG2Srqcqw7/MMORRsMp2IFcTVHKnYDNvSX8s0TtyqInmaHIh9FCTmjkOwpRn8qyymK6QKxQhObbZ8AeZHnispDxPK6cYA2HuHdSz+NCV7qyBKaekKRatMggKJqAGpMVlFBK01SUOKoGp2NLFIpQgNLTRlaVCkcgpBaIimBqmAKJaKligAWnanxSIoAabFEopq0wARSNHihK0A2KVI0qhUyNqWmpBQ1OQcit0q4q1VRsDbvx8/CrcS+VcplEy1NEtQqamQeFCk8f40SrQhM++po17jUAcYwasRpufCgjWplagCCVItRpUyrQD6qMDvoClTIe6gGZfr+NEVolbuotH4VAJWpF/r+NKV8Ypx9bUsA6Pf40Gk++pUpN+dQEe9E6+dTBaZhVKV870Dx99SMPnRo21QEePCodG9WTF8qjC52qiyGZOXjQNVnT40AWhkr1G6VZKeFRBKWRkRFMalIpEUsURA4oWWjZKRX+NCoiZcYpUhTAVSiFS9tUamhAoCyoBG1RMMH4Um278bfv5VWluue/iajNIhksVUhhjfeqErkk45fX86V5fhge4jAx47bn50CkaVwdyTn93491Qojc8vIb/lWD4vxjIKjvx8Mc6LjHFQCMcxk57jn+Bz86m6C9E3u5tIHsn77Y2A/LJ7hREbNk6per9rqQO4+yXfJ/aI5AeI8a9TW0QRQqgAAYAHdWJ6P8DSCNUQYAGKtST1o4yw81IvVVXqTXQpYDUeqoVqRatmSTXUymq4WiDVRROHoxJUAo1NGSicNUUsNMr1MrURDFz21YO/4aDnatvkjzVG6ss1SUef+srqjSYMQoyfkff/AB7q450d6U3XCpCjBpLYnDxvlsAHAPjgD7si4df6wyrezLvhma5v056vkmB238cb1p7meCrwTj0N1H2tu+pdiVyDJHnuYDmvPEg2OCDpYMosIK893vArrhs/bW5K4OSn7DZ56QchWYbFSCrbZBrsfQPrGhvk9nEc42eInGT39mDuGxuYiSeZUuAdPDJHLGRsPY99Id5qYnkPh9eFRgVg5iNTyp8b0eO6mNACVpYolXamIoQJUpw1MaGoAwKQNMadqEFSNOtNQWMTSzREU2KpBiaEii0UOKhRCkRSFFVIDmmFEwpiKEGodNHSrSKBihqZaiqgY1Ek+anIqpLB4VATg1E6nO1TKtNpqA5PENhVmIVViU/X51dhWtmUFEatxCoEPlU6jahodo88jUqUES1YAoA4d6so9RL3fKpjF8fOjKEBRimC0QWhAkqVUz7qHRRjyrIBC0T8/dRK38KdYqAkU8qEfh+VEaWjuoBsYpwKbkMVIBVQElJhQkUYfxoUi0d/y/nRdnUgp3WoWiqV+vrxpgvlVvs80DxZzQlELR/2VEyY5fX8qsIPnSKfjVIVJ18BQad6nmhxv+6mdBjzqArNHikoqcihCbUBW00iKlkoWrVgrulAoqZE+VAV3oCJqZnopTUEswAqFFcXOBv8KwtzcbnvyPz/AIU91db+6quvJH5eflQtiYbZHLmaxt5d93I93xH8Km4hf6Qffg77Hv8ArNas8xkcAZzyGM8/AY78VBZf4fwt55FjQEsTj5nmfAe+vWfV10JS0iCjdj7THvJIGfh4fzrU+p/q5FunaOB2jbnv0jmFH7/rPSZps1rgwSyzVEpqv2tYTjXS4RlkRHmlWJpuyiCmQqmcD2iqqZCCkepl1sMDkcZZTaY2owaxXB+LLLGkqZ0SKHXKshwfFWCspG4KsAQRWQjrRC4rVIDVZWoxJQyThqQNa/0d6VrMJGUHslk7OOU40zFfZkaLfJjWTMYcgB2B0lgM1nVbNUEqtUpFQqaKNqAmWjBoFNHiqQNZaMjNQhakBomQglt6xV7w4EVn6glhrVko5d0s6GrIpBXP1+dec+m3VrJA/awkqy4IYc8A5wwH3l/EcxivZt5Y5rTekHRkMCCPwqkOQ9XfW6s+IbsiO4GNMh2WTu9s8v8A86P9cAjW2/3FsVO+31muSdP+qvB1IMYORjZlP9JT3H8PfVjq860mi0215kp92OYD2l32BHgM7xcsbxkbxtxuByKR0x1paKt3FngAghlYalZTlWU/tKRzHce8HIOCKgK1x0clkeKcpRGixUooBFIpRUlqksE0OKlIptNGBYpYp6S1KIwTTYqTFMBQAGmAqQ0BrRGMaTCmFOKyVDCkxoqYiqAAKfFOopiKEBJpCnC0xWqEMwpMKRpZqGgaA1IRQPQhyeKrqcqqxLVsNtWyIlWOp8VHG21SKKFJFSpRQ4+VTKaAONOVWIlx31CgFSoagJMVIKBDUwxVA6rTsKJaNB9flQoy71ITQomN6I91QggKOM0iPlS01AJz4U2KJY6MqKoGxTFacLSNQrGiHjTsvOjC0SmgK4ko1Tf+dSGKi7OgTIWUZpiu9Gy0glAQypUJG/wq4Bt+dRkVCFXRzoFbarJ+dAUBqgqstRyJV2SOonXP5/xoCoy1E7VO61CzeNCkEmMedYTiF33eNXr+asJcb0BDq+dRXF2APPGKkmkwK1rinEsmgK91MWJGdu7z8vhXXepjq15TyDzQH/rfHn8q1Pqo6Cmd9bj7NT/tEYOB348a9JWqBVwNhyrS2MsvmbAwKgEuardtUqGs2CxXG7h7q1S4R1ZJJblyb8BZA9u8jG1SFMZN0sbR2cNpox2uXHaajr7GXrGdIuj0dxE0UmrSxRsqxR1eKRZYpY3G6yRSokincZUZBGQaiM0nhU06Ispd4ltryS3lhkTMPqYkSNZBJIVdtFsqXgue0cBpJkIYKVTo/COPxy6xG6sY3MbgHJVgAdLDmMqQwPJgQRkEGuRdZPGjbr2EpklAeG9je4kihguhbgG4sVljEcaTr2a3KwXQVJ2cgMUV+x2HjHG0+1uLaREupYbf7OWLc+rlp+ynjQC4SR45+xbVkxfZ4Q8moOoa6a5g1qy74dWQ45jWpXIztkZyKwvRbjxmiSRo3hdh7UUgw6sNmGRsy5+642YYOBuBnFkqIHnzid3dyIkcIE6RpmxSOHs45GsEWOW+dTIBJb28ug20WU7e5aPTlEWQ9S6HdaFtL2caSs40xxLLJpQyzdi8kkODoLXUcUTTTxrGoTVggHKrl+J9GtTo6SGHs42hXQiEhXeNyF1ho1A7JQB2Zx3Y5HjvTPor6tMkaIWR1aOBdTZdI44XnjkmAAgS4uXkur65kftJIINABGmuSrMHokNUnaVz7ob03YrarKsj+sK4jujGqRzSJrcns1JaBJYkaaDtANUY3wwOd+BrJosI1GpqCM1IGoCajqMGj1VogYo1FADSoGPPDVC5tAayayeNNJBVswaJxro8GHL8K4x076tw2SF/gfIj6wa9LTW/lWE4twAMOVWyNHmLoV0+ksz2M2qS3J3BPtJ4srHkcft94wHzgOnXNKsokjbXG3Jh3f1WG5Rx3qfIgkEE4Lp11Z6wSow3dXPOi/SaaxkKkaom2eI50sM59nvGNyCN1OSNi6vOmyqVHXGFOoo1kjeMSxNqjb3alPMo+ORHceTDcUELgjyrhexzLcYU1EBSqFGxSpFacUAwFIinUU5oAc0qfFDiqQc0NFmlUFgmmIpzQ1QImmNGFoCKhRUxFFTE0oA5pwaRWmUVQPooAKkUUxNAQtTUbrQsKgOVxrVyPu+udVoTyq1FvWzKJUFTIaDFGq1TRMKmjU5oYY6lQb0AejvqUCmRakQVko6c6kRaYUaUIPGKlVMU0Y50Yo0BlJqRo6EijUVANiiSiIp0WhQFowKWmiC1SDFacGiJp6FBjFSAUKiiagsYrTY8KdaLyqAAjakWqSmoaISvhtQgVOVodNQhAwpKoqZ46EJVBA8dVJlxV+XlVObl86lFKzLVW8bANSi4qHiDbCiIa5dMc+XdVeUgVbnOffWE4peY+vyqkox3F7w74qh0d4IZ5Ag7+Z8BnnWJ4nxPzrp3U5ABH2xH3ycHyBxt5Z+tqIHZ+jHBVhjVF8P3DHx5msoXqhZXwIq5mqKDzVmJ6qCpozWCFtWqVDVWJqsKatAC+4akg0yIsi6lfS6qy6o2DxthgRqRgGU8wa1LhULWR0yyQCCW6fs3OuOZnvXeYQvzjMon9hXLgSR6BhWUBt0DVBxThEc0bxSoskcilJEYZRlPMEfiDzBAIwQCNJkZyfo9xBDbRXkk0ouba5/uzUXikR5GjW7sPVftgVZBAkFvGHaU9hJFIzzCSTqfA+lCSvNGNSyQMFkjdSjgOC0UmlgMxTKGMcgyG0uMho5FXj3TG1fh6JGiGUCWO4trq4L3Rnu4w6R2N86xtNA0kbrFaXarMqlAGAKiOXoNp07tRIHd+zkmiKEO/wBmDY65JoO0Ba27e3NxL2ixyFmCsRqWIlbRDfFatX6yeFNLAAqGULLFLLCH0NNDGxMsKnHtFxpJiLIJgpjLaZCrW+CdKY5SADpcp2wjbAkMTOyRzaQx+zk0alPgy50lsVnM0IzlfSueV54JJHW1U3XqlvrZQ0KtA5ludGGhN3dBTaWsbtpiSbV7TSNFW0x9JBZvMtxMWjJ7eEyLqlETFRPns8s8NvLLGvatFGEVvaZgupa3S3qnjuWfDmFbkol4oRXS4jXSuoq+VjulRFjS5UaggAIYpGVq9XNz2jhmlbthFNbTQNDpMYjmDxxFnXtQIEnCgyu5uA6ye1gk6MnTYJQQGBBBAIIIIIIyCCOYI3BG1SpWN4NwxYYo4k2SKNIVzjOmJAi50hVzpUcgB5CrsMwPw/t/galGi2tEDVftsY8/3VIsu+K0CyGogaiU1ItQywgKNHoAaMCsNmiX1eoXgqZZasJg1nqJRr9/wcGuc9MuraOVTkAEcj3jzrrl5KEGTtjf5VzTpNxky7DZfxI8/AeXfXh+J+N4vDsfVLeT+GPd/gvN/edzT6KWolS47s8n9Jusd+HvImoi3f7OfOytGX2cZ+7vuXGCASQRltXQuiXTcJo1Nqgk/wAVKeX+g57nXkf7a4j6Zt8jSJapu5jHa43xrOpUPmVwceBFaT1adNnsEWzudUkJwzAtllzsrIf2XRcDzAAPIY+KxavWZ4x8QUv2294/3XDyS7end+Z7zw4ofsa28+9nu2GUNuDkVKBXDuifT5rfR7fa2rfckG5HLZu8ae9eY867NwziaSKGUghtwQa+58O8Txa2Fx2kuYvlHi6jTSxPfjsy2wphTutJVr2UdMVNqpyKZqoGKUjRCmJqEAIpgKJhTAUKMTTA0RFNQDUxFOKWKjA2aYU9DRFETTgU4FIrVICaErRgUL0AOaRai00LR1BZy1U22qzHHVeNatRVyGUTIKOhFEKhonjWrVV1qVDQE6VJGKiXwqYL31AFmpAaZVqQVShaaPTQYqUioQSj8alC1HiiFQoXZ05NLNID6/dVQHFOBTKKPNCDCiBpzTgVDQyilRFaRoZGFOBRYpUNDUtNGFFC1CAEU4TajK0yrQoApitSChYUKVytVpY6u9nUWKgNfvbQjcVSefb51srJmsJxSzxk91AalxriIRWcnYAsfcBk1hri3E0EdzC4kjZR2qj78EvJopV3IBIBSX7rgjkdiPSZtQZTyII/ca5pZ3E9lJ21s2MbOhGpHXkUdDlXQjIKsDzrSMNj9OEbQ2nmR8cd5+VdR6helaNZ9g5w0R5nnknIz5HPPyNYGHseIqZLQaLlQTLZM2SwHN7UscuvMmI5cd2oVp/C5TFKZI8qfuyRnbbPh5fMVujFnqPhXESuO9eec1t9nxXI51xXop0i1KpU5ViVxnJUgZI92xrZ7Xj5U/nWWjl5OpxPUsbVq/BukAYVnoLnIrJKMijVOklY5JKtRNUIXY3qXXVVDUivQFmIcvLB8sggj5EAg+IFc7t+riRpRDO0cthDK13AjRr2rSyMzLDOABGYbd3ldWVVaUPGrhtEpfoCtUsbVtMzRpPSSNbm6hSMfaWcgmluFOloFcBvVAcESm8UAS25OlYdMjBWNtq3wyViuA9H44E7OIELqeQksXd3lcu8kjtlndifvHuCjYKoFDpssJt5O3Z1QYfVEzrMrowaIwaPaMwk09mgDan0jS2cU5BtCtU8f0Phj+Fc94B0vkhFtDehllmRQs5REheZ3cLaydm7JDeiIRs8W0Tu7CF5dJVd9RqENb49cyPJIDI1taW8bNNN7KPIzwk6YnkVhHDbIwmknUZMoRFYdnMGq9WqRwWsk7fYxyyS3eHjEPZwIiQW2pSWkBNlbQSsZmaQs7ZCZCJtPEuGpKuiRQy5ViDuCUcOuRnDAOoJRwUbGGDAkVqvQ/omyM0dzGLgqC6XkhEomBdiRJFIzGC5BlcFI07IoAUKhVjj0Q3DhHFu1ijlCsnaKrhZF0SKHGV1pnKnTg6c5GRyNZKFMd/v+vL8q1XpzY57KdrmS3itZDdzaOUyRoSyS7EsmAwKYYHWWA1xwst3gnSkSSNEY5YpBGkwSWPQWjkC4dSGYYV27J1JDo6kMo9klYs2RTUy1BG1SCpYolxRq1RgUa1wykjSQYpNJgZoWkxvWldJukefYU7Hn5+Xu8fGvA8T8Ux6LE5z5/dXdv8ADzZ3tNpZZp0uO7I+kvHu0IA+6MgefifdttWl9Mula2cRmZQ5BwibkM5+4GC7lS2MgbnlWZnuEjVpJGCogLMSQMADJ5+Vci4n0jRwOI3i6rYsw4ZYZKPfSp7Pby/tR2MGQZZcb5CKGd1VvxyLy+J6h5cr93mT7JeS9PzyfWyUdPj6Y89vOzlnSvqvlF0Li5OZZ3eZVYgu6hirTMoyEjMgZEzgEoyrkRNjSOtfq91kPH94DB3xnyHifxrfOnnWeYtc0p7e/uMFUA0xouAqeypPZW8SgRxQruQoA5O41Lh3Ssyr2FwDHKu5B2155sPMd47tu7FfQvLl9os2NVjWyXmltdeR04wi10y+I510B6x5rOUpIpkgb2ZYTsSP+MiJ+7Knd3MNjjYr6O6MdLuw0ywt2trLuDvlf6QIO6SLyZCOfv347xjoisjqoxqJAVjsN+WW7h4k7DvxisvwoXFiZYmXAkBR43BC61G0ictMibZI5qcHIK45cuZPJHPgfTmXPqvX8S9Fx6J7xPXPBONJKoZCDkZ+vdyxWSYV5Y6sOllzC2sgmMnBG+D3beBFeleC8dSVQQcnvHePfX6B4Z4tj1XuNr2i5X4HgajSyx7pe6X80gKkaoya+gPOGLUJFEaZhSi2NmhxR0wFQoBp8U9DQljEUsU5piayUYtTAUiafFVEGJpE0WKYiqaBYUQWkKQqkBK0xosU2ahTlUVW4qpwirsS7VsyiVEo0WhWjWoUnBqQd1RKm31+VWEWqCQCpl8KiFSpUoEyUYoVWpVFAJBRRLTq1GtAEQKfR+VAFqQigEDRKlCq0YNQoSpS007CnFKAIWjWkTSFQoitGFpMaWaEoYrUlIUgKAanK0QWiUUIRaacrRimIoaojdKBlqcpQstAQtUEgxVlqqXibUBC0orE8Zm25/CoLpmBNYq4mJ+FAa5xaxzWm8VsN66LNHWA4vYgihGce41wFgwlgYxzIQylSVOQc5BG4PurdOB9LYeJ4iuitrxFNkuSAsNx3BLoAYVzy7cA92oHJYYzjMRXPvrV+LcNSbfk45MNmGPGtpmWjofDLia0uDFLGY5l3eM7LIMffjO4ORuCpIIO1dUVVkjWRD97u2yMZBB91cW6H9ZaOqWPFAWVdre7Ujt4D3FGP3o/6UTHGBsQee9wpLZsgkKvHL/ibhP+D3AHd3dnOuPajbDZB8K3ZlOjZrDiJjP4Yrduj/H87Z+dc7LiTJHMcweY+FTcNvSnjtUcTl5O3Wl8GrJ20RO9c34J0gB7633g3HdgDj/S7/d7j4+HjXCwZIUQkrI8V4VoUOCMEZx37948Rvz8j4GsUjZojJaQ1OhqmrVMr1QWs1hbvo2HuI5mcssS/ZQ6R2azljm6Jzl5BGVjjVhiM63GWYFMtG9SLQhzjj/SVZ8zFHksLWZRJ2cfa+sSxNvKY8azY8PkUO8kOqR5k9kaLdjNN0X6cIkkwN1HPaKglS6aSPVG8itP6o8gIjuCLcPcI0Q1pEhEq7xu+Y6T9E5mbtrOf1ecqsTBw0lqyZI7TsQcR3EAdpI5I9IkI0ShlbUmG4L0phtYntIo8zwTvbwW2SJ53dmMFwxkjjAFymZ5bhVaCNO10uyxqtbMcHSrO6DqGUhlYBlYEFSDuCCNiCNwRsc1bjauf2t4tloiYxrElvNcOIoiAZZbxSBDGmZG1PNJHHHHHmRtOFDMqVvcLbb/AI5B+IOCD5EA1g1ya700s2aSEMtw9uyTQyLAzDEs4WOJ5ljImaIIZlBBMccjo7r7Kumx8NtRiN/tNQhSPMjN2mnCse1XOjtiwBdtOrVkZxtU6GpFq2SiZTU8ZqutSq9cbZaLC0QeoxWvdJekGnKLz7z4Z/f9eFeLr9dj0mJ5cj2Xbu32SO7p8EsslGJV6WdKQPZX4n9w/efoajYLqPaMcKM8+Xvz4Co+wMh3+6Ofn4j3DvNcV69/SES2BhhwzcgM7E8stj9hfDvr8Zy5c/i2ppcv6ox/P1n2cMcNLj/O7L3W/wBY0PsvcAvaqx9Xs1fs5uIzI23aMATb8Oif/H3JVicaIkmlZVTjHSfrMmmla4nIkuJAI40VQkEMaZEUFvECRDbwqcJECe9mZ3eR30yyklmY3VwzSSMAMtzwBhEQDAVFGyogCqOQG9bZ0R6KkkzSKTj7oOSoHcW8tu/nj5/XSwYdJhWNLZfXJ+p5acs077/0JejHR/QwuJstK5LZb9nbZuXMDAQY9nYjGkGr3SvowsuCG0uBqRl+8pIzpOefPlvsayPFJTjx5bn8x348v4Va4dcbYbGD8cbczXz2TPOU/ad/u8vke3DFGMek1bq5LmTsZCO2GQNQ++OWV/pd+wrduIcBklkAuJGlEOYlDEnQCdRTJ35nv3xgclAGsdKeHxCMyO4Qp7SyatOgrvqDZ2x+6t59Hm6e/jEehSxZ5TK5I1qCqZRMDJJOvUTvk+FdfVzag9Qto8P/AGJCEb6H8y7aWKn2FwAoxpHdjwo7mSW1dCPZ1DWAdgV8T/VODg/w2pdLOjcttdSR6uR2IzjB3Hv2rcejnA1ndXYlggUNqJJJXdE3/YAxsNgMDABrHh2LJqM8I4H7zdp+Xe/oR1tXKOODb4N74Lcs0aM40syqxXwJGdPw5cqvYplWkGr9/imkkz4OXI7JUYNGTSYVyWZAxTU4NMayaBxTYosUxoLBxSIp6dqhQQaYiipjVICKI0qYrQCFPikKahRmFCTUjCoGj781AcujFW4qqWo8atha5CImjO9EBTVJHUBJ2lTxmowB9edSxrUKSAVZjH8ahWpIzQEi1MtQyDbzorRvGqCyoqRFoRRAVQSqKSrTItPigDFKkopyKhbHIpxSxTBagCpJS0U+KhAwlMq0gKOqUWafFLFODUIIiiC0gKRFU0LTTYohT1BYOmmC0YNIUBXeOoGFXXqCRaAxV/YahsK1q/sCK3Uiqd5Z5FBZoLx1ib+Hatq4nw0jJrX7iKqZNH4zw4HO1c443w1kOV9/8q7Ff2/OtW4nYBwQKMpzl5UnGlwM4255Hmp5jH1mtj6D9Zz2Qa2ulFzYy7Mj59k8g6Pu0ci/syLuDjYgYrB8b6Kld1ztuMbVjrbiAcGOQeXkf4GqYZ6Cu+GiNFuIJDPZtgLNjM1vq5R3irzXuWcAqcb4IrPcFvVcENjUB3cmHcwI5j68K86dCum1xwyXXEdUDZV4z7S6TsylTkMpHNGGDty513HhBhuo/WLDcfeks1OZYiN3ez1HU6D7zWre2ozp1ACuRMynRndZXcGto6PdI+QNaLZcUDAAnIPJxsDjYg53VgdipwQedX3iOfZ7qjRypnaLfjRZVBPsjl8f3DurNovmO7lXHeAdIsey3fXQeCcbwPEfXKuGgzYylJWqxbXgYLkbEbMN/mOefHB+AqO6i0n37jw35Y8qpCRXqVZKpKasRPQFxKgv+HBwNypGMOmFkADaigkKsyq41KwXGVdhkZzRxvVhKlmWcr/7nJBexsYs4NwtmtxdNLhbVF18RnbVO7tJM9uttbxqrRRvPM7LIyJHtPQrpZLdMSYTAkDPDMWZJRJcRs0ckNs6MNUULKHNwye3lUCIdRGW6VdE47qMJJqBU64pY27O4gkAwJYJQCY30kq2MhlLKwIOKyHCeExxRxxRKEiiRYo0HJUQYUD8yTuzEkkkk1WzKLymrAqCOplFcVnIiZTUimoUaq/FOKiJdR9wHeT4fvJ7gDXXz544oOc3UUrbOSEHN0uSPjvG+zGP2jy8vM+X5/PGkM2o5J78+/elcXRckscnmT3e4eAFc+64OteKwgZmOX0kqo/6Od+892K/D/E9dm8U1KhjTq6hH736vv5cH3Gl08dNjuXPdmn+kN19pZRNGh9tvZ2579w+vltXjzoNw6a+naeTUy5zgAnPgq/Xj4Vjbi6m4jcPNLkqMueeEBOFA8WPx5d1dt6G8BVbR1KCME5De2ssZjGdQ3COsyt7SMucqulk0sH+4w6TF4Tg6I75pV1Py9DyM2eWaV/urhGSs+A+IAIGydy+RHj411jodct6pPbFEZZtMudP2qtGVI0uN9DBcFPcRj2s+R+iHTqeK5YSEvDLJ9/mFJACspA32GGQnO3iN/XHRTpCmuLThkxvjcnY7d2PhnbFeD4hDLimpSdprZrj5HpaNwnH3ee5o89ruc/W9QT8LZcFBq2LYAzjvbbvx31mJApfG+5J8Bn9n4b8zyroNrwWOC2abGoyERRZ5MibzPjf2ZJBoXP7Ck76sV8vm1KxterPajj6keSLqdr2bTKCLaN/8XyMzKc4P/ggeeOZ9wK+hOrjpQ1q4dAAcaQMYULgjGBywOXhgc60TpJ0dw7TRruWyR3AnngDx3PvPdmtoFm0elTgtgF8EEBjg9lkeyWTk+lmAb2c5VhXp63NDUYowS9yvh/r9LOljh7OTv4vM2vpb0oM0plcLqIAwM6RgADvJz7zWb6ByumSdg+4B8u/HnWt8B4FqOt+XcP6R8/6o/Guh8Mts7n691fV/o34S8Tjqp7KqgvRqrfp5fWeB4lqlL9nH6TZoJs4qUVDax4qbVX6Yj5liK0xFPqoTHVIKo9W9SGhVaAanApzSIqWKBNAVqUUxIqmgKYijIpKKAjpUdCaoEaalimFQDmo3jqQUmFAcrSKrMSCq0bVYQ1sEytViMVXSOrCmgJQ38KkiNRR1OrVASomOdSxrQKaNGpYJ4zRoKBTvUqiqA8UYoSaNBUBJiiBpkWiAqgQp1NPTqtQDU+afFLTRgYCnpMtOBWQGDTpQg0QatAQFGRTRijIrJRAUWKYU+KoGxSxT4pYowKnpqfFUhGaBhUlMKlFI3WoGWpnqrfXRCkhS5xkKuNTHHIaiBv5kVAVru0zWm8d4eV3AzW+yDfnt7qq3dmCDVQOSM+WKkHlnONj4gVj7nhI3IG579s7ct/LJ+ZroPE+CDuFa5d2dUho3EeGg91aH0j6Kd48/r+ddgurKsDxDh43qA4yl4R7L7jln+NNYcTms3E9s2MHUVBIzjBBGCCCMbMCDW5dI+jAO4HdWkMrRnB5VURnoPoN1i2/FAdJSC+21o+I7e6Ow+0xtFP3JcINLcnGwLbFY3pQsjqylTpdHGJYm/ouPA9zD2WGCDivJc1uVYSwHS67jH1yPIiu+9WfXTDfqtvdt2N1GOziuNOSANhHMnO4tjy0Z1x/schp3Zjg31ostqB92Kz/AAfjhXZvnWrXFnJC+hlCtjXpDao5EPKa2k5SxHnke0ufaAq7Hdq4yOfLFWjaZ1no70j0sGGD5MMqR4EZH5g+dbKeKCTfkd8r4Y8DtsRz2znxzXEeH8UKEZ91b1wjiwI51xtFN1H86kjaqEXE9WM4BwBsMA42yf63LJ7+fMnNmJqyQuq1W4zyqgj1ajeoQurUq1VjkqZDWWUlQVKtRoad3wDnlXFJ0rNJWNeXoRWc8lBPmfADzY4A8yK5zxzjLuc43Oyj+iPwGccz+4CrHSTpD2j4XdF+6B+0cfePdj+j5b9+1B5dK5PPBO+w5bk+Qr8e8f8AGf1mfscT/ZJ8r95+fyXbze/kfY+H6L2S65/E/sX4mN4txtYIWeQ4VV1Oc47uQP8ASPdXhLrQ6TS8SnZskRg+yvcFGwdvE45D3Vt3pC9eAupTZWzExI2JGB/xjnmuQeQ5H5Z+8K6L6N3UL+sQyLzAUs2PZXc/ePcNjjxxyr1fCdD+oQWfKv201sv4V+LOLWZ/ae7H4UcW4FZmOPEaj2d8ftdxLucc27vLbbFW7jpT2oWMI3ZuMyH2cppBClCxAZu0bUdR3Uso3OR7WtPQmmjWdF0OswQE6l1ZjYnIJHIgkEDGfZ8MHyt1s9VEnD5WgnQCMhQuNWXIYtnPcRty5Y8xXYyOTm+tP5nUhFTSUWm/I0PiVmqwooBVMFVRgA2vmz5H3twRq38B5T9W3WSbaQKxJjJPiWQ7hmA5YxzHdknxo7fhck0kb7hY9KtqO33icgYGBpKjG+4zneqXWBwWOH2o/aJyW5HfwGO/xrmgseWLw5N+r7P9zrS9thydUdq+09CWNsk4QxuCX7/DPeSdgAN88vkM9I6bcRR9EcX+JiQRp4ewpCkDwLYGeZG++a8d9SXW8IHMFwCI5BiKTfMT5zhx+1E49nP+TODgrqK+yYIktLdbi6YLqTtIxtrZSpEXZg7sHYs5c6F0qvtEE5/NvGdDk0meMZbp/A/4v913Ps9Lq4ZMfUue68jAwWEFvH2kwLKAWIJA1kct/An2dhv5cxqHAna5YyMNMYOEGMZA8PLb63rF3fEZOISBm9mBPurjGrw5AZ95Hj44reOHQ4AHcBgY8BX3PgXgUpRWbVLblR/E+e12u36YfWZKPuHhW38GTasPwvh2ceFbTaW+BX6XjifMzdlhFotVNinFds4WIGkKYUhUMj02acA0QqlAoWo6apRbFiowKkBogKpSMtSp9NCVoQamzRAU+KAE0OKPTQYoAcUiKLFJVoU5UibVYQ/PxqCA1ZiNbYJo6njIqFFqSgJY6mD1CtWAPGgDepiKGOpCTyrLBMu9SI1Rxr8qlQ1QSqKNaAVIi1UAlNOTTAUVAOtODSzTgUA+KQNEGpi1AMTTa6FmoC1QqJddF2lV9VPmoGWe0ou0qtqoxLQpZElPqqsHo+0qEosA02qoDLTdpVLRZD0LPURloWkqgkMlMXqBnqJ56hCw70BkrHT31VW4j51RZmDLUUk4rENe0D8QFCGQucEVrvErAVfF5yqGScGgNSu4MZrEXaitp4nbd9anfCjBhLyAVqPSHgqsD+VbjdVg+IcqzZo5JxKIxnasLdxB/aU6XHIg4IPmR+ddD47YBgcCuZ8btGjORnatWZaO59UPpAqQtjxEErqzFJnS8bf8ZDITmKTO5XPZyDIYAnNde4nwVoyrhhIkn+KnUaY5Tz7ORf8AIXI742wH5rzwPDy3ySgq2zD628q6j1Pdf8ti3q90BNayAIwca1KDksg79PNXBDodweedpnEz0facTDeydmHMd9ZXhPFCjb7g1iL2wjkiFxbuZLcKGL51T2wPdPjea25abpRkDHaAEE1Qs+LlW0SbZ3DZyrDuZWGxB7q0bTOz8I4qD7q2W1u81xnh/FiuCORrfeCcdBH7qxRWbxE9WVasPZ3YrJRSZrDIXUap1kqnGanjfurhZpFxXrU+l3H8+wp2Gzkd/wDUH7/l4ipuknSLR7CH2yMk/wBBT34/pNvpz4Z3wQdQhXUQByB/L93nX5t+k3jXs09Jhe7+Nrsv4fm+/ktu+30vhmi6n7Wa27fj+BJYpjU7bDcnyA+uQ5mvK3pYeksYlNlaH7eUYd1IJijO2PDWRy32O/tacVvfpKdeK2cXYQnVO+VRRzLcs4G4VcjPLw5sMcN6H+j/ACtZnibMk9zrM00T5DKjOY0kDMAnZF43jyjMVOgNoDxhvE8F0eHEo63W/C3WOL/efm/7q+o9DV5pO8WL6X9xo/Ur1W3E7pFDC0txLkKNi2B7TH2iO4HLN3E8s5r61ej91INw2GOHUxLKGuHX2Q0mN1LHfCkBAB7WNyEJNeL+ofrituBxSSTqjXU8bK8pIWSAs32cURy2lQN20jLYX72ha67w/wBOaRkQW4ibKOQsgZSpVHYZZSNayMvs6Su5RSw3z9Pq837RZs11e1cHk48U5xcYV9J7dlEa5ZmAwMnUwVUHPJzgKCcks25zz5V4v/SKcWgkhsCkiPIXkxo3+z0AhtYypwVxp1Z9rOMHNeLfSB9MbjHFGME7COJAHSC3BSBwGwZJ1LMzzBxsGYooA0qCSW4Xw3p/cNLokycZYAbAA41HHIZwM456R4Cvbhilkg9lTV87nHo0sWeEpvdM9FdDeKiQaCyxKAxLNtnQCQgA73IAB8a0Lp7xSU3EkSxldDmMAknGk6d9hk9/LepuifF1fbvNbLxKyXGsH7TBJJ5Du58yTz/fyrwOlafK5NH1viWk9pFZIfScQ6bcPncdlErO7+w7BcLknAhVjsCxOGbPLbvbHqTgvCZnb1cuZLW0EdnBIzmR51t41je4dtTZWSRXMYzgR9moChQBoPRfhrM6nBPtDAwdOc428TXfuD8LCKB8/fXrae/EJLG4r2UHbfLvsl6/d9B8nnS0+6fvMu8NtQowNgK2ngtjqxWK4fYliBW+8M4cFxX1rxpKlweL12X7KzxirqmgQVIhqpUZbJcUhS1U+a0SxitMRRaaEigoWaciktFmpQFmganYU2qhBmNPTGnqgbNMTRA0jQ0DTUWqn0UAJFAaNjTAUABWnAos04oDk8Qq1EarxVOj/CtsFgCpokqKNcc6mFC0GVqVajSrEYqCg1Sp0X8KiD1NEtBRKaNG8qZUqVapAlFEtBmjFCWGKdadFp80KFjenAplai1UAiKBzR5qKU0KRyPUGqimNRAVCEgakZKbR3UgKMD9rRiSo1o6iKShqMNUeKKgC1Us02aQFUoi1CJKLNRlqACWSsZd3mPr8atXclYG8lqkBmvDVE3VC0lRGPnv9d9CBteH6NMb36/fVST68KrmgMmL+j9erBmQ1LDJ9fmKgM1JJmsDxe054q/H9Zop7fP50Bz+9XGawl21bzxjhGdxWn3/AA4jasMqNVv2O+1adxyw1A/PlW/3tkf41r1/YUs0cP6ScKZCSPwqhZdLgfYlHlqxt8fD311bi/BQ2c1y/pV0NxkiuaJxtHROrHrkueGOrROzwZyVzkrnYlQcggj7yEFWGQRgkH1P0Z43a8Si12mnWQWezUhctjLyWBY+xJzZrNvZbnGfvCvn70f48Yvs5PuHYE92f3Z+VbTw/iEtswmt3I5MQGOk49351TjPZlvxZoSA+WiJKCTBBUjmkinDRuDsysAQa23hfGMEEHY7iuXdWPX9bcSAiuysF3hU7d8mKcLkKL5QMlgMKt4mZFAHaBwGato4pwGa0dgqtpXBeJjqdFbdZI2GVlgYbpLGSpHfkEDRUztfAukGa2+yus1586O9KAQCpyO8d499dM6PdJgRzrjlE0dLikqLinFxGuTuTsq+J/gOZPh76xcPGQFLEgADJPlWrcR42ZG1HbuQf0R4+88z8u6vjf0g8XXh+Ko/20vhXl/efou3m/S69bQaR552/gXP4Ed1clmIO5Jyx8+QAHhgAAeAFaH149ccXC7cknMzjEaAjUW8AOe3MnyPgc3utPrXtuFWxuZzlyCIYQftJX5KFXw8WOAoye4Z8QcPhu+NXpuJySXJMaf5KGNdyT3KiKNTMe4eAFfmnhPhr1ber1d/q8W22+Zy8l5+r+jk+m1Wo9klixfG9kvJGc6F2xuZmvLx9UjHEceC2nO6jHcozuf2j4ZOO2r1jyQJCoA9mB7Mrp1GcTzSTSRyrjR2REmMbaezVgQyoUwnCejcSudKk40qHIxlVGGYIdwXbcE9w5AkgbLxbg2tSQN8YK5wSByKnbDjmDnPdXpa7V48+VNr3Fsl2S7V5GcGmlGDv4meX+ujoPJKputQdtT9oAysiBANKjBJGF2xvy3OTvpnQTpw2tEUsrgEtqKqulAWJBJxnAz4nHI12zpT0aEWS+XgyzgDOWkbYI+PuYGB4EcjvXBL3o1quVRV/wAY4jUAf8YcADn3nA88V9z4fmhnwPHk3SWz8jwp9eny7d+V5lzpfxbLtKrKCcIBjIwDzx4htwcc/dWvwcdwuqMgsDhtQOp9XifLBxgd557Y3/gfU0t1JJBHMiMqNKrTOI1k7PZ442fAaUbFYyQWUMR9w45P0l6LyW/tr7S5B7QA7HuyO4EnvHhXsaV4Z/s1L3u1rlfn1s5NRjnD9ql6s3/hXTZYvaAIL7KhG6nvzy2XIxjnkeeOx9E74T9mT+2QuM7ah4jzrzJa33rSAAKJo9yc4LDvIHh4jfBx3HbsXVFxZgPAphwPNTy/CuTW+GxUN++zfkfR+B+IR1kJ6eXxpbeq/wBmev8AhHRtV04UDSoAOSST3u3cCeSqoGlcZLHJOwWdjk4FT8OQMqsORUMP9YAj862bg9hjBrm0eGGDGseNbL7X5v1PhdRKUpvq5sscH4QFrOxrUUdTqtd9nVQZFSKKFRUi7ViikgFAE3p0FHQUM1LFPTEUKPTMKelpoBqQFPTZqAYCnzT6aagEaEijUULmqBGlikTTqKoBoBmp80xWoCJkpEVIaZlqEOSxVYibFQRVZjrlKToc1NGaijapbeoWyWM1KpqMUYFQExHnVqPaoCtHI3Lv/KpRbLQFGlQxDNWUWtGQlSjFCDR6aAfNFThaWKAIU60Ip1FAGBUUlTBqhkoCrMtRKKlmU1AooaRKBTkUGaeoUc0QFDmiqEJBR1Fmqc/FNyFUswIyAOWRkZJ2G3jVCMlmo5bgDvqmHkONgviGIY48tJ50K8EBOpsv3gH7o/1Rzxz9rO9BZYW4DA6Tnuo4kON+fkMCpXFBihDFcQetevH+H5Vnb5hv4VrF9OB3j3kiqQKFc/xqV4qox8TX+ko/1gP30peNp/TQf66/vNAK6NU2P1mo7jjUf/GR+H+MT/3qx7cfhHOSMf8A51P4/jUMl8t9fvqaL4VhZuksA5zRD3yJ+GTUR6Z24/74hHvkT+NC2bharUzpvWqWfWLaDncwjP8A4Rf4/lUknWvYjndQ58NWe/HcDQlmdmirA8U4KDmqdx10cOHO8hHkWP8AAVjJ+vbhmN7yHw++O/l86llsxvEuFkH+Va9cWdZLiXXfww5/uuDbb/GJ+PtflWr3fW5w4na7g8P8dEPx11mmXqRBecP51rnFOEA8x5Vl7jrQsP8AOoP/AC0XzOHorXi0M4JhkjlAPtdnIr4/0tJOPjW1ZLRxzpR0M5kCtU4bxR4DpbdO8eHu/hXoDiXChvXOelPRHOTitojRiJLTViWEkMNxg/W9eiPR99IgkJY3+WUHEMmQssRbmYJDsoJ+/A+YpO8KTqHl21naFts47xWwhkmGVOGHwI+vGtWZo92dIOgOD2tuykMTpdMiGYgZ06ecM+PvQPvsSpdcGsLwTpeUbD5RhsQeXuPd8a5f1F9fzxEWlzho2UIde6SBTlVk5EMpxokUh1IyGFdS62YYmTtYyzRqvaOQC88CjcpNoB7VBzS4XfR/jArDLdLWayGkxPLk+SXdt8JfM5sGKWSfTE2JusPtCFDewu/LZm8c94Hd3Z332xqvWf6Rtrw+NmYiWbHsQg4UE8jK3cuf2Fyx5bV5t6a+kzbxR9nZh2cDHaMpUZ5EqT3csHH7q4ZwyWa+n1y5fLZAycEnvPiAPoCvzheB5fEM8tb4hccf8PDaXEUuyPpnq46eCxYd5fedNbil1xi5Nzcs8jOQIkAwiLn2VjQeyg/lknAr0xwTo/HZRi1XSZpP8fKGBUkYxZxsNtCEEyMNpZMBTpi+00nq56K9ggwPtGGAR+yD/wBU47+4Z99Z+7iAyGyy7DJ5g55g+/YbjJAwRXQ8S1izNYce2KOyS9OPqO/o9K4L2k/jZtkQxz7qykF4OValwzpBzVstjZX8yfuyd+ruD4w2Rn2sF8jOjZ2ICHuwdWojxzsFO/n8K+YyQae56qD49wBZAcAHVswIypHmO4+HfnvrzN1t9XssLdrCG0BvvLtJGRyYEb+ycFWG4PmMn1X2DRplu/Zc8z9eNKTo4A8auuRIfaB3CqvtOWHPCrudvHvzXc8P8Ulo53zHyOLPpo5Vb58zylxnpUtwI5+zjgaQtqiiVliBDdm7KGJIV3jaUqSdJkIzgCspw7o32pEKqHMns6SMqdXPX/VAySe4DxxW79YHQq2PEZFs1IhGezD82dlHbsE7o+11Mo3IBXJLDJ6f1f8AQoWyYJDSEe02OXkPf3/yFffaRfrkovCmov3nf7qe6+k8bPn9jF9XPCPBfWv1ay8IvRGW1KQJoZADpeNsgg5/aQho3U+GcYZa2jqo6Slrkq2PbUsuBgHA3HywfPevRHpidXvrHDfWFXMtm/a5xljBJhJ1Hkp7OU88LG3jXi3o1xsxNFKOcThj4lR94fFCVr9JkvaY6Pk9FqXpNTHMuE9/k+fsPq/1bQF7W3Y/8VH+CgVvlvFitZ6sogLO1wQR2ERBG4IaJWByPHOa2xK86EaRyaianllKPDk2vlZIoqZVqNRUqmtnWJFNHio1SjoUkVaIUAo81kqYsUqQpxQo1ILSNI0oCoitNTEeFSiDBaTLR6u6lUKNikxolNORVIwRSFPppYrQsbTQMtEaMioAMUJOKNhSaqQ5Apq5CtRRrUytWjROi1NEN6hFWloVBAVItRipohURSZV+f7qmjTNCo+v4VOGqgKOplqAfjUyGhCQCjUUANGKEHogtCtGGoB1WiHdQa6NR40ATGoJDU1QOahStOKrHnViaSqymgJlNFqqENUmuqUMLRCgD0QoCRa0Prk647bhNq1zcEkk6IYlx2s8mMiNc/dUDd5G2RfElVbfBXzs65uJPxzpIbQsxtrR2tFUagqrbH+65CM41S3AcGRQCY1iG+hakpRjFzltFJt/JCnKSiuXsEenvSLj8heKd7K1ySixSyW0KqNsa48TXTKN2Z2K5yVCbKMhdejjxbSCONTM5zgNNeKuRnbWJnOM9+g8+Vdw6c9JP1bHbW1lai4vbheys7bB7JVVghllVChYFtlQPGGCTO0kaROTv3Qzq74pgNf8AELZmPtG1tuEcOS1jyN0Fx2CXcmCT7YkTP9bYn5zHq9dqk8uDojj7J7t/Y/uPVlp9Phajkty7nzo6y+B8Z4ewF1PdaGJEcq3c0kEhAyQj69mHerhW2O2N60MdNrr/ADm4/wB4l/8Afr6k9YPV3FJH6pcgSW86sCQuCG/pJksUliJDoQWxscncV8vesHoXJY3dxaSbvBI0erGA6jeOQDJwssZWQAkkBhnfNe14brnqHLDmilmjylw15r7/AKDzNZp1iqeN3B8enoyk/Sic85pj75pD/wC1XrTp5B0Z4TcNYXsHGb26gSAyXEd/HHFI1xbR3OqJQ4KIFmGlSCdsEnmfOvVd1I3nE5WhtVTtVUSFJHMRKMAyuMqcqQykHvDAjY5qHra6p7nhdwttdlO2MSSkI5fSjFkRWJVSGxHkLgjQUIJDbe17t0eduZ30jegCcM4lNb208stu0VvcwySODM0V5ax3CLM0eEd0EpjLKAGCg4XVpHNG4pIcAu5A3HtscY5Eb7V3e69DC9Fg/EEntXSO3kvJYg0yyrDEutmTMOmQhcEjKgE8yATXB+I8MeJtEiPG4CsVdGR8OodDpYA4dGV1OMMrKRkEGtR6XwHaIjKT3n517P8AR26kOG3VhwqR+Dy8Te7u7q04hdRcRuYE4b2MqvFJcQxMIwjWj9t7bQltAAZ2ljU+WOhvVvPdNHpVkjkZ41meOTsGkjVWeJZFUqZFDqWQHKhgSNxnpXWf6PHE+C2kdxLcRi3v2MAW1uLjTOI0cuJlMUKske6FX1e05GNnxmTXBVudC9LLqN4dZw2TQWbcNuXurqGaH1yXiCNaRsFtr5mkZjEZdLSJCGUlHI9spqHPeH9SVgA5lvXcB/YMMSIGi0HEpWTtGB7TBI+6qAgtqdcZzqC9H+54rZyRx3MSo84KRmJpJFnjXs9R0ASlOydRhO0VVOrQShFapxbojNw9LyCdJ1Ike2jkEBEM7WsnZXfZTuYy8SzdnjRG5McyauzL4PDu9kzk4XBpnSDozbxvEsUk0quoclrdYWweWhTI+Q+G0sW5BSRliq5jqK4VE/E7eGaxN/FM/YPbhrhJAkvsGdGtiJFe2z22d1wjBsA6lxfEejDTOPVlll7OAT3LJFIexUOqSSOAoKwwmSJGlPsZP3gDXouf0MLuysZ+K23FWSSC0luWEMM8DvCAElRLmO4LEP2iowKBSG32rkcktmzNN7oXpC+ilwmyju5EvZLCWEzGCzvJLO6a9WPPZGz9VmN1DFOQFRruHUpPt6R7dePK6x1HdR0vGppY1uEilXEjPNqftDKxGAQdRlZ8nLHfPPJ3ynXn6LVzwucQo/rgXhsPGZniiKCG2uJzAjspkd2RWMReQABe1GQApatqSvpvcx0urOJg16W6kvQ6ku41ub2RreFxqjiQD1mRT91yXBWFG5jKszDfC7E6B6MHV0t/xSCKRQ0MYa5mU8mSEZCMORV5TGjA81YivoB1qdKooAkLzJA0qdoWaRIiItRREiLEAM2lixG6p2ePvk18t4x4jmx5YaTTf2kt2/Jen2v0PZ0OlhKDzZfhXbzOaQeiZwT7nYsW5Z9dn7TPjpEgXPlo+Fch61vRJn4erX3C55ZFiy7xHAuY4xuzKUwtxGo++hQHQCSHGquiS2/Ady5sy/PtTdfbZ/prKswdGB3BQrg7jFdP6tuPKkiwx3QuoSuqFmmSeaIoMmF5FJaaIoMpJJqkGkq7PlSPNn+vaGPt/avJFfFGXl3p7/cdyK02o/ZqPS+zR596resJb+AkgLPFgSqPunP3ZUz+y+CNOcqwI5FS2c4nwrOxrQ+lHRdeFdJeyiAjt7vSURfuiO8XaIDHsrHeLpQDkqIPKuyX3Dq+ojkjkhHJD4ZJNfSePTi3GXKdHE+lPRbmRXO543jbIJBFej+JcJznIrm3SjonzIFbTLRgeG8fWVcNtIN/Dcd4/hXQ+qXrtktpNMznUzgI+dgNIXSw5FDjcHbeuJ3dgUPhjv76uwTdouluY768XxPSR1eP2eRXH7V6o9LR5PZO+52rr46hY542v7FVQ/emtVGUJJyZbbGSqtnLREYU8iAQK571EcUja5igZBGwWTVqwBrXdApJycrlskA6sDcYJ3Hql60Hjb1edjjbQ+eXhvW39bnU+l9/dNppjuwA5jUBROVG7R6cYm9nIAz2gII9sES/HQ1c9PF6DWv3Gqhk8uyvzXryu57bwRm1qMS95cx8/kdBijGNu/HnnfmfLv8AH8qju/BtSjmCeR5bDu2zucnbGwziuL9WfW65Zbe5YpKh37g4GV3yBkgnPngcjkDt/FpoxE0sj6UVQ2RuTn7qoBgs7nZVGSTjbAyPltVpcumy+zmt3xXD8q87PXx5o5I9UX8/Q0vppxtLVRM/tJlhp75MYLJj9rVkKRjv38tf9Grr0S7mNpeskUvtPBIxCRy+1tbEEnTOAQIxqbtApGdQXtNS627yeb7eVSpC9nb2+SFjjHeck5kOdbsTkscCuedV/RmGSTXcg9hCQ8oUATzNu0dvb6vZSSUrpMrHESanwxUKfrdP4Xp8uhms3xviS5i/Tz8n2f0WeXk1GT2sXHhdn3/PbyPpNw3ha6Gvbo/Zx5S3iA9qeZV1KkajBZUGGdgQFG7Moya5l056XNHGO0I7VwSQMAKrEnbGPabJA2B06cYAQDServrWPZIt8QHywtQ0hLmPBZYiX+9oCkGTSDJsxBYnIWk5u7jtX3AbUuc7kZ9rB7t8KDvjmNzXx3h3gObJqfZzVpP4l8LV9vzyd3Va6Mcba+o2HoR0U37eVftGGEU7aF7tu7I7v5Vv8UPKo7SLl8qztnY5xX7dptPDT41CC2/qfDZssssuqRyr0i+kIg4TeMdzLF6ogzza6+yP+xGZJP8AUr5ycMG5FesvS+6advdx2EZylqQ8uNwbmVdl5b9jCwXIP35ZFIBSvL/GuFmG5eM/st/1lDgfjivRwzu4/Sa1OjlDTxzvu6+y1/Rn079ETjrTcGsy/wB6JXtSPAW0hhj+cSow8iOfOu0oK8v+gBxDPDp48k9ldtz7u0ghfSPJTkD3HuxXqOMCuGfJ0ocBjwqUDyoVFGi1g2HmjFR0S0AVSaqAU6mhpBrT0wp8VCjCnNIClmoBzTA04FMDUA5pEUhT6aoB1U5pCiIqUBmFIGnFLFaIDT4pxSqGRsUiafFIigORRnariCqwWrIrbNomVqmiWoU7qtJQ0EkdSpUYNTItSwTolSKvOhU86MD6/dVAca1JqqPV9YqZRUAYFEtJRTgVSMdRTikKeoQcCiU0IpwKAcmomqcrUUlC2U3qsatT1VIqgcUQamFFmgQYNS1CKJaFssW7bj/SH5185PRyvFPHuIavvO12y775FyWbHicE7eGfOvo1bD2l94/OvkJc9MXsOMTXMYy0F9cHTnAde3dZIycHAdCyZwcZzg4rjz4HnwZMS5caXzLjyLHljN8Jn1S4RwqF54p9+2S3AUMuwGOxd42x7JzrV18XzyxWd47xyOCKSaV1jjjVpJHY4VVUZLE+A8sk7Y3IrknV71rQ3cEd5asXjyVK/wCUicqO0hmUZ0OBgnOVbCOpZSrNr3Xx0cn4stvao/ZWvarNeKdQllSJlMcMen2dLEu7MzDS6QkBtOB814ZrMWDF7HM+mUW000etq8E8k+vHunwY3oZ1yXfF7xZY4ex4TH2iwNIMXF1Kh0mYKScQx5KYQYVzhndtSReRvTMmU8cu9PMLbK58XWzhBPwGF96mvafS7pRa8GtnuptKsVEVvAuF1LEum3tLaP8AYhjHMgaRl3bJYk/NPpR0ikuZ5riY5lnkeZzvjVIxYhQSSFGdKjJwoA7q73hb/WdZk1cVWJR6I/3t07+ivtR1dZ+ywRwt3O+p+h7n6BdJVlgsJwCLmHhtrwwyAaCIbWPEaKysMkM75cjUQE3IRNOY6Q9Fba+lEt5BDcTaI4e0dcy6IUEcYJDDOlFAyck8ySSTXFrHpm9vwyBoyFeTRAjEA6dUTSM+DtkLGcZGMsPCuapLKrdr2snaZ1BxIwcHOchgc8695YZTbaZ0XkjFJUe8OA9H7aGDiLmI9j+rLw3qK7KZbOOEtNGmCCr9mZNAVkIycMteKvTFtXHEotZ1N+q+EEnH/wCS4AfxBr1t1Y9JpLngfFpJcGVOEcXt5HAxr08LkmRyBtraJl14wNWrAHIeZvTZsgOKRAcv1bw8D3JAYwD4+yg3rWBNWmceanujr/oKcHhvrJ7G6BaG1vG4lGA7qVmmt1swcoyEgRmX2WJXLZxnBX19edTnDZUSK8tklgjLSwx3UvaIpkGGeNZWdQzHmwXPLVnfPjb9H5xFY/XnbOiOJpnwMnRABK2PgDjnXJelPSGa/kN1eMZpZD2mG9tIc8ooEPsxxxjCKFAzp1MWYsx4J45TyOnRzRnGEFaPqdwfqR4dbxuttZx2ZVHuIHjXQdYj1LMgiVY3IZRl1ZCybeydx4K9NZWSyRcCML0i41bsqH2WNtFbWxlx3C4kt2uCGyQzjJJGa6j6DnWHOZJeHOxlt3gluIVcsxt5YgCeyJOUhmjLiRPu6gjAA6ief/pAVCwtp2/v9xEnB2Pb28U5J5ZLewfP41rBGUJ0zGVqUU0cu9BC318ZCOokiltpIJ4m+7LFrS4aJzvhH9WwT7q+o01jYrGA8EEUOjs+zeUiDAyHQxu2hlYdniPceyPZ5Y+XPoH3f9+Ys7alZSR4NG65PkCR4e8YrJ+kF1iScQ4hdtKxMcNzNbW8J/xMaWkz2yukf3RJL2bSu5BbMhXOlVAZ8csmSkXFNQhbPppacDsQqvFZ2RViD2kUcJXAx914QN1Kh1DO2CTyzt5c9JbhQVL8+yTH0VusSaftHS44raRwwk5JKW3qMrL7WB6xsq+1q8/+jJ0/mtL+ERMVguZorW4gA+zf1iVbeKYJ91ZoppI2MoGTGJFOQVKem/SUQNw/iDkDX+oZEBxvo9fnbRn+jqRTjyzXHDHLHkSbLOanG0eHfQU40kfF9DnBuLWeBPNxouAPLKQOBnmcDmRXd/Sn6k1vOIWt3M7ereqR2qwQ5NzNcwNKWiUspitoew7KWW7mOFyFVJHKgeEej/SCW3mjnhcxyxOssbrjKuhypwQQRnmrAgjIIIJFfSzqZ9Iqy4vCqMY0ucKZrSQgZZc/aWxbHaxncjQTJGCVYAEF/B8Xhn0upjr8MepdLjLvXr8vw9Tv6J482J6ebp3a9fQ5fbdDLG3RRLBwyBCAET9XR3ci7e1rvL6R5bo5/bEFv37cgu0dUvVbbi9W8iitPYR8XFmktojB0EYglsTJc2+o6mkFxBPGToKtCNmO7X/UDZvK0shndmYs3aSRkHfOnPYhgij2VVSNKgAYxWmdbnpFWHB7cw2YhluRlY4IsNDFIwz2t2ybAjGrstXaykY9hdTp4L8R1WtTwYW5OWzVJJJ+vb6z0lpcGn/aTSVcb7nC/SX4+svSa1RN/VnsLZj3a+3FwwG5+4bjQeXtKa7/AH9ng/hXgbojx134hBPKxd3vIppGOMu7XKyOxxgZZsnYDnX0n43wXc/H99ffRwewxY8S/dil9SR808ntJyl5uzmtzYVgeKcJyMV0C7sMVhb2zrFnKjhnSvopzIFadYcJIavQXEeFAjBFalP0RyxIFcUnsdiOxoV5wfI25jcV0nqt6wT7MEhw6kBGPLyU+IJwBvnzG2K1r0RYmh6Q9XHs9pHtIu+P6XkP4d9fOa7RR1EHGS+Xoz1tNqXjlZ0bpx1WwcROtfsrxMtrAH2oAyS3LMmc5OxP7WTljZ6D9HTGFFyQ/ZKdKamYCUZDFlZVwwHIEEjI3O9aZ0O6fakWORiJlbnyYgLp0s3cQF+823PvJzv/AA7pFJczRtoDFAFLAaGbA0gkgHUw5jVkncZ8Pz3OtRij7Gb9yPF9vk/Jn0EY45v2keXya10i6IyXJZynLJ2HsqM7+4Ab+Fa10d6AKr63AWOPJO5PngZ/aY9w8+6u0TdGpgoM4ZVbLKWBVWVebAEbgEHkDj41zHpXxxWbQmSinuH3m5bfxP7t+bQZs2Z+xx7p+RnPGEF1Mo3tqsjl3UHVlYkPJVHJsc8+HLf3Gt76HWGCuO7+NazwDhZPttz/AB8vgK6b0O4X9fzr9V0GkWnxqPfufF6nP7SV9uxufDbTltWL63uspeGWUlxsZT9jbIdw87g6MjIzHGAZZMH7qEDdlB2V7hIkZ5GVERS7ux0qioCzMxPJVUEk+FeC+unrRfid2ZQMQR5htUOciMkZlcHlLOQHcADSojTfs9TejkkkjseHaOWpyJfurlmF6CcHae47RiZJGcyOTu0ksj5yfFnkbUfOtZ68OjjQcWnhY5ZewLY/pSWkUjAeOlnK578V6x9F/qxKoLuRe8iEH9puRlx4J91SebZI+6CfMvXPfC44/elTst00GcZ/4MFti2O8ZiJ8xW9JF25PyO/4/qoNR0uPiLt/Oqr6L3PW/oBf8EvB3Lcovhv2IY/HLflXqpBXmz0GOGFeH3Ep5T3srqeWoJDDHkD/AElcfCvSUZrU+T5eHBKKkFAtGKwbCFSKaBTThqFJKfNBpp6CyRacVGGo46FsIU9INSqMowpwKWaVQDgUlNMKVCD5oQacLSqkCBpzSzTVAIUitPmmK0AgKVMWpUIcoWrEQqCH+VWFrZyUWIP5VJGajhG1TRioUPFTwCoozUyGgJ4xUhSohVgPtVA2DUyiowtTLQgYpwKYUWKgYhR4pgKcCoAhT02KNapRjUUhqVlqrKaGStM1UmuN6O7nrEyTVQZM3dL1qsOtzR+s1QZVZPOpxNWHSapRPVBmLa53HvH518cutCAniF9juvLn/tD19eIrrce8fn+NfMmbque+4jxQqyRxxXlzrdzsS91JoQd/IElt8bbb1z4nVnDkVnNuhnWBd2MnaWs8lu5GG0NhXAzhZYzmOVRkkLIrgHfGd66tP6a3GSmO1gDEY7UWcAlPdndDGCfKMc+6sr1o+jetmgRnaO60xyPDIC4MckesSJIgIQaTqCvqJGQdGnfhHHbLGNsYwPHPn5A1memw5/eyQi36pMkc2THtGTXyZtHCBd8WvE7aV7ieZ1hVpXJ3dsKu+0cali2lAFAzgV2Drs9D6SwtTdLcRzqhRZkWFomjEjCMSITI/aoJGRWysZAbVuAQMR0v6juJdG/1bfzaNFyEuIpIw8iwToFmFrdZVFEhQg6Ff7VBNob7Nyud66/TFPELP1VLdYe10mdhK0uoRusixxAxRlFZ1UsXLHSCuDnUPO1UNUs+Jaelh/eW3F/hxXfk7mCWF45vL8fb8/iZfov1cm74ZAgOGQKynGQHRCm4G+lkZlJG4yDjbFY6DqEuwy7K4yPukD55wAPOvR3o8cJszYWFvLcdleS2aXgiELTO8M2ySkieNVQsjrshIxvnu3DpVxnhFjMYbviSQTBVfQ8KKSrD2WAa6XUpwRnxB8Dj1YrJG6RwPoluVOh/QEWvBuJwZBduE8WeQjcF5eGzjC8iQihIx4gZ2zivLXpa9Dri84tBHZwvcSHg9pcCOIB5WjjSVnaNAdUpC7hIwztn2VNe5NNm9rJovfsZYJUmdUjikW3khKyscy3GmMxSHU7xqoQq2rDDHz/9L/iLLccI0YQjgvCrqKaMssjfYkROJA2UWMoWj0aSGdySx0aLixyTbkYyyVJI6V+jggEk12hAZXhkDKfulfsVZW8nVmHuJrNdMfQ9vrOVo7RfXbbVpt37e1iueywDGt3HPLbp2sYPZtJAZEk069MOsxpB+j9vILaCW8nlWJpbyax1yNq7UvaW8wiVWILyk6pAVYPhXPtAEV616bdddhZqr3V1HGpYIC2nZirMEOGLKcI2xAOx2yMVHiyqblFJp+ZqMoONM1j0XPRzksXkurrsxcvG1vEkUvaCJH3laR19h5JAgUKmpUAOHbXt5w/SESZikOP/ANtsTt3vwKxkPu+9XrnoZ152t5EZLScOocRhwMIZGIHZozey8hLpiMEn2htvXkP03bmGTh2uLtSRx6WG5M4mEy3UfCYhJGwnGrSsPqwXTlFUBVwFwNQw5FPqmZyTj00jknoJx543AveY5cd/KJyOX9leg+uz0WpXuZ7m1ZMTu0725wuiWVtUrwPsrxTSFpSrlWjdnHtro0+c/Qy4iIeJPdMdMVlZz38zBdbCGBo0mwo3YGOVxpG5zsQQDX0O470ziW1e+Ik9WSJ52bsXLdlGuqR9ChiVTbOM4zviuSeGfX1QokJR6akcE9HD0e5orlbq8VFEJLRRag7NKVZVlkKEqqQ57RVyzNL2bewIsSdG9Jq9UWV9CfvHo/PKu2xWPiV1GSD5GSMb+FUerP0m+H38jx20jARqryNJFLHGAWCj2mXAZmOwPPDc8Vh+vSNSt+G7USN0Y4tN7bOUeFL6w9XliDthFM3rShUUatT6gDpzwvDPr6pUalKKjSPl2wrferrqenvOwkP2VrNdjh/rJ0MqTmE3BQxdoshxCDIW9lMba84BpdB+qi94gJTZ27TCAK0ul410CQOUJ7R0JyI5D7OcaTnG1etfQ+6O3FvqsbqExGGa44jodUcEvaWsEbDOtGXRKzK6E7gjP3hXYnai2deCuVHP/SD6gJ+GWBnPF57tRefq1oiJokEgh7Z0ZWuZBtGQQV1qcMDpypNP0avRxs+JwM1zc3EQaSNEWHssF8SglhLlW7MbgYVvabDAZz7d6RdObe3Cm4mhhDEkCQquo4wX0kHcgadWPLNDYdJIpV7SB4nTnrj7Nhkct15EeB3rzFkajSO77NN7ngPrL9HifhPEJCuZrWz4vFwv1jXFk3AjjuxE8QOvV2Zb21UplGBIOAfoNc2oOfMn865J6ZVjjhtkw06puL8IuW0oFZmn4TcSl5CCS7DOgudyEHLlXYbcVyTl1JNnAlTaNR41wXwrVb6zI2rrFxaZrVuLcG3ziuBo5UznNzY5qnZ8PGeVbZd2Hw+tqgsLCuCWxzxZixw0Du8BQyW3dWfvYgKgtOHZOTXXqzn6jR+MdWIlPaL7L4wQNgw548if4VtnU08S3EaXBKhWUhMHTKQw+ydv2ARuWIIIBHMrnYNAG2PfWI4x0ZWQg50kd4A3Hh/A/wAq+f8AFfCP1vG1B1I9LSa72LqXBW61emL3UzdmdKZIGhezjVAcLpQH2QRkhck7nJYlmOmcG6Nb5O4HLPP3/H5VvNn0aCjnnfOTzP8AZTraAZrs+EeFQ0ONL986+s1bzOl8JX4fwvcAD6NdP6OcM0KKwPRzgvIkVyHr/wCvrAaxs2wRqjuZ1ONPc1vA4/ynMSyD7m6qdeox/SdSijqabSz1ORQh9L8kav6TnXj6y7WFsf7mjYC4kB/x8qHIjXH+Qgcbn/KSjb2Y1MmqdRvVM19OM5EMeHlfHJe5Qf6b8l8Nz3HOt9A+r6S9nSGFdydz+wijm7nuVRuT+ZwD7u6D9CYrKBbeIbDd3/akfvd/yC/sqAK4knkd9j6zU5oeG4fZY/jf5t/cWeL8Yis7aSYgLDaQtLpHckCFgijvLaQg8WYeNfLXo90hczzXLnLt2srN/Skl1Fj4bs5P1t6+9PDrSWK1j4ahBluSk8/fot4n1RKfBpp0DjvCwnO0ik+bOonqva+vbW2I9iVhcTHuFrE2ZScHI7XHYrnHtSLXrY49MT89yScpH0b9Gzol6nwuzgOdQi7Z88+0uWNw/uw0mkA8gAO6upx1ieFn6931yrLCuo3bOZLYmqSo1aiC1k0SZokNR0VQgYFE1CgogaAcGnDU2aQalAkWiFDmkppRQiaWaSmnzUotjE04NMRSoBGnJphT0IOKS0hSxVRBwaWaHFFmoBqempPQM5TC9WBVaJatqlaOQmQVYWoUFSpHQpMi0WnwoVSpohUKSx91GTQ6KkRKoJBUyLUQNS6qECC1JimxSxUILFEopKKkWqVDZpwaQWkFoQFqo3ktX5TWIv251QYi+nrFyzVZvmrHBqtkJ9dA0lIPUUrVTNk5nohcVVRqkDigstR3JyPePzr59cJ6yo7TiXFIJgyxS8QuGEsYDPDJHdSBW0MCJE5ZXntyOTj36rbj676+XHWvH/fPiXh6/d/9rkrnxpO7OHIz3h0p9JKy9Xabt4pmjsJAsckLszcSDtDbSxvKWaO1ki0XLx6FEB7RSWABPjrqw6oLy7uLRhY3k1h6zapLOtlPJb9h20aSu0ixFCgjDFiMgDJO1D1JdLp+GXMfETYeuwQD7SOeJzb4n+yR1laORIZBIQsU5R1DkLglwD9b+pv0huHcXgV7K5jEmn2rWVkju4Gx92W2DhmUH9uItG4B0vzx6WTJKaSfZUvkdYyHXN1cW/E7G74dMFYSws0ahlEkci5NtPHvldEyLhj7DYZWypYV4V6P/opLto0M3EraKVgC0aWk06qSN1Eplh1EHbIQA17O4/xNYkuZbu7jiv7S1WCe7sLO4eO1tr6YPHO1pO16i9m8RnZ5WnEEYMkgERbOtelh12XPBOEiW3hnu5JVFqvEG7AwQSOgCXN0Iuz+0l3aHsrdYGkwpaLVGj8axlcjxbadPj0a408V7cLxZOHW9vw6L1cRQNHEi9qLd4nK6zCbqaJh2szAg6m9krHg/S66TLxibhvEfU7nhtpcWs1nHc3ip2E3q8slyhhEJOkH1js1LaQ2sEMyIxXzBxK4Z2LMzO7Eu7sxZ3dzqZ3diSzsxLMxJJJNek+n11FL0V4dG/FbS5u7S6kuPUzdzy3iWt3FDbw2sUckWEa00faQIwjjjDFC2MHsx4ow2em+H9cz8O4daeu8D4hHeXFnNwyOUtYCKWW4tkiWLPrAmhnZHDJZz2/bzKnsg9lOR4T65uhHFrSS3j4ukqSC1it7btZIpUFtaZgighkheSLFuVMbRBu0jY+2oLgn0H1icZsbKPgiQ8VtOJWicUsuLcWmhuLifjNzdKS01xJDLEOytrS07S2hXt2lMkg1jUdR3LrG6/OEtxLhskt1Y3VtCnG2v1s+H3HqVza8TbtoLFbaaNWTit43a9vdfZBJmhd5FIYty9ClwYcjgfoqQX0lxG8OJbHh1wvF7mKSZILUOsZtxI8zo6xu8RZFU57URsArFGKdH6+OuXh3Gbd7uHh15bRSX9kvELua5jbXIIZ5Ft7GMJLGs5t0mlGAAulA8bdsDW+9Euvjgpn4vDPc2D2dxxS14kpu+DSy2lzwyOxEbcPtreJFkt+LWoMUIkdUDSxyupclhXIeA9a3AH4Te8OmgvoGS44lxHhrqwlV55Vih4T61ofWJ7W3DwOkzSWzRtMWlLyR9nyqNKqJ1HYfRl6x7e0s04UtoOLCSS44tA9pxayje3iAjdhxdZewSyMC6WLvIV15ACsAg4X6TfRnicl5xRpVxb208PE7q2juu2hsZuLRwWsLSGRYJLiWVY7eMTJE2UKNiNZMtgvRi4/bxz38V5N6vFfcJvOF+sdk8yW8l6YuymmjjzK0AaHSxjDMNQOAodl7Jwfrb4JPJf8AD5rxPVH4RwHhcF1Pb8Rggu34E0LzySR2sUl7ao7I+gyBNk3YZGTxtpKvpJ1nAOjnVxfw2DcWiuLa3t5EuLfs34hDb3V5BE8UV7DFauytcxanjV0GSTpwpJj1e2etrr2ntOEy21xwiPsZYRw25lt+LxTx2f6ytS0E17bxWou7eR4ZI5kRwBKUVBLvEX82cf6cWUvRv9WpxG0gmtbriErWb8Ou7mW6El1HPY/q/iL2Ze3iZY3DNJJAzgqJlQNW8ekZ1s8PmsOJ3NnP2/65HA7JkS0urf1V+CwrJJ69Lc4jmuZdHZxJaLpEUasT955LvGLVc/nuWzmPUd1gRcM4herw+xfjds1vGSsjGGTs7ZY5bm4GLZwFExkjjLQg6TH/AIxm9qr6R3pIjjCQ3MZaxmjjk4YbKKaeYzWcsgvDNcXQjt4HjadihtihLNGjFQAuOKcIuZFZuzdo+0RoXxIYwyPu0chBAeJ8DVG+UbAyDWZ6RcBRY4J1STs5olH2rxpLJOoBuZY4oy5W0R27KFn0s6qrMFLkV13bXT9y/ryb6u51D0UOh5kE8y3djbSGeK1j9Yslvrli1rd3E0aq8kYtbW4tYZ4ppxlpNIjVo2Pt9T9EHpO015evL2REccsCrb5FqI4msoI0tdWcQBI8p3kHUcljnhno6dWt3c3JubfhKcUhtjplhnmht7dmlRiql53RZZFRXkESiQjAYpgDPVPQltm9Y4uOyaBVibTE2svA3rcQaI9phy0OmONu0Gr2d8HNcOaHuM5MT945dx3pXLeO9zKSXlYuoJ+4jMTHEo5KsaYXAxk5PNjW+ejxxySK9CK2I5R2cqZ9lgdlfTy1xsQwbGdOsd9Zfp11L+27QeyWYsIyPs8scsEbuBJJAPLl4VsvUt1SvA3bzYLj7ig5xsQSe7ZS2B448BXn5OlQ2OdKXVZ0P03iRw3h3lf8CHiN+BSN/wC2a6vbAcq5N6b8w/V1iP6PE+AA/wD+u5I/1c/jW/WPEsnP1vXUr3Ucl7mzu4+vlWPuwD8KqzXtVZLw/urLNGD4xBuTisLBIRn651tElvn86hg4P411pRs5oyMVBaFjyrJnh+Bt9eVZWGy08qkitsk+BrShReowTWHxq5acJ23rOpw3Ayaw3F+IY2WtdJLMRxOYZwKqWFlk78uflWHTjTKkslyEgRHbDdoGBQfdckgaSxyNGM7d+a4v1h9a8l0Gih1RWxyrH7ss47w3Ixwt/wAX95x97ALJXDKSiepovD8urlUFUe8uy/Fm09cXX17LWli+33ZrlD3cjFbMO/uadeW4QknWvGOiPQuW5kSGFNTNso5KAObMeSqo3JPdWR6C9Xk15MI4k5Yyx2RFPNnO4Cj4k8gCSAfYvQzoNbcNt3wyrpXXPcSFYwQoyxZ2IWOJeeC2O81iMXkfofT6jUYPCsfssW+V/m5fcgurDqzi4fEI0w0jYM0uMMzf0V7xGv7I7+Z3O1Drp66LfhNuZZiHmcEW9uDh5nG2+N0gjODJKdgNl1OyqeQ9cHpvW1uGi4cBdT7qZ2DC0jIJUlM6XuWBGQV0xEEMJJBla8UdK+ls93K09zK80r/edzvjuVQMKiDPsogVV7gK9bHhrng/Pc2olkk5SdyfLMlfcbe9uZru7csXczStzyTukSAk4UACNEGyRqAMBQK99+il1PNY2zXM66bq9VHKFdLQW49qC3YHdZDntZRhSCUQgGI5516J/olNH2fEOIx4YYktbRxurc0ublDyZeccDDIOGcDAWvXbHJ8Tvn41ck72Rwwj3Zl+GNWSWqHDo9hV9a6x2CVDUoNQj86kDVAgxT5pgafNAEDRKajFFmhCUU+mgBp1agDoloC9PmpQDDU6mhBp0qAKnIpqehRiKQpZpAUIEtOaYCnFUDYp8UqYrVAiKcikBSNQHKYRVrFVYqsxiqcpOh8fryqeIVGiVIooQnR6liqJEqWIVCk1HihRaJV/GqAgKnWolWplFCIkVqMChUU+ahRwKNVoSKLNaAQpUNGBWQRyLWIvRzrLznasTfLtWiGsX7b1jmk3rIcSesSDVMljXQu1RCSnBqkJNVPqqNTTk0ISo3L314l6ubK3bjfGjModxcXixqQGIEt5Kk0qq2csilV1c11nlnNe14/3182+t4PFxniDRMyOL2d1ZHaOQGRy+VdCGUnWR7JB3PjXYwq7RxzPoTxc8JsMRiAxWJh9TlaWMmWW2uiykdgXmCwIw7J0haUO8JdUBYqvBf0dfAIv1++tVdoeHXUsbOqkrJ29pD2i8wrmOWVfZO2th31wDpH1vXNwYxcs8jxkYMixgqwXSZDpjVjJgnLNvkknJZid59Dbj4HFpZfXprCNLC7aSS3htp7mVfsh2EIvPsFkMhSZZHzgwjkCSPZmouK6Vv3One59DfSN9K+x4AYgyCe7uZomnt4GjFyLUKY5LuXOFyiIscKSle2YBAyKrvHJxfrj4D0i4de2EPEbQi6tZYtE7C2mhdAJIZzbXYic+rTrHIGRWAKZVjsa8Ecf6muDzytK3GZTLMxdpb2+sFd/ORwJvbxjYuwHIEgChb0a+C/tcYt5M8lj4rw0sT8YCPyrjgpPhFao829H+D9u6R60jZxhS+QhfTlIyf2e0bCBjsCwzXqToMtpa9F+I+sJHbXct9NYE3PB4eJXDyfqgSC3gmZ4ZeHguFljugZOxZnYI+xqlH6OvA9Wk8QdvDHFeGD37CzkyN8bcu/nW3cM6h+CEJnjT6EYTCOTjtg0YkUFdUkX6vaMkx5jLnLaPZzprtQxZHxFnFJpdzXel/okWcUXARb3zzX3FJuHRzWbTWaO0PEbUXL3Nocdpbx2xHq+bmOcSNNEwJwUfe//AKOHB7C/4pbP6zf2z9Fp+LW+VtZbu3kS/wDVpWt5Owjja6i9WLwzrBEVSSZGBHtnJz9XPC5LSOybpGjwRXKXtrG/HrON7WWKN0UWbrwluwjAkJEMIWNSEZFRtRNC56qrJrhbtuk07XUcZhW4fpQz3aRnXqhW5/UzSpEe1fVHqVT2j5B1HPZWHI/3WcDlHzNR6Z9RthcdHra9hV7fiVnwGDicpjFuLO9ibjM9k/rKKBc+voDq9ZJ0tGsSHVpzHjuHejbwuXjlnwqMcZhQ3VxZ3jXqWsRn9VtpZhNw2VItKRu8BDpLHMQk0DJJ7ZC7bH6OnBRJoXjsQt+wMGZOOEy6NfbrZmBODCF7JrnErIHX2jrEZesv0o6OQXSQLJxThqtajTAx6X9IJ3hGnS3q/rHCLn1fIAXCAMU0rq0xoK5f1fJ5GPaRMV1MdU3BeM2N5FayTWiWnEoXtp72G0lvmj4zZx2lhZ3ghVori2PHoUCj7ywyN7UBklI2ibqpsby8u7aExW9pF0q4PwdYIbe3iy0XCpbC6kgnVI7iOftoJrggStDLIpZ4pizFucWnUVwyLATiVokZMQkMXHOIKSUfWuFTgPtiBwJI3dRofBCqRmjuupjhQZj+tYctKLjX+s+KvJ2qFmjnkKcEGq6VpJD2/ssGkcjZ2rX6vkr/AHMvIjI3vo48MkvmuCeKXVtJwS448bXtYX4pNc23Ev1bNaC4hhKlc/bLogLDSVLBVNeefSG6rYeHcW4hYwSM8NrcGOJpSDKUaNJBrKKql1DhCwVc6dxXo7ox0V4LaSJInELaRo8hHNx0jjljDpJ2qxS2dlbvHHJJK8rRKcGRmJ1amrA9OujHBby6nu7riMRluJGnkKxcblDFjso7Lhg0KihUAI1YAyWOST0uR9iLKjyO8OO8fjWX6JdIUhmV5EDqWjWQ9mkrrEHHbdnFNmF3aLUqiYFc4BwrPn0Bc9W/Rv8Az9e/b1PpAfd/3knv76oXvV70eHLiC+8WXSA/g9uM/OuGWlmjmWRM07qk6yrOzW6MlxxWNfWo5rO3tTZbqba8tZLi7kuoZofWI7W59XxFEmozswJ7NOz9AejrxmxVLi5to74xX3Gf1bbiR4Jb4Gezjuma8kMiK0ZaGWTYysMAFpGy7ciboV0eUNm+DEjC/wBwccGDke0N0HIEYbI38q1vhvE7e1kFzYv7VrIJlKPdwmQiKYI+i6WeMMuGUK0ZLLIw2zg4WKUeaa79zame1+tDi1rw60W+mW7MBufUtYtcBZdEjqWV2Q6XET6HAKn2cHDA0HVjeR8Yg7ayknC9oYgpgVGZsooALNo+/KqjLc9R5AmvN3pe9bHEEUcLu3tZLe5S04uHghljuASk4t0lZ5Oy1oJHEhiiCyAqwCt7Kal1JemvecGsWsrW2s3/ALoN0k8yXLXCtIqrIuqO6jXsx2cZSMIoDamOokk9HowttOKrtzz9Z2VkkegvSl4ij2aoI5EaDpJY2cscjMW7VODtkoGZmCxRvDGE9kKYyAMYLd56IdApJACw7NcDcj2uXcv7zjyzXzb4P1lS8S45aXdxjt7nilnNMI9SwF+2gj1rGzOQ7aWLksR7WwUbV9gLNudeTkgkc0ZHMOlfQr1dVbWW1Ppxpxj2S2c5P9HHIc61Uxgjf3/2VB6SfpH29hPbW9xG4il7WTt0+0KtBhNJhVSxDdoNw2R3iuXr6XfBs/42c/8Aik37wK6zg3wcykkddgi5eFXE4aTXErj01uERjIW9lOdglooP/np4R+NAPT74YPu2nED74rVB5/8Afb09k/IdaPQMPA+Wauerqu+1eVuM/pD4h/ieGzMPGW8ih/BIJ8+7I99aN0i/SAXLg9lZW8Z7jJPLMB7wi2+fmK2sTHtEew+LcRzkCuS9Pes+G1OjeWfuiQgsPOVuUS9/tbkfdDYryV0k9Ljic6le1igB2Jghw+DzAeVpWX3qQ3ga5XJ0plOcyynOScOVyTuS2OZJ3JO5NSWCT4O3gzYIyvMpNeSpX832+o9D9MumbzsJLmRQAcxxatMMfmAxy742Mjb88BQcVp//AOkC0DDtJGK8z2Uet8eCaikeo8hqcAd9cVlnyc957ycn5mtn6K9Vd/eafVrO5mDHAdIHMXxmIESjzZwPwrC0UeZP7j3p/pLOEPZ6bFGC7d/wV/OzuN56Znq0Zg4XZRwJnea5czzybffaOMxokmeQZ5kAzgDO3DOnXWrfX5Bu7mWbByqsQsSncakhjCQo2CRqVAcbZrt3Qr0C+IzYa5lgs171Les3APdiOE9ifjcKR4c8ejOgHoZ8JtCrvG97IDnVdEGIbaSBbR6YWHM4m7bc+Qx2l0Y+D5Oc8mWTlNtt8tnhnqy6ieIcTP8ActuzR6grTv8AZWyZOCWmfAbTuSkYkkwNkY4B94dQ3oj2fDCs0um7vAMiV1xBE2cj1aFs4YbATyZfIJURaiK7fawBQFACquyqo0qB4KoACgeAGKmA2rjllb4LHH5hzN3+PzqGCPNI71btrciuE5TI268qtCobdamQVKASipM0AFFUKG9ErUANHUA+KcGmpVSBoakWoloqgDJpE0JanqECqTH8KjFPqpRSQUloVaizQBGlTKKfFUDikKVPUoDYp80qVaJQ2ac0iKQFQHKoatqaqoT4VYRKHMiyoqZBQom1SKKoJFqeOoFFTqmKgJQKkDVGiVKo2oBRmp1qGNKmWgRLTpTCjWgHFICkTRAVSCAosUOafFBZHMtYjiJrMy8qxF/y35VUQ1fiVYd6y3EiM1iGNUliBpxQsopwKEokzSzQNTmgDV968m9DeoheLdJ+IrM7JbW03rE+hmSR9ekRxK67xqxyWkX2gqnTgkMvrECvMnVx10RcL6TcVNxqFtcFVlZV7QxFDE6SsgIkeJQzq6xLI+GyEIBxxZ/aexn7L462rnlXXrV16msfT7SPXxZal6yuiHEphw8cOuIGnk9Xh4iAqymRsxwzNJ2r3I7RioX1lbhcsnaxqNZTkfV31fS8P43ecPfEsiQXEOoKfbQxpcxTIgJZTJEEcrltKs4OQC1dssfR76L2NyvE/wBdRSWsUnrUFolxBM+uNjJHGrQu9xcCNlAWPslclAHZstnknQDp09/0nj4iUaJLmeXswQc9mtm1vHGWGVMohVS41YyGwfug83gnvajpxubxUr67+K+3VvxzWxjxB9OLql09e9VXFd69eO5o3QDq5mv5orezhee4kHsxJpLOVVnZk1FVCiNSx1MAAp35V3uy9A3j4H/1XPknnrtQMeBBuM8+/Pwqp+jki/wg4V5Cb/sE42+ddd65vSs43bcS4hBHxKdYor+8ijRVgISOO7kSJAXhZsIgVdz3c6/QceNUqSur3vza7HzeTLN5OlHPrP0EuP8AfwybyPa2f5es5+eKzFt6CXHRz4dIPPtbT91waz3Q70suNTSxI3Ebgq0sakAxJlS4DDKRqwyM99fWm+2Rj/VP5Vc+Z6dRbhF3f8XavX1OvOU0nb4PkSPQQ45/93v/AOXs/wD5nFXYPQP43/mDf+Xs/wD5g19csUsV0f8Aib/gj/1fib6H5nyR/wDoI8b/AMxb/wAvZ/vuBQn0EeOf5if/AC9n/wDM19cCKCtLxSX8Ef8Aq/Ey4PzPks/oE8cI/wCBfD1izz8f7oxTD0B+Of5l/wCk2f8A8xX1rFEBT/isl/8Abh/1f9xPZvzPki3oA8byAbQDOR/wm0xyzv8AbnHwz+dM36O3jf8Amqf73a7/APna+sl99+L/AEj/ANU1YP1+Nafik6XuQ/6vP+Y68YycpLq4dfYn958j/wD9XFxw/wDe0X+923/v0L/o1+OH/IQj33cH7i31419cwKLTWP8Ais/4If8AV/3HKsT8z47X/wCjA48QdMNr5ZvkB5cvuEeX3q8v2HRGWO24lIUx6q1rFKGIyrTvdW+j2dQb21KEqWBPInIJ/RNMNvl+dfC3pVbD9X9LPKXhjf8A9YuV+Z1DOPGuxhzfrEJykkumuLXPzbNqTg0r5cftkkaj6c1qy8Qs1bmvCLBCPDQsikH4g15ukFeqv0hKf32g2x/e21339r7W43GeYB9nI29nyNeV5q8BrY9iLNt6m1/vlw//AJ9Z/wDao6+1tpkZz4mvin1OMf1jw/HP16zI9/rUeK+0lnKTnJ766GY7MNzxJ6dvUZxC7urd7K1uZ00SuziRHiV5ZcuiqxVoiQsbBfu4JwWIOnzFH6LPHv8A7vn+LRfvkr6GekV1oTQqqwPHqE/ZsGXIUBHJJ9sMW1ALjCqATuSBXAbvrP4hLgG67Md4gijj2/03Esgx4q6mvNlq1j2o+l0fgOo1kFlh0qL7t/dTPOfF/R24vDGZJ7QxRruXkubONdhk7vcKM+Q3NaBbcCkY47OQ+7l884+Veo7no/C79pcSNI3/ABk0rzvjyMjM2B4A1snAOgzTY9UtXfc/aOBHDjyZ8KfgSfKuD9ek/hifQr9FsOKPVqM23pSX1s8o2PVXdS/dhbHiWwo8ycEAAbmstZ9RMxOgyI0h2EcSSzyZ8MLpHyz54r3Vwj0e3cA3c23Psbf2E9xkwpI8dKL7+RrpfR3oFBbLpgiSMY3Kj2m82dsu3+sxrnjmyy52PC1GLw3C6x9WR/Ol9f4Hizq+9BCST27yZ4V/4tBH2x9/+NRNv6RLeKiuxdHvQl4RGMPFPcHnma6dfwtRbDb416F9R2NF2eBXP1y7s8GSi3aSS8t/vs0jot1M8OtiphsbWNl5P6vG8o7tpZA8o9+qtwXfA7vDuHw5VMUoI1rNslIAL/CpFX880yr+dTrHy+VQo5anXn7+6n7PIqysOCPo0oA29vv9d9XVWmjNGp+vOoCxFUqmq8J2qwBUAWaIU2acGpRSRaI0CtR5qEGFGKEUjQBiioMU5rLAdIGgzRYoAwacmgBo2NQDg0YaozT5qoEtLNRqaPNUBU4plNKgHpUs04oBGlmnBpqGWcuhqaL+2qsZq7mqc6Jw3dU0ZqCI1PGKgLCCpkFRLUsZoykg51JQxtRhKARNTx1ABUqGoZJhRA0KtRg1SjBqMGlTCqQLFOKS0qEIpaxd6Kysq1ib7kaA1biPOsMRWZ4l31h2oAKdXpGiC1SC1UtVM1OtUEkY7/r418++vXgxk43fDOB2yHUF1He3iICqNy24AA8a+gaNXlYxwHpBfrMdJeSIRHIX2zawEDUdlLbqpwfaKjmRXPil0uzimjk171TpEsRdij3CsY2fsipKkLplMbF4HJZdKyqM523UgW/R5s3j4xaIcjRNhhjIXJCuTjIA0MRq5bivdPXfcWE6Xy3apB2UVtDw+N0RZ5BM2LgzTQ28SFIETMeNJBbU5leQk+beh3RV7bpBaJKEVrmw9bQpIrxsJLeR0JKn2WZoGhZGAIde8YJ+y02KDeNrl19u/wBh4+pbSl8mB+jqTHSDhP8A+eH/APTrj+yrnpUw6eOcVGMf3dcNyx/jJS+fjqznv51B6Awx0i4T/wApMMf+I3Ax7+dZX0xIMcf4p4etMfD7yIx/EkV3FtS/u/6jqR/tX8l95oXQriXZyxvg4V0fbGcKwJxkgZwNske8V9bD6a/A2Xa7kGpSRmyvV8R3wAHBBGzYyDg14F9HjpV0aSzCcU4fdXN92z4khlkWNonI7Fdr62VSu6tqQ5O+o5wvp7rC6C9F+H31vw6Thdy890tu0bx3c7RAXU7W6a2l4ikg0NGzvpif2B7Os5UMkIZemM1Pa2q6fS+X8jhzSps7F/8ATb4H/nT/AO53n/waFvTe4H/nUn+5Xf74RXzw9LHozDYcWvLa3UxwRtD2Sa2fQJLOCZl1OWcjtJHI1MxAOM4AFcPk6SnvOwrgWj01J+9vvyu/0HIlNq0fX9vTc4J/nMn+6XP/AMOoD6cPBP8Aj5f90uP3pXzE6oemFpFeQScQhkubNdfbQxvpkfVEyxlSZYQdEhRyO1TIU7nkfa/Ug/Rfi9y1tb8HmjZIHuS08zBdMbIhUdlfTNqJlG5wMA+QrctFp4rq6ZtVezjt9df0OCU5J0zsbenHwQf98S/7pcfnoxUb+nZwQf5ab/dJ/wD3a8Ide/WpwG4tUThnC7mzuRKkhmeSIwmIxsHiIW8uWZizRkfZIAVJ7Tmsnm+846eWT8609Fp1ypr0bX3WWDnLhn1zvPTs4JlT203snP8AwWbvBHeAPlmlJ6fPBR+3cH/xZh/1mFfH49IG8c137qC9FTiXG7eS5tJbRI4pjbOLieZJC4iSXKrFbzDRplXBZlJOoY2zV/VNLW9pLzkvwOJwlBt3y7f1Jf0R75//AFgvBv8A8V/u6f8Axv50En6Qzgw7rv8A8hH++evM/BP0cHFkliaWXhzRLJG0qi6usvGrqZEGbJR7SAr95efMcxyH07uidvw/jM8NpElvD2VvIsMfsxKzwrq0JyQMV1FVwuok4yxqLS6Ny6Y29m9peVfiSM5t1f2H0Y6tfTK4bxO6js7ZbntZFdwZIo1jAiQu2plmduQwMKdyOXOvlD0q4mps+lyEgEyWAHui4/Kpx7tQJ9xrqf6OviBbpBa5P+Suv+zP/KuAdOJNulK/+GX5L0h0jH+1+FblihhjNY1s4J778OX4G4pylu+8P8yN99LToS/EOM2kceo6uGWQAUapGM0tyyIi8tTZJydgBk1pHWD6GNxbRdph1PJcvFLGXI2jZo/8WzYwGJK57zXZusLp7FZ8c4XO+fZ4PYuQBhzrivrdkBJCs/Zy60BIGo7kYJG6dbPpEWklo8UWty5QkmMqQI5FlCxpu7yuUCKqjGCd9gD8FqNRnjlhHHG4t7vy3PqsGPG4NydPsfP7qhQjidgCCCL+0BBBBBF3HkEcwQRuK+1NgoJ+Jr4jcG4qWvY5R7Ja6SXY/dLTh8AjH3ScAjHKvrZ0N6SyxqocmQaRuT7fLnq/az57+fdXPmZiBjfSD6ou3CNEsEZZ37SQx/a65Ckgb2FUuWWN0OtzgEYG+3LuC+jMmxluJW33EaJEPdkmQ7+WDXojjvSkTIF0ke0G3x3AjGxPjWKt3rzJYYN3R7+LxbV48axQm1FeSV/XVmqdG+p6ygGY4E1D9t8zP7w0pbSf9HHwreLSzAwKjWT+Pzq7aIa2oJcHn5c2TK7yScn6uyc24qJ4vCrhWqdzdAVo4irLHVcrTT8QFUZuKD65VQW+yqNvHwrDjpBnOnxxn88e6ik4ptjPxzQGWtpgdx8fIjnUw8D51ry8VrJ2d5n91CIyIj3q0vL3VSQ1YhegLRFGFqHNSk9/18KyUljWpY2qEGjjqAmV96kBqBWqWgJMmpAaj00SVASClihBohUAhSpU+agHFOB4UOaJWoB1os0AFEKyA1NPQBqdDVYCD0eqhxSxVQD91EtBRg1QPSzTAUVALNMaVFihGcshbxqcd1U4xnarqNvUOZFmMd1WQKrrirEAqlJlWpAf4UCmpUWgJEWpgahUVKhqEHzUoqCNanVaEDUVIBQLUlCjmmUU4FOBVAWqmUUwp6hEBLWKvgMVlZlrF3q1Smp8U8awzsPrurNcST+NYeYVUZI80vP+dCBRotQBKKcUxFLs6AJTnavBnX9ehONXuRqBaEFSoIIaygyCp2II7jXvRTvXn/oH1PR8T6X3cVwM28ccN2ybgymO1s4liJGCIzJOhfxVSu4Zqss0cMJZJ8JWRY3kkorucu4t1nQLawQxXbz3KADsJrWZfVwVLBI5Jp5YmWLJVOzXkchU3Fat1N8UI4vaSOwYvI5lYE6gXidW1MwBBA58xgd9ek+JenLw175uFycGt5OFmf1DUwj7TAk7ETC2MIjVA4DiMOsgUAh1cYHJesHqfXhXSZbONiYWBubfU5d1intpWEUrsAWMUqSxB2LM0axszFi1en4Z4jJ5o4skHCVdUd000nvxw91sdXWaRKDnF2uHtRsfoQSaek3Cx3G6nX/0O5I/Ks36Z6/4QcU/5yv/AGeHP45PuNYD0NZf8J+Ff88l+BNrcjf8RWyemxHjpBxPHfOhOcczaw8vIjB3zvnfGw+xXb+V/wCZHgx/tfoX3m3+jX6Hc3F7Q3kV9bW4WZ4DG6yNMGiCtqbSyhNWsFRgkgBv2hj3D04tXs7I8R4lZ8L4nc2MPaG7DC3uZFtZGmjW3VrCfRNFlmjRJgDLkr2ZfA+S/RXoNPduRBayXTxrqYRWz3LouoAEiON2VdRG5wM17M6u+kz2vRjjVlxUvbP2Mo4Xb30T2xeRrd5Uj4cLlI+2nF0DII4C0iMUbCBlJ3KEmk72tbVTptJ1JO/n2+o48yTlTPKXXJ1nzcRu5ru4K9rMVLaVCqBHEkMYAAAJWONAWwNRBbC6sDniT9xqXjNxuaxKXNcE5e9R3oR907X6M0r/AK0tOzsU4k+qTFjLoEUwNvJq1NIrxp2I+3DOjjMYGCSK+rXBeBRW0heC04HbyaWidopRFIASNcTMlmjadSrqRsbqMjIFfMv0D+LpFx+wZ8hSZ1yAzYLWsoUkKCdOdicEDOTgAkexennoQcMvLq4unv50a5nmuWVLSMhWuJWlZVYxEkAuRk7nG++a5svS+lSbS6eyk73ezrb/AMnlZviZ5x9MvrYtA0/CYuD8NtZbWePF9ZSodSdisvZokdhbnQ6SokitORHJGw0uUVh43vb3wrpvpHdAo+HcQurOGQzQ27qkcjR9mzB4I5iGTChWRpTGcABtGoABgBxuW48amV9KVeSff697avy7HcwRVGRifJr0t6MnozXXFY5Z3uU4fYQko17OoaEzq0YWBUa4ticrOft9TRqwaPd2Kr5dsrrevon1G9JZ77ode2EUMlxcRTxQW8cNrPJlDcW11l5Y1MQlizNKQzo2lYyVbtF7TlwOXKdbxV+SbSb+i++xwaqXSvz5GK62PQvu+EwLxGG8h4ktmyX9xD2Ig7G3hD3HrxEl7L2sStb6SkSiRhqZCxjIryz6TvXzJxniEl68C2zMkUPYpK06gQqUDdo0cRLPnJARQNh7WNTfTz0lOlwi4JfSR2t7NJdcK/Vki+pzxR2qG2uf7ruHnijVYYHuCJtLMQukhcB2Hxn47L7RqxyTnHqybyTaT42dXtxz6HFiSPVH6NF89IbXb/JXXw/uZ+fgM7e8iuXXkKG/6SpKFMfbyhwdl26SRIpPgNcgGcjTkGul/ox5P8IbXziuR/6LKfl7P4VxXrQudN70qxzL3f8A0eldkcY5EcvlWckq3fHRf1SmbhHqk1/ej9zM/wCmDZf3w4ejkIx4Rw+MlzpVWMlwhMhI9lVO7Ej2Rk91ckXoxOASFcKwxqzpDqeekkhip8tiK7r6dQD8WgZt/wC9li/zkuWI8xnnXdOqbqmsp+GwAzvLcTEvIskH9xAQSskUD3YQtFrlADBZIwqsNYyY8+dDBjWLJkk/hTa+s9O25JI+eXDujrR3EOxx20ZwdiAJFPx2zX1K4Bf9pEj4IyinBGDsMEEeRBGeR7tsV5i9Jjqws7UQSqFjeUZWOMyGOOZZ7ZhJHk5MTwNcQGM5Cs8bg5j9r0D1W8aE9lbTjOJYUlwcZHaZYqcbeySRt4V8rmkpbo9GCo3KNuVXYWrGqatW78vwrqnYMjbH6/fWUtpKwRnA+t6GHjdCmzO9a7xaSk/HDWIuuIEnepZSlf3ZAJAJI5Ad/l7zVYTEgE7HH0D+VSXN5VCe5z7uWMfjSylgfL3U0w2qkbjwpvXKzYLMj/X8at2N7pI8PrnWGueJov3mUeGSB+dYa76w7dM6pk2/rfP+2q2ZOlJx4UY6QeVcV4j172aAESBjy2OcfLOflWDl9Jy3GyqzHBOwZjsMk4Axge+puZcl5noaTpCe7lSHSEn62ry1/wDSJlkKpCjMzsEUYRNTO2lVyxOMkgZOBvzrU+tbrh4lahGf1Zo5TLGkkF6LmLXAQJ427IJh4i6Bg2BlhgtviPq8jjeaC5Z7WHSoKMsQAPE4/OszwnjqSjKMG7sggjw5ivJvVX1Q8Tvwhv5ZYO0UTx2dpDGL0xN9yW7nutUNjFIPuJMTM4yVVdDg9li9DnAXEcgcjIZekt9FccuYC2SWuoY2GsLnG/Oujl1uHDLpyTSf5+o7EIzyK4RbR2Jf7alWvO9tDxThkrBJLm+ijQSS8NvxF+tEiBwbiyvoy0d9GAR7WuVSwCsYCSw7Z0O6Yw3kCXFu+qNwe7S6sDh45EPtRyxsCjxsAVYEGu5GcZxUoNOPmjCe9NU/I2EUYFRgVIDVNBU9DiizQBU2aVJagEaenNMBUZB6c0OKfNChZ2olNADRCoA1NGKho60As0WaYCizVA6ilmmDURoBYoqFTTihls5XC1WIRVWOrcK1k50Woh31MGqJangWtFLC1MTUQqSM0ISoalWooyKmNQCxUkdADUi1AGDRk0Ao186oCxSJpwKZloZHWnzTKKehQJRWLvl2NZR6xt6u1UGq8SWsIwrPcSXxrDtHVIVgak0/CnI7/CiIyNu+oAQlGsdGi1JGKAFVryRxfrdfg/S2e8ADKUtoZYy6xiWGaztQ6iVyI4nVkEqSSERh4gGKhiy+vNFeI+vbq1n4j0keztk1zTxWmgE6UCrbRiSSVz92ONAzswDHbAViRWpRhKElk+CnfyJclJdPN7fM7d0kvuhUV43FZFvRch/WzZi2vRC1wSZQwRoPVdcsntDTfG2Y7qdNefn635OMdJI72RdAkZ44oiQeygitZViQuANTAZd2/ps2Ngor0Reeg7w0QLwxuLcJi4odOnCRi+Llu1EbQ/rMXJEi+xg25bsypWIkCvLfQzq/uOGcejs7pAk9u8wcA60ZTZyussbADVFJERIjYB0kZVSGUdbwVaWWbqxznLIkkvaN2o3+7aWzZvxCWXopqKj36a5rv6nYfRG4W69JuGlkYBeIOclSMZinXfbHJse81nfTXf8Awi4sD/nEPuGeHWh29+SfjWqeipxHT0n4djPtcS0535MZPnnPf4nvra/Tsm/wj4qMYxNbDI7weF2T7+J9vGT4AcgK/TcXH+F/5onyS/tfoX3nov0WukB4d0SvuKWqQJepd9k08kIYtELu2j7OQ5RmRI5ZCilsKzasHLavTfpU2CTcG4q1zHG8cHDXvLZnVS0d3Hb3R7SFjlllReyC6RnEjL7QkZa8d9UPRpX6D8Wk7SZT61llWaTsiI5bRQrQEmIq4Pt4UM+3tAqpHevSC6je24BJFPfXNxPwy1/XHaygGOcRQXJjgaEMyo6RxsiTovaKQjFpdcqticItxk+eurreumG3yvb6eOTrP4vz5s+UXG5PaO+2/wDKsLHc1f462GPvrCNLXXzOpnswXuno30JZj+v+GYaVT20vtQqjzAepXGrSkiSIy4yJMoxEesgBgpH2EtGfUv2983tDZrW3VDuNnZbFGCnvKspAzgjnXxY9D3gD3XG+G28VzLaSSTS6bmEIZ4THZzzExCRWjLOkbRHWrLpkbKt90/Q+46iel/rBQccPqnbae2Eka3Jt+0wZOx9UKCfsvaCdrp1jmBXPmjGaj1Sivd/e+b42Z5GWL6nz9B42/SKcUR+P3xRlb/goJVlYZHD7cHcEjI5Ed2K8iXkmCa949a/6OS/7XiT2U0U1vZsTqnl7K7mb1OK+m9hImiLk3BUO0kYkYEsEzqPgS5kBxg5B3HuPKpkcemKi7SSX2bfKzu4WZHh77++vqT+jIaT9W3mn1vAvf8iLQwk+qQ8/WAX7XGNRXC6Ow5kNj5bdHrxVkQsNah1Zl1FdShgWTUuWTWMrqUErnI3FfY7qc62uCHg95xTh/D7qytbV1Wa3hmNtI7hY8FUtr3sXIEwGp3DEKduQrki/2Tild0u3NquWuTqardr89jqXXjxlY+DcXa4aSNDw+7QG5a1QOz2soWOLsTlpHOFCHJYkBQTmvhN0ikGs++vrv/8ApB4X0k4XxcLa3Y9StJLhDeXMsoSc21yYJoV9anRZYTG3tEAgPjcMwPx/41LlvPvpjg8alGSqVq1t5bcNnHh42PVX6MiT/CK1H/g7r/ssv7s/OuR9bPGGF30rhAXS016SdILf/amzGnUf2TgHlnIG43z1X9GSf8I7P/k7r/scv18K5B1zbcR6Uj/w18Pl0qsz+Qpnfu7f/j/1TOXH8b/mX3Fr0t+Nsbrhcje1r4Hw9mz+1lrjn8O/nUvVr6S/qdvJDp7fOiaElzG0EqyoZWwYnVmliiVCyMoxkuJiV7HAelINb8E0hmL9H+GaQBlmLNOAoAG7EkDAHPurb5/Rv4Vw6KH9c3ssU86nSsJ0xoQQH0hbW5lkWJg0ZmdY4i4YD7tfJZ9bHFj6JW+q9km2/qPdxYXN2u3nsc06edeM9+0a3AVn7eIhwcaI1cnsETGkKXYPqz+zyGpy3v7qv4KIbG1hBLLFEIlYgBisRKAkDbJA3x314Z68/R2HC3tLmCYXVhcvH2c2ULhiBIqO0ZMUiSxZkhniwrgOCq6AX9/dEx9hHn+j/wC0c/DNecssMsFKD2/Oz9UdrocJVLkvMPhRxy708i1A699cZyFa5vMnFVZA7ZVdgDsT+NBcThTkmsDedMQCQvftmpZTcYI9I8fOtV6V9N4bcfaSKvPAJxn68a1PrE65orC2aeTLn7qIManc8hvyA5k9w+FeItV7x68ctJErBGkzNMsNvDGpACqWJLMzMihI1eR2bOMBivJCHV8jMpdJ6/u/SMsUyHlQHuHaoT8gSfwrI8P61e1VGgj7QONa4DsWUjOQoUNjG/KvCE3VxKu+pPdq3+OAQPma9P8AVR1jx2ulpgQjwrGWUaijLg8huVO4ON+W3h5uucsULx7s7emipv3uDZOkHW1Os0cOOzMknZMThFi1fdZ9YLBSTgt3c65x0v6451vmtI51ljTIMqFiruo37PUF9gHIyV9rGRgYzrPXf1rxyXjzRZZB2SrnKs/ZgAvhhlRsQAe5Ryzgar1g9lHf28sUySLMiSMqHLwszvE0Uo7nBGvHerKe8Vy6KE5xUsi3Mahxjaib3f3ksm5d8eGo9/lmsXNwYnxJ5nO/51ttva5Ue791N6qM17iikeS2zWX6P7ZNUZ+AY3z9cvxrexACMU0PCs93fuazJo6uWSirNU4bashBXYg5GNiCNwQcgg55EGu/cI4vacTlheQRXU/DFl4i3Z29/BEFiWOG24fL6/Ie27biM0MrSRIqlIWUgB/b1roN1XSXLAKviR4Y8TXp3gnocS2cPrUZz65aaWAbWxlilh4ggwEXTG4tXKrlzjGolgM/NZ/EblOGJOUoq2krq9l9Pkudm+zPz/V/pNixzlGMZS6Vb6U3S6km9k6W/wBZv13wqaztAsTA3Eo7aadlDSO7bSS7+zqZlKrkFY40VUVQF0+NenN/xCKZplu7onVqIa6nYeOArOQB/VAC+Ve+uk86yWsM6YYaOzc5B0nLMmcbBWGVB/pI47q8udPeAqQT3HO1fG6SUMmFT5ct2/M/alnWWMZ4n+zaTjXDi1aa+a3N16p+msnFrGVJ/avbNGvbSYezIssKFijFRuk6I0M6DaVJFypKAnQ+qK/7PjnEowcRX1tbcWiQABQZFAlOBgayJYVZub9mCa3nqU4MeG2V3xCVSqmF1iU5DSM4KwqFxkmeZ440AyTzwQa4L0U6VpF0ptrZX1CPh68Jbv8AtYrdLiQZ/qtCVPgVxsa93wG6ypfBao4daknC/ia3PZKipMVHEfwqXFfUUdRDkU+KcLTkVDQNODRYoahB6QFICnJqAE0RNI01KIhxRD8aEinAqFCNSA0C04rSAQosUOac1QFmlmkKeqByKVIUjWSHKojVmCLNVUNWI2NDlLyt9fwqa3qBBVqL68qAn01JG9RCpYzQWTIal0VEi1KpoUStUyUAqRDQgWKPPzoS1Gj0KxwafFKnFCIbVTrSIpxQMCYbVjbuslKKx14djQGs8UNYZxWa4nWEeM5qkH1injShNSKDVAYFEKcCnzUAYFcQ6IdNYLPpsjTlUS4sYbRXcgIssqIYgzNsolaLsgSfvSKO+u4IteD/AEy3ZeMMy7/3HbFtsoVBYESj7pjJAVg3snIB5ipkwrNjljbpNNWI5HjkpLszonWJ+j641LxuZ4OzNtcXsl2t96zEjwrNO057SAyC89Zhzj7OJlZwpV8ElZfSg6dQ3PS6HsHWT1WBLCaRSCrTRw3TTqGUkM0QnED77PG6n7uKwHEumPSOXhQmiuL2CBUOu3t4ukbl4+1IMkd5Lw6e0hhSE6ykfGEhESEIiEiI+e+qyE+u2un/AI3AI3+8rDO3dvv41fDtPleeOXNOLcE4xUF5tW5bvfZbLYmryw9m4QTV7u/p2X1npX0YliHSa0Lbf31YRgYxq9acIPNSn7qz/p5HHSTi3/LWn/8AZ7A/LcVoXo9SY6T2Pf8A35UHu5XbDO/zrfv0ga46R8U35vaNyxj+9NkuPPlnP9byr9ChL3fol/WB8nB/tq9F/Vi9Gb0vDwmK4sru0j4hw24Jle1kCezOTEBIGkjlRotMI1QtGfb0uGUhg3Qekv6R+adOMRPZIYb+09Qso+3CmyjMM0LNM6wA3eprhptA7ArpWMPgmUeKEgNPJw5vMd9cPW3vW/0+n4Lf0rg7UsMLsi4txHUx7vyrEPNU1yMHf51j5WrpTk3K2d6KSRtvVh1kz8Ou4L21cJcWzmSJyquuWRo3V0YFWV45HjYbHSxwVOGHQeO+kzxaeWW7e+ug7yGR+yuJ4YFaQnCpBFIsUceAVVdPdklmJY8RjXNZOLh8hB0g8t/A9+/5/AV28WWa4Otkxwe7M/e9bV6e0Hrl3iUky/3Zc/akqEJn+1+2JjVYz2uvKKqn2VAGhXV1k5q3ecPZTuCKxktYy5Jv4iwglwWILnevTXotembPwQTQtbx31lce3LZyusaGYBFW4Eht7g5VI1Ux6NL4UkqUU15ZU1esoia1gyte61afYxlxKS3PcfXD+kpkurKe0sOGwcLa5XspriGWKWR4CrrLb9mbCIDtFcr2ofXGC2jSzBl8O3l3k1dueDuBkjb+PKsU8BBrnyNrZRpfT99s4YRSPXX6Mc/4R2X+hdf9jm+flXK+u4D9adKM98/EAPHP/dTan91dP/RlnHSOy80uRv8A80mOR5gAj/WNaH6UEEC8a6SrbOzw9pKdUg0uZn4zYPfJ9yP2Ir5rmKM6RmKNDqk++/JlXux/kX+eZ14/G/mvuMH12ce9XuOjdxp19hwXhFxozjWILmeTRnBxq0Yzg+6uvekb1Ptx6Sy4hw64gaM2iWx7QyRowjmldJo2SOX2iJTHcQOscsU8UmVYuRHw30ljtwL/APh7h/8A666rW+rnoHxiaNnsEuxCxJLRTNbROy+yxUmWJJSpGkldRGMHGK+F1eN7ZIyUWrVy4p/Sj6XBL91ptenJ2z0jVg4fwvhnBFm7e4iuY7qVsD2FHrBOoH24hLJeMIEYa+yhJbTldXrzov8A4iP3H4e0dq+VfSLgVzA4S5V43DnKSezKGJVmd0bL4kzqWZlKSYfSz9m4X6udFI8Qxg4yF3wMAkk5wCTj5mutjwrFCrttuTfm5O216eRyyn1yuq4VfIt1WuZMA5q/JHWL4wnsmqEcy6V8fJbSO6sDaksccyai4w3tH30HAL3TKpPIGoaRwX0y5Sk1vBnYRCXntl2cHb/VX5VofRXgjwQLIVI7ca0JX7yjYspPMZONuWK3302STdQNtpMCaT4/aTah8CB/tVYvfSBtr7gnC+HSQ9le8Ke4iScFRFPaXBMiow+8JklxknIwuQftGVe3H4Dgl8RzC+vmB51hOM8VcIQGIAIbYnn3/nWavsEheZILc9gBtnbz2FYy/wCG6Y2JTtCykD2yoj8HON3IO4Xke/PI5UU2b6qRqFxOW3YknxNWWwEidR7QZgT4lSrL+DYqtJHjar0ERMD45pKh/wDKKy/mgrsnUs770G6aLOjBMhoiAQwAJ1A7jmeakb45Vnc5O+2a5J1T8aBubj/JiRTLgkc1flk43+0O3vro36zBZQZYtJD+yGZrhTEYwZJE0kJA3bKqOWGt1kAB0NiuVGGjbbC3Xmds/X0atRquQBk7jOK1jozfdq0nZyPdaVZ2VIWX1fsllZ4iTgykwwes61GkdppyWjcK/QhWmhubm1jlmjiVrgrJIpmCgxJP7Ksx7ETSgRhckRsmQuGx1suRUdHU4nOLiesPRm6RRI4VlDe0raScBlDgvHnI3ddsHY4wa959e3Eex4XPcKwjeBFuYiSBh4WDKnMZDrqjKg7qzDfNfMHqc6Lpd9q1iJ2jjje4SJQYUgjdn7CJbm+kWa5jjI7PtTCWcJlmDEmrnTnpJxKdW4fcXNoMSPHLJLO1y4e2kWP2Jo45ZY41KaVGeyYBmOCQ1fIQyS008+NK1k3vhxl015b8Ra32aPxvHhnps+r00V1e1ioN3Tg2p01St7O0rVNerOndCevpWmY2ZicS5M3CZp4recMfac8Nkn029zE+nWbZ2UBgGHYEnG53HTq0zq/UXFGlG/ZGwUKpIztNLdLYez/TWfTtsTXi3rl9FW6tuHvfGZJzDP2FzbrC/wDc6E6Y7hpmYo6PLojVFTOXG+2K83zdJLjQYjcXPZYKmL1icx6cY0dkZNBXG2jGO6rpvBcMl1StN7vp2T+hbL6Ej9Y8BnqdBpo6dyuC+FTjbjHtFPZ0u13XB7q9Ib0nDCFa4aAXER1WPCLedLv1ebSdHEONTxfYmaFHVoLJPYV21BphiaPx31NdLnXjFjcuxd3vou0YnBY3UvZSuTjniZn5b+Wa6nwX0B+JypbTRSWctrc9k3bwTlxFHMAxmaNkiLqgJ2jY6iAMpqytH0uOqG14Jd2a2OvAtobjtJJGkMlxC76ps7Kpdo0cxxaUGfZVQa+nw4MeGHRjVI9x5ZZJ9c3bPpLByqaqPBb8SRRyLydFce51DD8DV9Kyd9D0tNFRlagAxypCiWkFrIBFIinUU9CMAilRYpqjCEBSBpsU+KFHBo1oNNGK0BwKJWoGNOGoA0aizQrT5qAenpClVDOVRp/GrcafD+Pj/KoYjVqOso5CVR8DVqFMVAKtKKoQSCp091AkdTRigJIxR6aBEqRDQCFTAUANSDehoJDvUgoIzRDeqQdjTrSApyaAfFFQinqEAkasfeCsixrHXa7VSGscR2rEMtZviK/X8KwzVUABH8KNUpiaNRQBx1IaBakVaEscJ31wyz6DQXvTO1iuMGJOHJddm33JXty7RxuM+2gk0zFTkHshttXdlX414y9J3p1Nw/pBa3tswSe3tLaWNiutCddwrLIn7cUkbNHIgKkqxwynBrGXHLJinCDqTi0n6tFjNRnGT4TNm60v0hfG7XjE0MCQx21ncyWfqRtIGeUQSmI67rQ10JJNOVMEkSDKgRsB7dP0r+r6C26U2Rt0ES30dvxCSJQqrHNJJPDMVRQAolaEStgY7R5SAOVb7xb04OB6kvpuDQXHEiqussPqEv2iLoTVdzpDxCIqFUAzWTPGoUKz6Q1eWOkvXLc8V43Ff3OkO88KpGmezihjfTFBHnchASSx3dmdjjVgdTwnTzjnjKOH2UVHpluvfe1cc1T3e+5za3JF42urqbdr058/P7jonU62OlNnyz+vRty3biDAj4ZJ+HnXS/0h1pjpFfn+mLRvh+rrZNvLKHbx99cx6udulVv5dIQOWBgcWIHlgKO7wrrv6R2LHSG63zmG0J2xpPqqLp/rbKr52+/jHs5P6fBbV/N/WB8VF/tk/wC6v9RL6E3VBwyRLrjPFbiL1Phkg1WpUySPIqxSxyywaJDc27a2iSCONjJKpwSU011vh3pf9HbwmyveA29jZ3CvBLdp6uXtw6MEmAgs45YsPp+3jf7HPaH2Y2I4b6MfS/o5awTtxfhk9/cmdTBJEisYomh3jAe8tkX7VXJYZdu0UH2UyPX/AFOcN6KcVjvZIOCSRLYxLNL6xhWdWWV8RdlfzZYCFs6zGPaXc745HGMU5SUnFVw0q+XvK3b7r7Czlvzv+fQ+e3pXdTEfCOIy2kU8dzEUW5ilRlbEM8koiimK+z6zGkf2mjCtqR1CCQInCZ467h6SXSnhlzeGXhFnLY2ZhiXsJtOozgv20yok9yscboYQEEg9tJGKKXJbiFyd66WeFPfn6PutHpYZXE3Lqd6Ai/vrSy7eO2N1MsAnlGYoi4JDONSaskBFXUup2RdS6sj6IdL/AEiuj/Rxk4RZ8Lh4kbQMtxPIYe0W4Z+0eJp5LKT1g4f76MVj2jwDGyr88+p/o9bXF7awXs3q1pNKI7i40huxjYH7Qghl06tKl3BSMMXf2UavcfWB+jX0LHccNuWuLFUSSXXC/rmgSfam0toIP7pxB9pFEqo0jDCmTWgrtYowSipvZ9t0m/mv6WdDUS3NM9Kro7wji/Cj0i4c0VpPE8NtxDhxXQ3rExtolFqNMKuIBKzyTxRNFOgdwY3hlU+BLqPevpv6b/owcE4bwe2mhxDewiOGDUNNxxNWkt4rqWRGAaOW3jke4fs0jA9sFQrKF+Z9+m5rgzdMo9Ubq2lfO3b1Xk+ez3Rz6eVopxrXs70FOrXhGm54xxa5iEHDHjYWZyZ5JGZHt5xGH1Txa1eEWohlMz55aAr+NIh3V709BPql4YeH8S45xGBrxOGB4xaaInR1aCOZpQJCn90LkpHmVECl85JUprTRVN79uKvdpbX3d1fbnsNS9jp3D/0gnDbqT1W+4Fb29hcLLDczxuJp445I3UMkEVijMxOkMUmDJksusqobxz6XvU/a8L4nJb2d1Fd2zxJeQyROJOzjuJZRHayuskgeaGONC0mV7RZI30JqxXsax9KnohLIsQ6NvqkZY/atuH6cs2kasXjbA4zsTv3715y/SFdRtvwjixhtciC5gW/SM6fsWmuJ0kgTG/Yp2SmPVk4YrltANd7JCK2UXHZ7Npp1W/xSaav6UdLFLehfo1mx0jsPP1kf+gzneubdecX99ek3lc8Rb5dJ7cfLf8a6N+jbmx0ksB4+sL/6DcH934eVaL11WJPGOlC//iOJE4OoY/7pbZuYOPDIzscg4IxWM20V/Kv88zUX70vmv6IwfXZwpZpejcTtoSXgnC4nfYaEkvLlGfJ2GlSTk7bV1H0vesi84VNYW1gRbW3qfaKywxOGdbqa3aAdrG6KtqkESdkiq2p2Zy4ki08b9Jb7nAf/AOHrH/tN4K2/ov6XpaKOHiFnDd9ge0E0hjYNIoCpM0U9vOBcso0maHSz4BK/favzzW4pScZKHXFXcdu/ffbY+n080rV0/MznpB8QPEOj3DuI3MSxXonSFSEMfaRzC4DaUOkCOYW0N2gwUTU/Z6Vl39m8AX7NPIfvNfNvr/69puJyRAuvYQhXSGISCFZH++ztOkclxKF0x9o0UUaKGVI8M8kn0i6Nx4hQeWPkTvXWwYpYsajJVvJ1/Cm7UfoOec1OVr03867lx6xvERlTWXmWsJxmTCmuRmTinSSH2299YVnxWx9IV9onvrWplqFOG+k8S6wMTnSHQf7SMPl7XzNcq4l0FWK3WUyCZ5EEii3dHSHJGRcvudYBIMcanBG7+PZev601W+f6L/8AWVl/MrXJuH8CWSEPHZrtES80t6AuUXS8oiDRsi686VOruGTXdxfCdbLyYTgsXsl9WCPZOTjbPIfgTWxcImiJwzITzGW1D3eVaZwbhRlJUEDbO5rOf9x6rnLnPwx41ytHGjJdKugszAzQwSPCiFpXjjZ0jCndpCoIQBdySdhknAFUOhXTQ2wlHYwTpMgR0njaRPYbWjgK6e0rb7n5cx1Dqw9IKbhNtxO1t0SYcWs3sJe1ZiYkeOWHtIgMqZGE7ZVxhgqA7AhprT0abUWEV+3GLUdpgNaLGxukYKGdWV5VK6OWXVckfdHdxKbXxGnG+DSoeMScQaO00W0OuVAnY26xe27dkupgS7rmT7pbng8wMepelXVjFwvpHYdpcWVo19Zw3UpAQ2lpJHMvsMrNEuX9SEhBeNWkeRA7HDt576ddBbKGLhr8Ku7m4uLwS293FNHHD2MvbRpbJDKAqFLjVkMJW06TqZPaFUF6nuJxX8UEkEck7yhB28sdxbu2Qg7R9bdoilh3nkMAjGY2pdzFNHpDo3e8Ch6V3qjiUScMAW5S5jmjjgnd7ILdQLLiWPSz3M66FywCyIjdoqZw3UF1vcD4ZdcZSeKWSMvew8O2lSOS2lkIihb7SNU7RIreQetIVyqH76LXGIetG/RmRZY7Yxu8ZW2tbWNQyOUbSxhdjhgQCGFdY6rOj/ALkDiHH+ITNPJeLbTWxlMTyW62yYvu0hieYqpAt9MfZhez57iuOUEjjk2af1Y9aFpbWcPrEsgu7eVTGiQu4aPtxLqMvsogA/ZDlmIwVXYneb3p5Jf3lxPZ2HFLmyku5ZWa2sJJZtFzqldE3eOObtZFAiJYaMNuSFbSetzpnwXh/Hnk4FELvhyQiOFZu2uE9YkgKtLF60e1kEcpVl7QkZ14BAUD0f6Od9PLBFeJxae1LETGOMqqax7OXGoJqwgByCMAA5xt0M0Y45dTjycVOPwRbb/hS+3dHn/rS9MS5vrK+4e9okK3VxDI0nazLcxC0feB0wEcyMuZNQXS2djpWqPVh6N36wgEo4lZ7tCmiNLi5uoXuFdoo72KKMCEkxSIXZyqlT7RwAda9J7oDHY8UmjiuPWknVb7tCoBD3RZ5ozp9ltEwkwy4GkqNyCTuXo7eqpokFpx3UySR3d5ZmZrJdKMyoYbS3kaeIusYaGZsAsxY4WvSgk1twalF9+T1x1F9Do+HcMtLO54hC808qyRQyzZjj7cMVtrdEeOZgVOGRy6l3kKoAFQa76UXpAR8JhThsthHfSXFsXUzmL1aBXZo1VVWPtHERU6ABG2AuZM5NfPFrcR6tHsvFM4Vlykg0sGjZXB1qy4BUg5BAIORms11jda13xKWOW8kEkkUKW6uFCEpHnDOB7JkYkl2AUE9wrXQbXB9N/Ru472/CLCQ8zbRIf9KJeyf/pRnzrp6NXm30DePCThCx99vc3ER/8Azji6H4XH9leksV1Xyd+PAattT0KinzWWaCzSWkzU1QCWlTE0iahlj02KYGnJqFQqcGmApCtFHxTlqGiNAErUmpBaLFAPmnzUJFTIagHpGktLVQM5nC3fVlR/KoYk/nViNPyobJohn4VYjFRxGrCLVKglXO1SjakTyo9FAyTFSKNqGpFO1Qo6iiVKFRRVSkmKJhQpRMaECFPTA0jQDg0StmmzTigQJFY+8NX5DVK4NDJr3Ek+P5fD3VhJFwazPERWHZe+gI6miHxqImpYzQEqijVqECpl+FaIME+vr8q8kekD1avxPpHaWMQ9u5sYVDkkJCFlune5cBWLpEik9n7GslV1x5Br12R8vHurzV1h9ZycL6WcPvJc9gnD0juCo1OsEz3iSSquQW7E6ZSi6mZUYKCSBWMkpxxzeJXPpdfOthFRcl1fDe/yNq6RWvRCxV+A3fEuIF0BtpZFaZbaKSZ0uG1mKM2aMs2iR/7mnjRlIkbPaivLfW71HvwTjcNm0nbRmS3urabCq0tvNKVjZ0UkLIkkckTgHSWjLL7LqK9O9Yn6Pa24nezcUtuLRLw+8ma+kKxiXT27dtcGG6E3YFHcyOjSqnYhgrI/Z5fh/peddtrf8ZsxZP2lrw6OKySYcppEnZ5ZIpM/aQqSiLJpAco7LqR0Y9HwjO5aiKx5Jzi4t5Ou6jLaqtKr3VK1sdjXY0sbckk792u639fluWOhCaOlMA5gceTT7m4h7JHwYEeFdc/SSjHSCbztbQ/Hs2GfkoGfKuQcGuP8J4Cvfxq0YY5Ya8h1ePif5cq7D+kvP+EEn/MrM/E9qPyAr9Shwv8AF/WB8RBe+v5V95039Grw21kteI9tBwuZxcxf8MaMXSoYPZwHt5v7m1BuzII+1Fx4CvXvTjoAzWssFm/DOEPdqEe5hihdpIdxIgjaC3V9aSFRJqJj1krgkEfGLoV1ez30oht7aS5lKswSKBp5Aq41uFRWYKuV1NgDdQTuK+jfGeMcE4rb8MXjF43Br7hCerNZ3bwW8vagWj9qVuY9bwyeqxyRMuhikh1BG2XkeHqkp26vek5VS2fTe6bXlSM5NnseLfS79HduB3aWrTrcB7dLlZFQxey7yxaGjZ5CCrQtvqIIK9+oDzZMlesvT968bbi3FmltMtBBbR2AlJQpO0FzdStcQFWbNu4uFEbNpZtLHSFKFvJl69dXO2+ly+Kt/melgT6TpXo8zSfrSw7K0j4hL6ynZ2MrIkV2wViIHeUNEg/b1yqUUoCwIBB9/wDpd+l+9tPawcPhe2v7N+0uJJolD23aW7Rnhqx9ibe7t2WcSdskksIaKMoZGw8Py+6O8elgkSaGSSKWNlkjlido5Y3Q5WSN1IZWU7gg/MEg/QHo1+kE4Td21v8A90HCJb6/hRoO3ghtmgeINmNgLm/jkWVhvMMFTJqZcKwVOxhafS3Hqq9vn6PZr02+lbHT1GO3ZR65OvfiPF+jc09xwW2Kwta21xxztrcTrMlxDvFZG0SZBddqlsTDMYovWmwx0so+fHEH3NeuvS19ND9Zww8O4dDJY8HgjiVbVgscsjREMq3Cw3M8DW8DRxPbxj2ldWZifYCePbmXeuvqJqqSUd7pf+fsWy7Ha08OlAR17Y9B3pxxmytOJXdnYrxLhcQH6ws5JYUR5DF7EgDRT3DPHEMukMMqyJpDKSEaPxIh3ru/osek9ecCu1nt2LQOVW6tmZ+xmj1DUezEiJ6yiFuwnbPZsdwyM6nGld3HZ32fH+3o+z3LnWyLvU103ltOLQXyWcd00c8sosiCsLCVZEEK/ZzFREJAYmEUhVo4zpbG+a9Oe54w3FTJxqLsbiaFZLaEPbyxw2Rnma3to5rYBJhbu80bSyfbO2WYKHjA9ORfpAujNu7XNp0fmju0EkkE5g4chEzo6q8jpdmQKxciRl1NpZ8Bid/AvXL1xXfFryW9vJTJPKeWpzFCmpmS2tUkeQw20RduziDnGpiSzO7N6OWbbtxrardN88Km1Xn57eR1McWdu/RySf4ScO/05h87G5H5Vq3W9F/fnpVt/lOMEd26ceiYHz+6DvsfhWx/o5m/wj4b5PL+NnOv76xvXWh/XvSnO3/1w2McwOJRuv8AtKAxPmamTeMf5V/mmcNtSkvVfcc69IqFmXgCqCzN0fsFVRuWJu7xVUDxJwBXS+NdXPA+B29snE45by7uVaZkjJcKgJhMiRi4tESFJ4Zoo3lZ5ZGErAIuw53188UaL/udlT78fAuHyrkbaor68dcjvXUo79xXbesnolw/pLHa3VveLbzwwdhIhCyukTTy3AhuIGmieOSGaa4VJ1LRzR6cfdDH85103HpUm1jd9Tjd3243SPq9NFO6py7Wck9IHqitIrK24hwspJZTygEkSNPG8ikLGXdiewLW0iNFcBpIJ0cLK6XGlffPApfskx/RB/CvDfpA9MbK04bb8FsJjPomWaeQMkqr2bSMUZ0ynbSXEpkMcZIiVFUnLV7c6Mr9hH/o/vNdfTynLEnO+XTfLjezfrRzZElPb0uuLrcvXE9YDizkitgeOqN7YbGuRmTkvG7bBNatNHW+9J4q0u5TfFQ0jlvW5ZaraUeC6/8AYIb91eaLPpc8cLQKkWlm1MxhRpGIPshnbOVQ7qMYBJPfXrTpdaakkX+krL8xivGd3HhiPOu5hODKifhVuWcAHHfkbHA54rboeE6jucZ8cY28z31pdpKQRp58vnWcj6Ozt7WSO/2mIO/l512Gdc6b0OshDJqECzy6onQkIZQ8L60EbSERxrIwCysR/i88iBVr0S+IRpxDLgSs8MhYOisqssqaWRiXDsV1e1pXSDsWztS6juGqeIW0d8rS2jyaJo1Lu8isjAIojPaEmQxg6CDp1bjetvgtLdOkE8vDLeT9XxTdiVjjkLRqLZY5lKMxbAu1c788bEAiunmbcZRXlsdrFSkm+D0H6VfSntuDOqxRp6tcW96rpGnaqUkEXsNpAHsvkggg7+Jz5y68+q24iNrcXHFo5u1ihZHEZt+x7RQzRoilFJhB9qREUMQeWnNexesC0S44Jxcw8PuHEdhI8k0sPYRw4XWJQ0rhiUIEmlELaVPIA14a43wPg54ZbT9vK1+V7OaLttTKVdtkhKEJCsaqEZmVfa/a2rg0ykorqOTO4uXumtcR4HHbzTQRXCXUcT6UuI8BJQVV9SgPIBgsUOHYZU7mt04DxaL9UcUgkZFleSwltg2NbyR3JWWOM89RgkdtIxkK3ga0/j/D7btIvUI51iNtB2hlDDVcaSJ2Rm5xk6SMYAOcDGCekdSvSK64d291Faw3vbQycOEDMJZVe6AIuI4Ig9x2kIiOh1VBliusagG7cmdFo4h0q6JXNuInmt7i3Eo7SFpoJYBKqnBkgaRUEiKSAXjLAEjflXpr0Vej81zbdmmGMcjoTqGnnq5+5hg48K0n0lPSEvuLrZWl7axWh4WksCxqk8c2qYoWNytwS6OugYT2cajkE13j0bOnPRmGOOObiTWErJ2s/YreFSw0qsZYQlWmYsFIjlIwrMWAFdfUQ9pFR+k7OnyeydnO/S/6pp4ZrGRygElrcFmBdtCWbh3ZwqF8BZsjSrDfmO6T0eOknFBZxNDc2kHDoFurZpZkuZhA/breJcSQRvGvrbT3kaW514aPVrjPZjtKXppekHZcRu7T9T+uxQWcMtuz3BEckzTMO0ddEju0boOzcSEBgCNJVt9B6ormxMN164blmSSO5FvF601veJFFIFt5lt1aOM+s9lme40BYyQrg5x2MMeiKRxZpqcnIXA+qw3XF34b28atNcmMXKqZYfZjcmVUDKWWQxHSupcsy7jcjtvV96JvBbhUdb3iV6pvX4bI9taJbQQzJF2jNP20byLCAQRIGwxwPEV52430pha9W4sAbFMK8IDkGCSFlYMG1yFFSTcZZwF2OobV6wsuj3E+Joyv0o4bDFHCzXY4WC0eiT/GS3TQG3i1uMjUzITp9lQQ1crOuF6BF2I24paBtQimjlB7jrDwEjxz6up9xr1/Ea8DehfdRW/Grq2gm9Yglt5BHPoMXa+rTxlH7NiSupJJDjJxyya96wNXUlydzHwTxtRk0JNPWDlCNPqqMmlmskDWmoabNBQamlmmNNmslHV6fVQ5p80AeKRWhLU4NUBlqSmhzRhqoD1UhUYp1NAS0xphT5qA5tAlW0FV4lq2ifGobJo4xVhBUSmpNdaKTotTxioFWrC1AEKl0/hQaaICqUdU+VHpoVogKgsNTRYplNFiqBUsUyrRUDHFLFNTihkFhVK5FXmFUbtfdQpgL9ifD491YKcedZziEfPP4VhH250IRqPOpx7qiXnUyD51aITovu/dRBaCJO6pf7PdVAec14e9OHhhfi0Kpgn9WwNgsqk4urv2UDsO0c7BIk1SSEgIrMQK9xpk/w/fXBeOWUD9NuCLOAUNmrIDjSZ0fiLW4bPP7VV0+LBPjmeX2OOeSr6Yt150rEYdclHzZotr6CnEbnhplktbr1wLmNXHBou0wQYu1aRlvDmLb+6LlJB7IKqBpHkq94DLbXJhnieKWGXs5YnQpLGyH2lZG5MOY7jkEEgg16f8ASj6bdJ06RTpDLxGMidTw2O1a5Fq9uNJt3ijUC3mDqy+sl1dTKZUkJCsKyf6Rq0T9ZcMlYJHezcPjN8iAAa4pmSGRsZBJHaxK2SdEKDkori8P1eZ5scMrhJTTkulU41Tp7u1vV7bo3qsMeiUo2ul1v35/A07gEenpFa88fray2PPBuYG5jbv+Vdt/SYL/AIQP/wAxsz585hn8MY8q4pwu6B6Q2rA7HiXCyPi9nnn55z55rtv6Tdf7/t/zCz/69z/Cv0jHwv8AF/8AGfHrfIvkvvOnfo8uEzHgvHprCNP1mrNFZy9nbtMJDZB4Yw9wOzCdsdRjkIiJJJG5NeuOlXQa2a3N3xO3tO0/VTx3txcRWgxKscR+0lICgIwl0lTpXkpA0188PQe6HyXqcRgs+M3fDuJ6FltLSK4e3tbwRo2ZLlljkLLHIRGzQjtYVcMVlDolZzivUb0t4lItjdycRaF5cMbue8/V4MLF1lmIDxyKrJriYo47TsiNJ0supwU5N9SXHanXSlz5bX8/UxKNO3+dzxVxWbKqTnJVSQeYJUagfMHOfOtXuJhXof0x+q2x4XxFrKxu5LtYok9YaQR64brtJFlti0UcSNojWGTAUle0wWc8vOUgrpaqacupcPc9bD8JsnVbd2i31qb8O1j28YvFi1dqbcuO2Megh8hcn7Mh8A6fa016o6Y9IehH634cbZbv9U9ncfrEBeIqRLpPqTIJcXZTWT2ot88o9sdoD4rzQmc1xY9Q4+ff7e/zXYTxKTtnZ/Sk4nwZr8ngPbeodhFntvWAwuMyduE9b+37PT2ONe2vtNO2K4nMaKSSoHrgyZOrk5IxrZDq9epPQ4450VRbwdI0nLZiNq0YvzHpPaCcMLAhw+eyIMvs4Ps4IfPlUmmEtXHmcLrb1WzRJ41I9s9T/SvoULLiA4nHdm5NzdtY6Rf6jaFc2C5tXEKzA+zJ6yQdf3iU3rxk0x2zz2z7+/8AGqYnpCSuxLUubvf5eXyMRxqKPVv6Oc/4R8N/5SX/ALHOP31c60uHLJ0m6RxNIsayfrdDI+NEeq4Vi5ywGEA1HLLyP3ax/wCjpb/CPhn/ACsn/Y7j+XyqTr0j/wAJeko8Y+On5W8kn46eVelJ+7Fv+D/VI8lx9+Xz/A5v6VViI24LGriRY+B28QkH3ZBFxG/jEi4JGlwuobsMEbnnWI6vvRh4jfwieKONI2I7N55CmtdxlY1jkcqx+65Cg421A5q918FMdHe0z2f6isu0xnOj9Y33aYxvnTnlXYPTb4RfH1BbNZms0hkV0tlkZVuku5CrTCEZA9SNj6uz+zhZuzwyz18Dq884yjjx0nK92rSreuVv9J9Pp8aablbquDzX1p9Wt9ZSIt8CrtiOPLmRWjiCxo0UgBi7JAAgjDB4wFDxRhk1fULo1JmGP/RyPiTXkLrWknfoxZniWs3i3kKwmUf3Qf8AHhVmOC5JswoftfazHDr9sb+uuib5gj8NI/DurqYs7zQuVWnKLa4dOrXozsSgoS28k/XcyckmKxd7IcVkpBVd7fNaaIc943Ca0u9h3rp3SKwwDXOeIxYNZNmkcfi515I410YLXUyAqqoZJHds6URWyWIUFj95VAUEkkeZr1/x6PnXmXp1rj4hmMupkKr9mFLkSKEKKrEKSzLj2jjOD3V2cL3OHLwaBxXhfZ4KuHBLAEK6MGTSSCrgMPvKR4+WK2K24vKygMd8b8gfInY70HWL0e7F1J7YyMSZjK8Te2d9KmMktgfebJXOwO1Yn9ayt9wfJQTXd5OqdD6L3l1A4mt53t5QpUSRk6sPjIDNkKCVzlQG8xvmj1Z9ct5wppXtGRJJF7CRniWYYViQVD7K4JPtYJ3PljF8A49MPYdT3YyMHPxxgV0rrc9HJrPhFhxg3cb/AKxkCrarCySQq8DT63laUhyChjZREADg6iCuricldM3Tqyfpn6ZPSDisA4fLesLd17Bre2SO1jnDvki4ZArSBiQG1yBNIOoEaq5/1ONam/t47xBJb9svaDXiNkQMWUsNysjBFBUjn+1kCn6CdWnFu1R7WwvpHBDRmOwuJBkjKkHsihDKcgk4IIx3VgeCWzvKqoqq8jpAuR2aI0sgRMkD7PDnJOMjDHBxWXXAR666C9D7ROI8SiurVLe1ktorqyDoUh0284kLQPN7QjZwqtobD6cNqCkV0noT0s4TY3EpQ2cEuMBkMcbpMHWVdTrjsywZsliBpc9xOfMDejvxW6aNby7jWPBjjkur57l+xjkZVNvAxaUwswZo0+zyGBIQkitw6MegbNKQHuzoyMi24fcyErzIWaf1eIMRkA4cA42bv8+cIuSbkdpTaVdJ0jrf9IPhsnSp76C24fxC1a0t7eSXs+0t5LwgyPcBnVQkwj7SMyFWZlhkwW3I1D02Okq3NpY4nsXEFxJiG0VRIguYgSzugClF7JF0ncahjvrX/SH9HiLg62PYmZxdyus4ul7F1kR0SFCgXVCY9cqsVJEoCtyK4LrL6smHCPWJ3WMQwpIo7e37SR2CrEAmpmYMxUsMhtIO2dhz3bTRwJbNGzejD6GnDOL2D313xOW20duhhiECuJIQdGTKshZZQAwKquRkZBBx5i6rukE0NwvY37cP1lo5LrMqxhUyVE0UasXViABG6MAzD7u5rdoOsj1G7EVvEHs4mW4SCd5GWRLm1DFJZI2R2VZnaUEHJICnIyDF1dDt7/h0ayQWLLKUFzFDDGw2klDymZuyluJCTbRyTYA1xDB0DV2I33OGSNs9IW2uY4bLt72LiBlZbhJ04OLPEdzbkxqOICOP1hZANbW5GoFFZvuALtPU31z2VgjDh3BuKXc88Sw3SST9vZzMoIcGGGCZTGHZwp7FSAxGkZIrWfShWQQw6ru5nYS6mjueK2t4wZdkkWzswsNqFV3XX7RYPgY9rVe4f6Zl3aQcMhtWkWO2sza3EEipHFNKFeMTxzIGlJRWimGCDqBDLvkcjMIs9Cb2eDpLZTTcNHCRcscWiKUi7OaCWJXQMBtJMoYjCjtFIwuwH0KQfKvmZ056wuIE8Fm4hbSx+rvHPDdyszG7gW8F0smps5MUbBTlySMEhc4H0wtpNhjlsfhiutNbnZxcFxqI1GpoxXDZziNNR0JFQDClTimY0As0s0jSzWQIGkGpsU4FUBKKdGoDTk0BIKS1GDUpNUCojQLRA1AGDTmgpEVAaDElWFWooxVlaqNk6JSSHenRKmjFUpIq1IgplWpUjqAJFotNMgowKFYy0emmp0NCBKKMGmzSAqASiiFLFImtAVODTimoBmFU5xzq4apXL4qAwN8efntWFmyOfw2+s/GsxxGbPj5eVYeVxny8j+daRCKI1ZUe6owe7693zqaN+f5d3jSwHFED9flUyR9wPvzt+dKF+/HltsOXefGiEuOX1nnVA428K8NenROU4taOjMjpw+3dHVikiOl7eMkkbqQyuhAZWBBBAPdXugNnGB788v5Dyry516dXv6x6TcKsfZUXdisMjsiuY4lnvXleHXsJ1jDmJxkpJoYfcxV9pHHFzl8KTb+S3ZnpcmlHkyvCfTX6RLww3HqPbhD2Yu5bG5VSBpQyz9hdrHK/tKWdLW2RmP3QATXi/pp09ur+7e6vJWluJWGt2AXGn2UjRBhY44xhVRQAo8SST7P61PSP6OcJvpOFjo5b30Vs6QXd3N6tJctInsylPWbS4luXhUkCWW6hMjhlBhUK7cb9NPqStuG39rNYsTYcSgW9tlZmZovbCyw6nJcxAPFJGXZmUSFCT2YZup4ZLDDMqwezlNXF7e8lTa2e3N0cusU3B+/1KPPO3P1isE08etB4cR4VjH+nZnA/1sg/RrvP6TyMjj5PceHWfzE12D+6uAwMf15a9w9f4Wc752a0+W43/tr0H+lCT+/3/wDjbPfz9Yvv3Y+sV+k4/gX+L+uM+TS/aL8+Z5d6BcNu2mWazWcz2zJcLJbxtJJC6kmOT2UcLkqwAcFXAdSGGtT3hfTC6W3EMrpxG5khCsskkfDeFmNFZMtqmj4b9niNg+rWCqkNkbGtB6gfS54l0fFwtgLRkuWjeVbq3lmw8IZVeMw3Ns6llfDK7SLhVwEOsvmurv0/+L8Ohube3FiY7u5ub2QzWcjuJr1i9x2TR3UKKhYllSWObSdslcKMPKkmulOqq6+nlOjsPG27POPFXx7PIDbH1zJO5J3J3POsDJWScDSB3KAo9yjAz51jnFefml1SbO9CNKis4oSKslRiomSusUryVE61LJUL0BE5qM0bimK1kWAakjFBiijauSJh8Hqf9HaP8JOF/wDLSf8AY7j+2rXpE2+Ok/SEZx7HGm+fCZ5MfEHOP4VT/R3f/aPhf/LSfjZ3A/fV30m5v8K+PDxTjA9394Lg/ux8a92fwL/9f+pnj/vSf54OPekMv2XATvvwC2O+/K/v0wPL2c48Sal6DellxGygS2BhnjjGiL1hJWkjjA9mJZIpoWaJOSLJr0KAqlUVVWx6QPCmNt0ccbmTgscKr35j4leEHPL2+2AA7seYrqvTpOH9GktYPVI768uImnlaXSMRiZ7fWZHhmUa54J0jgjUaEiDOSzjV8HrJQaWOUOtt7R27d7fFH0mn6rtSr1PN/WJ1s3fEpo5LpwRHhIo0HZwRKWGrs0yfacgF5HZnbCgsQiBfqL0H2tos/wBAV4k64OiNndcLteL2MJtlM6i5gwgRWdzA7LpGnUk0SLriWITxSQu8UbxlR7b6GMfV4f8Ak0/6oz8M118eSE4Loj01cXHya5W2xyyi1Ld3e9+Zl5agkk/hU7io+xzRlNV42DWhcZhrqnFrHY1zfj8e5rHc5Ec941HzrzZ1z8PXt4XcNo2D6fvaEf2yvPcKx3xXpfjR51wDr6tMxqw7mIz71Jx+ArnxcnHPg5r0kW3VXEaw7kGIxyzSygBxvIW9kAx5yux1EYG21fotx7SCunJG4by8CMeexFauKyfC+I6RjTk55cuY8a9A6RutpIzNuGAzliAucd+NTAZ54zgZxWY6S9HrAWLytdXDcRXsdMLhPVmSaaVXhhynalreJElkkDLHqkUAb4rT+C9NNGzJkd48PdXXugfCbi7s78W/DPX09UlaSTskMlmYlMq3MUre0DHGkxaGIF5Bp5acNxtpPc3TfB2D0cPSEuZrZVu+KXWqIBYlgjBlSNgY8M6lF20t7UgJ0lckgivLvTnjsQkmjhjdIo7ueeFjKxdlcKkQmU7GRViVtQOzOw3A3330WbKGUsr3KRSASoY2gkfMWYXV17Ea5XZ2ddJOEVBk+2tav6QfV36nfdkrl45o1ukLRmJyjsyHMbEsg7SOQKGOSmk/tAnrxXvtHK3UUd76p+mBt+JQzl9njdS2C32crLceyBk7LJtjuyBXufhXGxIiSKzFXRZFJV1bDqGXKOA6nBGVYAg7EDBr59dVPRmS4hsriIoBFo7Rmlji0rFrtmYGV01aDbLsDnDDxr1jL6TnB7YDtLxC4GCouIGOeRx6ubtuf9SunLG7OypKih+kViWbhlrdyfejktbhnZdQLCOaxfUBzVpo0J7ssCa8z9LvTLs7i2lhk4Hayo0KQr2l5Irq/ZdklyiQWscJeI+3hm3YqwGdRX0Txn07eGziKO0iM0qDs4ImhmkhLp2spMrSRxzMWaTUOztgq6NsnavnR0+6W+t3V3c9mkYuJpLgIilI17WQsFRTyUE4A+NdvHHbdbnVn6Ga6ScEfTY3AX7Kaz05GWw1nIYJdRxto9gEnxrJce6CXFsHa4hUC1ktjPE7xO2m4zJCpiWQs6zxxvsp2GQxRsgWOovpgqXlrHcygWoLriaXTBCJWWSVgXOiMOUycY1PjvO/fvTi6P8ARmeS2uOCX6y3Bgk9YSMGSArb6dJlOlPV5X14VyWRtGMHII5bd+hxdjE9b3EeCycNmhtI7FruTsngWzhiedWBJkybWH2QY85VppMlVAzgmtO6vPSItbfggsLq1ivALwyNbTIyhraWMO0sN2oPYXK3LOFAOSNHs49obp0C45atwqCCbjgtZOw1ri6ii9Wmjf7G3a0t7f1iRAi5Nw8rOxbUNQYCue+i30otbWe8SWe1guGiMVje3MXaWcUkUzdqW1D7L1mEjs3ZcAKQcFgr7OMrdaPXFw6XhsPDeHJeCFZ5LkevSRyPAZUCer2xjeQCAAasZySxJGc5+h/VJ0hFzYWc4/yttDJ5jXErEHzBJB868u+kR6SHC5LKeyhnS6lkjgTTDZxx2STRtrmvIJtIYmU5QAMfZJ7ic9d9DHj3a8Ftc84u1t/hBM6J/wCb0ZrgyHNie53iM0YNQpvRqcVwM7JIDTmhQ07GoBjTE05pjUIhU5pqaqUelmhLU9QD5olagzSAoBwakFCKWaoCVqM0CCiFQDhqcGgZqdZKnINLjFToKhjFWFX5/XOqcqLEaVLAKGJvrzqdUqkHDVIBQqKkBqFFijApgKMVTIqLFCRTissqCBowaFaWqqihNSxTUQFAICnpwtOqUMg4qjcfjV5hVS5H1/OhaNevl8uf1tWGuIvLf35HzrM3558zWHbGTt/CtICjkI/q52zy+FGpx3efvqJCRy5cthU6k+QHefDz/sqkJniY74A8N/rPv51Kvux8aih+ePj+fdUhbyx9d1ASIP5+P9teTPSo6xJeG8e4RfwhXe2tu10MSqyILiZJYSQCU7SOR0DYOksGxtXrFRn62rx56cHAzNxLhsS6u1ls5I41RO1eSQzuYIVUEYM0hEQZjpTVqb2VNa6YyTjP4Wmn8q3MW4tOPNnRunXB+hPF5hxi6vZbR5VWW5tXkkt2laOJdQe39VmllkIUIz8Om0SsMglnZm88el56Q0XGuIQm1Ro7CyjWzs1YBXde0DSzlOcQlIRUjYlljjQtpZmVfRnBv0fcYto7a6n4TbXtwjGJZ5+Iz3iyMgUm37PjfDbeXS4BwnCrlVbIPbgBa8Y9cnU3d8IvnsryMJKhR1KOZIZInYiOaCUpGZInKsuWRHVkdWVWRhXQ8KjpZZrx5ZTlHaKldRX93ZX5Xvsc+sll6KcFFPd13fr5HUYUxxm1x/nvDDvk82tWPP8Aqn4V6H/ShAfrxeeTw2zz4Y9ZvsfHnny0+ePPUSEcXtT/APiOFkE8/wDF2h3+ORzr0d+k+TPHEH/5Msz87q/H/s/jX6djj7iX8/8A8Z8gpftU/RfeeIbq1PdVJuHE+NezPQ19Em345b8SeWaSKa27NLYL2YgMkscjA3OqKWRotSoCITGwGs6mJAHYujv6LdhNGbm8g7DV9p2Dv2+jfaLtrcxhicDLggAk4OMHgeOCbUpJNdvmrO3LUJHzGubUise9eqvTO9G5OCXqwRTCaKeMzwElTcJGHMem50JHH2hZWIZEVWGcKNDV5jmh33+FdTJjqmt0ztY8nUrKCQ5q9DwFyNWDj3Vb4bY6jX009FvoHwOPoul3xS0t2Et1PaS3j26zTwrNcm2t5UbspmQRZjKsq6Yye0OMOx7OLTdUeppvdJJK22zq59R7M+WF5ZEc6x7LXrf0t/RHn4PMSMzWUzE2t0CGVwTIVglZVjUXaRIHkCII2DAoT7ax+Vby2xtXBmwdNOO8Xwzkx5epGOCVah4WxGQCR7vzpoY96+g/6PHqe4VfcP46eJRRlIobcC5aONriyR47sy3Nq8kcoglUKr9oI2z2Y1B1BU3DgTTlK6Vcc7tL7zOXL0I+fcXBWbkCfcCarz2JU7jFfQs9U0PRPish4lwyLjFjcQyrZuwhaM4liftNNxH2PrEMZ7KYBRjtQYyVeRRo36SHqKs+G39vJZL2UV/bm8MAEYhgYOEMdssaJpgIw4Rg2liwUhdKJ35aWCScbpptPanXK5u16o6sdS5No0T9Hr/9o+F/84b/ALNNWT9J+PHSzjuf6HGD8+jd0R+41jvQDTHSLhf/ADk/+omH76yPpUXbf91fG+/CcXQeSt0eugfkGY1rN8KX9z/WcC3c/l9xzL0h9uHdGsHB/VcmCNiCL6U/ga6L0h6xuDcet7Y8Qm9UvLdSrMPsXw5LzRpM0U0Utq87PcRROe0heWUAgSSGXn/pEtnhvRk4A/vZMu3L2bxxn3nmfMmo+gnolSz23rd3dw8PiYKY+3ALOH3TOuWFEZl9sIXLaSDgbgfB66OOlKcnFp7Nc79qp3fyPptO5XUVfoSdcfW3ZLZQcJ4YGa2jlE08p1faMrMRGhkAdwXYyO+lASsYQaVxXv8A6ItmCL/k0/6tfNHrj9H+fhZjLt20MzARXEaYiJKhgj+0zRzFTrVCGWSP2kkfTIqfSroQ/wDc8Of+LT8EFdbHDHHGvZu07d923y36nLJycn1Kn5eRnGFRl6N6bTmnJTEcXmOK57xyLnXT7uwJBrQ+lFnisPY2jlXF02NcY63bPMD+RDfJhn8M127jS865l06sNUUi+KsPmK5IvcNWeSFXu+FX+C3CK415xy9x8SPCtk4Fr7KTRH7UUhZZjMkSRG4QIdWsrqbTEdADbEscbDOGvIiJsy6ckB8qQyNkbMCpIIOMk+Oa9NOzzzPzXcZ20hhuBnHz8c1tXV9193nDIrmC07NY7tDDMZIzIHjZWUxodSiP2ZJBqA1e2cEFVI0G046ity/AAb/l8qz/ABJo5IzpO+k7Ed+Mj8e+uFxXc2m+xk+pfr0uuDvI9rHbuZNOfWYWmA0ggFQskY3zk6tQyqkAYqDrr68L3jV8t5fNF2ohjtl7KFYIlih1aECLnG7sckndu4AAc9tb7TlWGfPfUvu/nWw9Feiwu5kgEiprDEOVLD2EL4wMHkCSSRgBjvgA6pLczvwP+rg0LOzBnSRY0iMqjTGys8kwjbJcFgqZQgKckhyw06/HFsQP2WzXZT1WW6Lf2/aTT3McEd9w2YIttbXVovt3FxiYkiPsRI0eZRr0DSpZvYxnTm3sRYcPazi0yy9tJdO84lui0ZEWiSJD2dvBrDvCMB2Xc+LZs0+DA9W3RmO4uVjN2tkpy6zyCVirAgLHGsGJGmYnChSvI78g3VU6seEFWZ7ziFyY3MTtDZRWUfacyrPfuzagO7BIHcK4z0P41JDcQywgGVJF7MHkzsdCqd1xqLac6lxnmOddf43wTirxcUtGhtCgki4ndOjr9mA4TVaOXwYmLgSbOxUD225nMnQSs6n1S+j/AGN8Y1s+Evdl5RCJbvjTQQCRjhVm9UjdV1N7ICq+SRsd8edes7hMthfX8L2kUASWSylttRuYYcusiJHMSGJHZq8Up0tgbqDqUdy6iuhd4tre2q8WXhqKqcTkMZKvIIHCosF0WgaK4UhXVoJCMLghsYrgPXVwOKLiV3FBem/hLK6XbSCZrjKqxZ5F9l3VyyahthdjWIythqjb+qq94jcRGKDhdrxG3tz/AJexifsQ51aPW9cDgnJIDSMwBGBpCgZy36vLWLjkVvxOKCxt5kSYxQ3L+po8tsJIYzcuGaKKWT2ZWBxGzEKwXQ1YbqU4BwqRf743U0CtL2IiS4ECNi37Tt7h9DHsjJ9iukewc5ZtWBzvrNMIupo7ed7i2jbsoHeQynskACIH2yiD2UwqjSF2Fc1HEe7+mXA+EQ2bPcWvB7aAQTRm0RYLi9aYqVguLK/gkEhXUQxMkQYYySu4OL/R/ccDWl5CCSIrrWgPMJNChHzdHO/eTXz5jjAPKvXv6PDjoF3ewE7y28UoH/ISMrH4duu/u8q4si2OWGzPfcRqUNVeE1KprqnaJQ1ImgVqQNAFmkTQNT5qMDmn1UJNIigGCiizQ6qQagHNFUZNEDVAYpDnQqaJagCNODTYpwKAJWosVGKdzUBqEQq1COdVoTVtRVOQnAqeNqhFTiqEEDRLQrRhahQ6cmkBR6KhKBo1FNiiNUow+u+nUb5osU5B8aAVICn0Z8hTilAHTRL8qLTT6tudCASCql1+FXJB5VSuKoMBxL3fjWGlznnj4is/xFfn+Xw/fWBliG5OB9eAqogKRH+ecZokc/Hlnv8Ad+VNGT/I1ZSbuO/5b1QK3XuyNvgfhUxfnscfMe/fx+FAmRz28u8+6rMYGMk58t8/lg0APZ5G3L67q88dbfSyCz6T9HLm6YLBGHEkjYCR9o7xJK5OypE8scjOcBQpO2mvRS+PLw7814v/AEgkDNdcPGnc2twMKMnAmUsSB3BcknkACTsDVeNZYyg+GmvrVGXLpal5NMyHpd+h/wAcveN3NxBbm6humiaKYTw6YU7JE7GQSSK8aw6TgqrIyaSpLFlWb9JHxxRPwaxeZbi+sbDReyghiZJjB2QlYbiRzDLOUbDaZ0bA7QZwPVn0o6SrwstZcTaKC1R4xApuL2cLCvsxwTR8MvorcgfZrH+sIVTSBpgC7+YZp5HnDyu0sjzK7yvJ27SM0g1O0pZzIWPNixz411/D9Jm9rB5pwcce0ei7dqvevjZcLucmqzQ6H0J3Ld39e3+53kRf31tef+P4W43/AKUVo5B5/tFvhjxr0t+k5A/Xsf8A+6rLu/8AxvEu+vO3EYwOJ2mBsX4Z+EVspz7iPwr0l+k6P9+ot+XC7Q47t7y/35d+PHu7u/8ATIbJL+b/AOM+OjK5p+n4mn+hv1c39+OIRRcQaw4WYSnFXzbmJomglwsiTaWVTH2iySxSQ6Y29pmXAru3FP0e/BYoEuZeL28dvIqtHcPBaJbuHGVeOY3AjYPqGkq3tZGCciuZfo+enqLLe8KlhlePisTRtNArNJD2dvMrZiEcuoOjnDkYQgagwNe5+hXVLZWttLZYvrmzlwTbXds08KEEMDEPVUZAGRXCaiiuNQVWJJ5MmeeF+7Jpe66SXvLh7tPdcK9qRwZHb4Pll6U/o2PwO4EOY3hmDT28qBF7aMEKWeNSezcEgEEsCMEE5wvm65XevcH6RHrK9bv0t1hkjXhsbWYeTIkmL6JDI0ZRDGuAugHOsZbYMorxNepXUz9TUZT+Jrf8/I9XTu0Zvq54o8N1bSxosrw3MFwkTKWSVoJ0lSF1X2mSVkCMq7lWIG5FfRvjHp98Zhj1T9GkhiJGoytfxRZPLLS8NSPWcHCkgnTtyOPmt0U47JbzwzxECa3mhuYiRqCyW8qzRFlP3gHRSVPMbd9e2+i/6TK5lEsXHeHWvEbV1QpBBAkIEscgdXlS7muI5U2BXBVkZVIDZynLi6ZRScOrnvVfLs/paOvqIOzr3GuvO6490W45M1tZ2aWi9kYlWW6LKixXMjwuTbLby6HxG3ZS6ZPawcYPym47Bhj7yPxr6cdPvSF6KW3BeM2fC712l4ksssdr6leJGk0qqqwRH1GGKCCNQFAlk0oqYDbAV8yONXIZifMmuPP09L6YuK6rSap/DHz35sumT/PzMZGd691/o/uE3c9rxy1D29vwy7suw4nfXDaTYxer3gE8KGSJJCySShzLIscAVJW1BTHL4VWvX3oP+kXZ8OXiHD+JCRLDisBgluoleR7XTb3CM3YRw3EkvbiVIlKRt2bKrMrKX0zSt1JR52rvw09l3a5S7tLng5NSnSO0ejP6Ud9YFOGyC3uuExXzWUPF7iOX1OztlfsISrxKLc20yok8KzXSMizgGR41QpyP9JLwfiScV138qTRSIz8OaIKsC2evaOOIPI6MrnMhkkcyMwZWCGOOL0BadefQqGxm4MnEr42N7Ib2e4NledpDNbS2TQ26g8JBZbnsGfV2MukQyhnQyw48x+n16S1pxm9tlsQzWthbtaR3Dh1N1rZHaUQyRRSRImgIO0UM51nSq6C/fyyj7TqUHG+q241eyp+jbtNeW/ezo4lJvfgwXoFt/hFwv/nP5wyD99ZP0tYCvSrjTZHtJxXkdx/g7cIVYdzY9rHerL41ifQPk/wh4V/zof8AqpP37fGsz6WVrq6W8ZXlq9fHj97o7J+OTXBmSdfy/wCtHLFbyv8AOxy70jExwvo0MY/vbOCDzz642a6z6YfVzdcQi4XdWCm4tPV5hHHGgXJlumlF5FqIMyywtb2smjUYXstLhNS1y/0hXMnDejJPM8PuMnJJJF4QzMSSSzHLMSeZPKtJ6FdYfEbZRFa3UyxDJEWEmjXUdTmNJkkWPUfaYoBk7nNfDanTZJyU8TXVG+eHfPG/yPfw5YxuMuH5HXOsaN7PoxDZ3xHrLzILeJmDyIsc7TNp3PsQQP2RKkhDOqZwQK9mdA3/ALmi/wBAf9UH99fK3pbxi6u5tdzPJLIAcGVj7IUatCKAFjG2yoqgse7JNfUTquvO0srd8Y1Rq2Njj2RzI257/GujHA8Mak7k25OuLfl6HZlkU3twkkvoNsC0ammpwtUpDcTVqXSCLOa3EwZrCcZsNvxrEkbRw3pHBhiK5zx+LY/KurdL4CG8vxrmPHbYnekeTTPMthauJp4x2YjAMknaRGVQInKIyoAWLjXgY7mOdhWD6RwEOrFtQcbfZGHCqdOlY+SoB93Gx3781nOstXhunZGZSTkMpKncA8xjvzmtNurxnOp2Zj4sxY/MkmvThwdCXJt8PB7coCSMn+t+WK2Xqj7Jb22DQm7Qzxj1YIjtNvtDiUiJlc/e7T7MLqLbKa5vb4GATj4451sllBpAkjbS67gqxDg4xkEHO4JBweWazJJ8lTrg6F6XsK/rm4kWCG2juI7aeKKB43hRPVY4cq0SpH7bwvIQoONW7Ock6d0M6uJZoZrjsC9uEmt1myNCXSwidF5htQQc9JXD4znarfWjwKNIOGzpNJI9zavrWTTphNrO1qsUGkA9gpjdVLcyjEY3rA8T6SnT2cMjrbns39X3SPWkYRmkRW0yuxzmVsswJ33wJwtgle7MVau8pjBLyt7EUY9qR9vZiijG7bZCpGnLICjcCth4P0UmKTy9k4iiDwTv7Kdk7LpVHVyG1h9IKhSy5wQpIrb+J9dUQltHs7JII7PtHSKRzMryz6DJMwwoRtaBlCYwMAkhVxr1r1rzi0uLDs4eyuZRcNIY29YVhIJNCSa8BGYDPsaiBjUAXDZ3LsalNC0ZXG2VEie0NWGGpGOCSpYYYZwcEHG4rpkt1w8XWpuI3vZPatI8pBLtdRqHgt5FSNtUDTKBhg2gaSX2zXOOI8RL6QwXKIsQIUKxWNQqaiPvEKANR3ON816E6rur+d14Xdx8LUpAWaeWQ20UV3G4dVlJnkUyZDjGUx7PskAgnMh8jaeGdY3DLy4RZYZuIx9jMzQxQSiYOQrRNErsjyMkhZjvgDkG7+Vekp0jWeW1dODHg/8AciRsDbtbreGE6PXUBhgQiQ51siH2sAs2nU2+dAuhacKvUvfX+H28kTOyo96rYEishjaGBJMqFc4XUcEKR90VX9KjrPh4jBbauKR3c1rqjgt4bCaCGOGZy8oFzIftCr6dIYZKnAwF2wo07I3saB6NnTW2tbp2umjjjeEgSSKGAZWBAX7CdwzZP3AmQu7bKKXpQdNrW9vhLa7qLeKJnEbRB2jBy4VwrYIOnUVBOnPIita6nOt2Xhdz28aLKrDRLEwQF1wQuiVo5GiZS2oFRgkDUGwMbf0r61F4tfWztF2Yhj7JQ8nbSMFZ5B2kmldR1OcbDAArlk6VmFG3Rza16AXTLrWFyvPYDVjxCfe/CusehpxnsONwKwI7WOe3IIIIPZ9tgg8jmADB78V7p9G7qY4dc8OWeePtGYyiRu1dDDoZlBGh1CaFUS+2CGB3ypAHjbpmY7PjlhPHja5iVz3sjyiBmIH7XZSNvjcgedeFpPE1qpyxpNNHp5tI8MVK+T6MpUsdV7R84NWhXoHCGKYU5oRQCxQ0TUqAbNIGmFPpoBiafNM1KoBwaQps09AODRg1EBRA1QSlqJWqJabNCkoeiqNqfVUIzVIj/CrgXfaqkC7VeiFU2iXTU6Co1WpFqGiXFEi99DipVFLAVOBSWiFRlBxRqKEiiAqkEpp/rnSUUQWoigg5ogP508ZplqkHxTotLVT6ffVKLR386ozt4c/GrrHu/dVG6WhDCcQY8v7Kwsg93lk1m+ISYHLJPLb86xEsWff5cv5fCqjIMS57h89vl4e6p41O+N/PA5ePlUAbG2Rnx5/DwHjU8ZzvzI3xsB8R/I1SBou3f5nIyfcO+plUDfO/cM7+85/IVHEuTyPngAnHkf3UbKB/DmP7aFJCM+A+vwNecevzogt70g6O2kjskdyJoZCjmNzEZA00WtSDieINA2CNSysO+vRQfyxjc+fw5HHOvIPp0cclt73hFzA/ZzQRzTxSLglJIbiJ0ODsRkAFDkEEg7MaSjKUJKDqTTSfk6dP6yWk035o2/0ifT94pwfik3D+HQWVvZ2HZQpC9p2naAwRy5Zw8TxxkOAi25i9jB1MTmtM9PbodamfgvF7eA2r8btxeXNtgKqTp6pIZdKqoWWRbsJMwAEjwhyNbyl9rm9N7o5eCG64xwRpOIooUtDFZXMRMZyumWe6t54otR1rFNBL2ZZgrygFm8+ekR6SU/HeIRXMsYggh0wWlqraxBEZAzF5NKh5pXAZ3CKoCoqqFQZ6HhWmnDNjaxez6VU3a9/b0e+/vWzl1uSDhL3uq+PT88G99KOH6OI2Gn9uPhkp37yIwcY5A6M+8mvQn6TmD+/MTb78LtF5jHs3nED78+1vt4eeOE9JUDX/AA9iygi34ed84JVgAihFIye7OF8WG1eg/wBJyv8AfaDYY/V1vv3/APC73b3D99fql7r/ABf6D4rF8Ub8vxMj+je4qgj4vbxyxxX9xAosg7osrOkNxvFrDFuycrI4AbC7lSBXsPoz0U4xLYG2vLj1e8QAQ39q6y6tOk5uIX0o8r4ZXxGE0ksvZNivHn6O7oXZTwcYmu41PZRR4uBqFxbRmKcyy2sq/a28wXLCWDTJlVwTpWtn6QLd9Gb9551ueMcPnidLQz8TneMFpNagiZrlDcRRoFeTsVUrLqjYfaIu3jWSbjBrr91pOKdtLiLbS4e8XafJxZFvfY0P9J10khkubKFZY3ube2aO7SN1dopHMcipOV5SFWMio3taHDYUSLq8AXI3Ne5/0j3V1bWt1a3ECmNuIQvdSx6gY1kUxqexGlSobXqYbgtkgLkg+Gbpdz510sldEa/O7v7T19MtjI9C7mJLm3edWkgW4ge4jQhZHgWZGuI42JXDvCHRTqXBI9peY7t6TnSPgd21seA2NzaoiT+tNcM7dqzvEbXsg15dsOyVbjXkRZEsY9sqez8/8Ls9RFfTf0UOjfCrbo1JdcStIJVN40E8r2q3E6JO8NvEUCxSzfZ9srqkS5BZmAyTns4IvpTSb3pJd3Lbjv6HBqZqLtny5vYzvWAlzXs70wfRHfhTi4tiZ+HTn+55wyvpLdoy28zL96VY4y/aBQjDv1AivHl/bYNdXUQqpJ2nx+fM7OGakjHo1ekvRK6X8Ct2uxxyyu7yN0h9W9VZlMbI8huO00Xlm57RWh0nU4AjkGFLDV5xjj8a90fo9OrGwmTinELyFbr9VWwu0tZBG1vLqhumPrCyRyhsdgOz9nCONRD6QBrSraT347bPlJU/mcWplSPLXSXhiyzztbRSJbtPM1vHIdUsdu0ztbRysHkDSxwGNHbtJMsCdb51HTeLcJdDhgR76+ofo1ycPt+D8Z4rPwy0nMXFGaO3dIW7CC5e37CyileB9EVsLrSoES6tA9hNQ08q/SidELOGXhMtrawWvrVnNNIsMSRayskHZmQRqqu6CYrrI1Y25AAerlx++4NO91e1WoqTXnw12Ohjy2/z5nBPQSH+EHCv+dp5fsvW6elIQOmXFNs5a5Hl7fR5kPP+sT8jitP9B0f3/wCF/wDPIvzNbn6TX/214j/ys/nz4B/E11cq4v8Agf8AnQk/jfo/6M5H11D+9nRoH/MbsD/fdvz+dSejf0Pa6mn+xjljjjjh0vIiHt7uTRbLErspeRjFJuM6FVicZWm68LbPDOjOO+xuifhdLt8K1rqz66rrhjTNaOiGdFjnSWATRSCPV2ZIBV1Kdo+wYK2o61cBdPzrVqSXc9iNJqzP9cfRaJY0lSNopomRZoXyHU6wrIwYatJBDDVg47yG391dVV2HtIXAADKXCjkNTFsDlsudI91fPTrC69p+IFROIdlSIGKJ49KRyNKqqrSvks7sGeRnwmlFEYVcfQnqiRfUrfScr2a6SNwfZGfxz8c14maLWzO9BrsbeBUmmmUU5rqnOgHmxWG4rMTWXK1Uu7bnWWaOP9O4O+uXcaSuy9Pbfb3GuP8AHUzt9fGojR5n677PEit4gfgSP3iuXiu29dXDyUDc8ah+Tf8As1yZOisxQSdmQhGoElVJHPKqxDMMbggHPdmvQxP3TqZFTFw3hCvjLY/lWw21sscbjIYsPYOdwV3Ax58jWv8ABLFiGIJ08tt9+fL5b1m+HdHNZwSc9w2Hd8TnnVnGzMXR1nrL6teFQ8Fs72HiIm4lNIva2RubeQxQmS6TT6tFCbmCULHbTFriZU0yPgZlhUcMik78Vb4/wUR4x35B8Mii6GiR5FhiiE0k+bdYyobUZfZGMlQrKfaEhYBCNRI05GIx6VQcrZa6HdH5byeO2gUNNM4jjUsEUkgklmYgAKqlifAHAJwD1Po56M18/EW4VI8ME5t/Ww8mtoniUjDReyruT7WPZGyOeQ31K06CXXDiLwzW0Utu6yLGl0slyGDhAEWFZU1LqJOqQABWJO2/QeLdaYn4hY3s5kmjbhkdrK+WOi4EEzaAxLbLcjWEZskajggMKSbXAVMyPV36LsE97f8ADr2+9VurG4SEMezSGaN9WGXWGYyZCtp2Co3N9yl/qZ6s+F3PDuJLfTzi5tzdQ27CS4a3QwQB4GEaHsezeU6dLk7ZOAuRWucE6xPU+KzXYjaW3uWR4WJyWMRQge0QdgZI2VtORkDYbUujHG7i0E9v2Qa3vpJ5YsZ1EPGYnAOMBoVePWuMKTjO5xwtt/YbpHE7dwCuwJDKdHjg5KY3ODjHI86yPGb8SO7gudbs32hDOMndSVCjblsoHkOVdWtuO31q6W0MqAJGjo8cNvCWQkgPK2hphKxRtQdy3ecaq1DrXmeW5e4kwJLg9rJgAL2nJiABgBsA7DnnzrsHDdGjFa6r1f8Ao7cTuFS4jjW3iyCk91KLWNiP+KDgySDzWNlIPM1uXoodUyXEouZohKBMttaQuMxS3JXtXllH7UNnFiVk5OzAbaTn6N8ektuGQiWRGursjLFsKeWyl9LdmOWmGJVVF5nVkV4mv8Rjp2scY9U3vXp5tno6XSPN711HzPEtj0J4zBG625t55G+9DacSGqTGxJhlW21kDfSNZxyycCvLfTXjtybhjcK8dxEwzHIjI8bIQ6oY2wy4ODg8853zmvo5a+mTbyzCHiHDozbswGr/AB4Xf7zRuocY2IaOTWpGRg4rA+lz1HwXduksOJD2LXNhdffuGihGqfh1xMMtcrFG3bW0kmZCmQxJViejodfjnl9nPH0Te67p+l0tzs6rTThDqUuqK+w7x0R4mJoIpBykjSQEf11DZ+OazumuT+i3xIycHsCTllgWFt8nVATCwJ8cx711rVXtHSXAqYCnYU1AImgYUYpmFACKXdSLd1MKgGJpzTilipQBzSp8U4qgY0WuhIp1qlDFCacGmNCBo9MGoRTFaA16Hwq5GlVYV8PjVuEVDkRKlTxpUSCp4+VGUMLRqKFVoxWQSqafFCFowKFBA8aKmoqtgQ+sUw86IrTtRAX19eVLT8qQFP7q0BGTu5Y8qcL4/jTA06rmhAXaqU3v8qvSH6/lVSc8/wCFVERhbzY+NYiVhk/2b/Ks5eg+Okfux881hJhVDIEXO2O/J8amRBv+H9tSwr4Ab7e7xNIp4D4b86GQlYd3PzOfj5UaOMeedzk/PH76FJxnJHL3d3LkKTSeQHiRsT799wPIfuoUMXWNtvLIU7nxJFeUfTK6Mm64jwa2WJpZLhLmBI45BCWllkiSH7QxTBY0kKyS/ZsTGrgaCyuvrBIe4FW7wQrHH4CvM3pOdYa8O4z0evnUulo00zop9rR20Sy42+8sblgBnJAG2djclGTgrlTpetbfaZpNpPi0dHN10b4FG3B7/jNzHcPGguks+HwixtnnhGfZTh9yftFYSYnkupMOGbTqAryJ6WPo7NwW+QCVJ7S6QXdjdRoiJPECutXSL7JJoiyazD9lIksUiLH2jRRenuuH0Cf+6C9PFuG8St3s7/s5ZHKyS6dESws0bINGwiXMMvZvG/aBiMBV5B6f/WBYvJwng9hKLiPgdrJZyTowePXIttEIBIvsyPDHZqZShZVklKai0bhfM8KzylmgoznJtftFJbRddtlXvbUrVHY1mNKDuq/druv/AAYC5k1XXDm7mhsCu+4XIxnwIxqxXqH9J3/9aW/j+roc/wC9XePd3/XPy5bR4k4X4m34e/lj2QRjx9k7chn316m/Sdb8Tth/+ToTn/xu8/hX6lF7R/xf6D4+K/aL5HHvRs6yeK20PErXhln6567AIp9Ntc3MkClZIlmRbfYEiRwolBUso56WVtk6q/To4pwSD1A28VwkDGJEujPFLarGOza1VEC6FjdSOzdQ0Z1LjChV511D9evE+FSyjhror3fZROslutwHaNmEIVTghtUrgBW31nY7EZXr29HzjFsWveJQMr3c0kjyFrZg80rNNLlbaV1jLFmYLpRQMhR7JA5viTi0qdfNtenp6djklFdW5zvr+6+rvjN213dsAd0hgQt2FtFt9jArEkaioeWQ+1LJudKrFHHyK451nb+xI5isJKtefktOux6UIpLY3Lqfhka/sxCqvN63bdkj/wCLeUXMZijl3H2UkgVJBkDQWyRzr6h9M/SI6U2krQPwG1lZcMXtf1jdWzalDApIsC5IzhtSghlIxgAn5S9AOlzWl1bXSgMba4gutBONfq86TdnqwdIfRo1YOnVnBxivXHT/APSq8Ylnd7FLa0tiFEcE8IvJlwo1s86tACXfUdAQhRgam3rvQnDpinGL5vqbVcVVee/bt27+ZnxTlLY7N6RfXL0kfgU7z8Ks7e0vI5bWR4xfNeWqMHEk8tsyILVCkb9ncyvpR2jZlOpA/wAteKybmvTHWT+kS49fWlxZTzWnYXMTW83ZWKpI0Ug0yIHeWUJ2i5Usq6gGOko2ll8r3dzk5rq5skemkore/duvt7nNp8bjyMte5f0aPCL8Xs1zbXMVtZQRh+KGcgwvAILr1cvEShcRTa5NQng7MamLOAY38JxzV619BX0lrLhUt7a8R1pY8UtxazXKGQtaiOO59vsooZpJRN24iyi5jbS2GXVp3pcnuyS5aqufs863XrRNVFuOx7ftulg6S8O4g19f2/DuG2XEHtWntuzS3vIoWRra6nnu5njjgmke3uIY0PPs8yyBtNed/wBKZw90k4MrTRzRCwlSBo4jGxVJLcSSSN28ySdqvq5jMYjAxLnVrTRY64/Se6OWXBLzhnR+aW8fiDq8vbJeQrb9mYftQbmxhErOsQVY1bYqWLDAV+afpAOv6w4onAhZTGVoOHOLgGCaHQ0/q2hMyxosh1W8wYxGRVK41bivTlNRacU1juVRcUmrglb2u3K1u+Eux52LHK7fl95zz0Im/wAIOFed7F+BJ/dXRvSEgz07vFwTquGUADJOvgSqAAM55jauYehDP/f/AIV/z2Af9Ouq+kVt0+uMEqfW4sEcwTwSHcfE5+NcGTev5X/miWa2n/K/6M4d10Sf3p6Mkc/UrwfK8WtS6H9WM10YiEbEzmCOQqwiLxx9rIutVY5jizK+AdKAsdgSNi64X/vP0a782t+vyvlH7q330UesCJZ0E3YxmK2FmhleQQywyTSC/JCsFgvJrKY24ucSMQgCqNRFfPYmqdrt9x7FWzh3TLqzltOzklQpG+GycEYyNww2IOfeCMHBr6MdRcgPDrQjbEen4qxVvmQTXlX0oOm9vGEEF3HcFpluEiRFIt9OmUFww0sGk20uqkkOGjA+96u6lrQpYWynY9mrEebqHYfBmI+FeHlk3yd+CRv0aUfYUcK7CkWrqHMQlhVC8uKtyLvUE1vnajNHO+mFvqVq4xxiDnXofjFiN899cp6YdG8e0tcRs8/9Y/ANdtI39EqfgToP/WzXIX6Du8Ed5NNiEQpEGUICsqytbQ2o9sHUsUfrEjsowgI9tsGvTPE+jjSQXAA/yTnHmq6h+IFeMOM2emV1/rnHxOR+BFdzA+UcGVdyXhzv7SITue75ZHvq9a8NmjIbfn45Nei+sGz4T6pw2HhluytDbBrq7ljVLm5uZSWlJ0liIUJ0xqScKFA2XLcwvOHb1yOaMRgyXqz6qrnjN1HY25QSyam1StoiQIN2kcBmCgkDCI7b50kK2Oeca4PJZXksDsBLa3Mlu7Rs2nXbzGJyjEIxUlDglVJHMDlWYHTq7spWe0uZ7V2GC9vM8Eo05yFliKyKCDuFYagcHIFaZeXbOzO7FmYl2ZiWZmY5ZmYklmYkkkkkk1qCfPYzOjKw3L5zIXaJG0PhvHOM7gknBPwrt/EOEYtjFFgCQxHSd1wkqSEjIJViqada4YqSpOliDwyzDuzRJj7Uq2+26guN+77zV6J4VN9lErY1oiq/hqC4OnyyCa5elM4yvf8ACzJ2ODoSOZZigGVcojoNsgagHIDYOAT41Nd8PDyRy6mBi1quMacSY1ZGM/sjkRVp32/Ggt58DHzpSBWvbBCxlx9oVVMkn7qkkDHLmxOfPvrTOsO4IGhhqDopQgZ0tGxLZP8AWVgB7q226n/hWLkkGd6UD0p6D6oF4Nk4Dnio8u3FwmM+Derjbv0jzr0b1yyBhKh+8rEHPiMg18/PRj6f9lK1j2sdvP60L3h80p0QeuIvYSWly+CEgvoFWIPj2WHeWUV9CuJ8WtOMR9m7tw/isSKJ7eUJ2nLSO1hLDtkBUiO8tpGSRd8vg18L4tjlh1Ht2m4OKVremm+fnZ9FoMqlj9n3s8VdL+B/aADnn99elehspXg9mkgyUvHZM4/xXYz9rjO+kqSPDGPCng9G2KBu2vbuNYwf+T1eWpzqb/QRSxrFdbfSZpFW3tEZWeM29nDgIwjf2Zr2cc4oymUjDb4ycZ1CvN0ilqtRCUU+iLttne1Mo48TTe72of0N7jPD2H7C3NwI/cziRj7+0d671mtL6qegq2NrFbrvoX2mxjU7EvI+PFnZm+NbmK+3PnEFTGlmhUVQMxp2pnFJ3oBKKWaVPmoBmp6Y09UoIpzTrSWoBUy05NCapAjTaqWqlQo5OKRNI0loQ122FXUqvBjuqzG1Q5UWFqYVXVasJUZSVakAoF+jUgFQCFGFpBaMJQAj68KbTT5pZoAqQ+vGi00hWwIClSzRHAoBlT6/dSC/2fxpnP1/CiYfXcKATL4fPn9ZqnJ9ZP4VbZKqyr3fjQhjLuAnf8f7axZg8yBz5Z+dZmde4DPv5CqE8DY57eWPkPGryZKLKO45HuIb4/u51Jq22HLxOT9e4VP6oBucrnlvvjvO2+/uoWC+AUdw3LH50BXMW4GQTz5HbwG4x+FPJzz7OfAY8O/uJ76JBnJO3lyPuxvtTvATvzbwx+G3hVBEH5jYeO/Py5bZryJ6dfBHmueFRx4Z2hvmwzxxKFiEU0hMkrog0xozbsCcAKGZlU+v5+Ht3gA/jv7/AIV5369eBQPx/oxHdYNvJcukgbBRh6xbaUYEEFWk0AgjG9V5PZxlPmk39Ssz09TS9TnXVp6D9/c8PeRIOL4mTtYRb/qy1tJg6AqJ4b7iVpeSDP7TworJnQDn2vNfTboRLZXEttMjxyQv2ciPG0MiHAOHif2kypDKcsroysjOrKx9N+m31zdIbTpBKkV7f20am3/V0NtPNFbuixp9yCHTFcu9wZFkEscjNshBjEa1s36SGCSSPo1c3cax8TuOHSrfhV0EPCLR1Qrk6RHcXF4FTPsamUcq62g1mZzx+16GsitdKacdr3tu/J8bm9ThSUqv3dvn2/Poc1sly/CSdv7lsCf9r4e7lXqr9JkmeI2hxv8Aq6L5etXW3wryzACH4Xk5Hq1mD/V+1YYHkvMV6u/SVoP1hZ+P6vjyfL1m5x+/6xX6JjdqPzl/SJ8wl+0Xy+8456KfUBc8UuS9uY1FlJbzymWRo+cpZFj0xyFmPYscYVQAMsNSg/Ubpb0XmuZpIJ4oZ+Fz26JLG8kiziZZWYsoXSvYlOzJwwcuowQAQfCH6P7ojBJJxG6lVpDYwJMkIcrFIZEuNSzpusoAiGhZAyKx16SyoU9L9G+uqCXhN9xJ+FW8Rszj1ctEe09iNsmZ7WLs89qRvGfu+dcuWM5UorZUuFs51W/Uneyp9jqZ5Pr/AD2+g8C+mR6Np4Ncogk7WGdWlgY/40omhZO3UKqo4kcgacqy4Ox1Kvlu/hwdq9+fpEuhFvFNY3UKtG19bSTyJ2jPEhhEAjSBDhYk+2YskYVC7M+lWeQt4OvYt64c1yjGT579t1setpXcdzAyvjNUWuMVlLm1qhJBXRpncdGPlkquxq3LHVdoqw4tmSsacTkVPMnLAx4+Z8frwqq60SaMtIU1yah9aJ5793P44HgMk7eZ8aUqmokSuVSk2cTSPQ3oQEfr/hOf8/t//WDH44Pwrr/pNH/D6YAFme+tIlUfeLS8ItYkA7ss8gA35864/wChFGP19wrfBF/akDGdX2wBGe7C5bfnjHfXUPS8v2i6c3Eikqy31gVYHBVjw6yVWB7iCcj3CvXauMf5Jf5onlTpua9PxOIdeXGXm4R0dlfSHKcTU6FCL9nfqgwo2GwGcczk99c14DwS5kGYVkPdlDo+GosoJ8ga3/rBH95ejnu4t/8A3Fa2fqN6GcQu7jTYJC8tuEKJcv2dtmSOVwWAxrJignkGCMdkTnIAPhYYqSlNvhWeo3ukjgfSbhcsR0zK6ud/tM5I8QxyGHmCRX1J6kJmawtydzpIz4gEhfkuF+FeX+uzh8N5wc3ixiNxpYpp0GKWMosoQN7SpKj6tB3BkAO4FeoepTawtv8AkwfnuD8QQfjXg5ZWd3GqOiw1MsVBClWUrqs5yubepEtx+6pgtFpqFNX6S223LatLv7fO21dQ4lZaga0TiXDypO1YaNWalZ9HV9obDPjyOe6vn717dGDa8RlRl07q4HdgkqCv9Uhcivoncx99cX6/up/9YxAjC3EQJjc8mzzjkOCdDdxG6nB3GpW5cbUWZkrRzHo/0Ska2hbQwDICrHYMBj2lJ+8Nwds8xWF45wEx7ttj6xWlzdafErOOOxnLhLZnMKOPuByC4VhtJGSBpOpgMAA4CgY/pB1xzzgDQgI21YJPvwTpz7wfdWpY5XtwajKNbmr9LW9vzJJx3gHln4CsIVwRVuSMklmOSd8mrFv0cmfGmJz350HHzOB+NdqNRVHWl7zs3bpbwBLW7tuzXShSME5LanI0yPvy1agcDAHcBXRLWcFc+NY3p9arLYQZtyLuGQMbjtWw0RVVMRh+77DLqL7sc88bUuGyAR5ZgMbjcDOefOrhn1IzkVGWlutsd1RRz+FazfdLEXI1rv3Zz8udUIenqBu89+AM/HwrndHGjbLucD8zWGe8B5e6sBddNw+rShwOZJG3yzWxdRM0VzexRXKkQSsYSVkEbI7ECNixBGjOQRt94HOxBxJ1uaSspL1DcQunLwWzvG/tLJlVjOeftMRyOeXhXozoB0A6QFYob5bC8gi/xXrym5uYQBsIbhFWZNOTjMhIGwwCMemOgvRWCCFYoDqjTIX2+05sWbLZO+Sdu7ltitsWz8B5V50sjex2Y41ycj4L1WzAhgttA39OKBpJF/0Gunl0+WFFb50N6ukt2eUs8s0hzJNK2uVu4DUfuqBgBVAAxW2R23zqdI64dkctEsS1LpoEH8KkWqRjkUAosU2KpBgKEij00DUAgKaipAVANppYp6daFBBpiKfFPVIJBSFLFMaAbNO1MRvRMKgFinzQA09UGCihq1GarxVahWocqJ0qcVHDU61ChR0YFMq0eKgDAokWhxvUlAMB86fFPppzQDKKZUqQCkTWgC4oVNEU+NPEn13VQCG86dc/vp8fM0TD4fmfKgIsfX1vUUg+Pfj8vrNThfkPlULL3kAeA5fLy/nQGPkXw+v3VC8Z3OB8T+Qq3cy792NhsPDu5cqhMnLl8R/GhCl6uM+J8zpA93OnWPHf5eB89/4Vek+Xf78+7YCmWHx7vjQlGPaIas58MbH4jn3+NSlD4nPPY4A+FWI4Bnb55AHnnbxp2hx+0D5AH5Z5UshTCcyf489u+vF/6RCxIl4VglcpeFSNmBV7UhgQdiDuDsQQPKvb7Yxyx88/gK8ueltwB7nivR+2jjhZ7l7u2QXMRlhBna0jaV4tSdoYUZpYwSMSIh5gVtSUblLhJt/JIji3suSHq09N7pILMSNwQcSEIEaX5iu1JIjGHnSJW7Ztg5li7LUObM2pz5h61esa+4nevdcScvcn7IRhGiitkDEi3ghYlolRichyzs2S7OxJr1f1l9fHRjgN0OFvwE8WktRFHd8QuzbSXep40mLQvcRTySMBIraElso0YlUCBQa5b6anVhbW1zw+/sJZJLDjVt67bdtJLJPEYhCXi1zlpjCYri3eNZXd4iZY8lY48ef4dPTxyJwwuHXbjL+Jc+b6bW9bHLqVNxqUrox11w8o/DQf2oLVxnvUzMufmjDavcvp0dTl5f3lrJbW08ypZojNFDJIoYTTMFLKpGrD505yAQe8V4D6S8UfFvqPtRQpGviAhLqPgzsR767RYfpCekCKF9bjOkAZazti3LA3WNQdvEZr9DwZotKmrTfN90vJPyPnJ4Z9XUkbx1OdWfSPhFwLm0s7nvEsLwziCZQCFE0alGfQXLJg5ByRtqrc+urpH0p4tALWXh0kEOdUiW1reJ2+MFUmaSRw0Skauz04LYznSBXGP/1jPSD/ADmH42dv/wC5yqOX9I10h/zqAf8AiUHhjvHx79/lXoLIm1L9na4dyv8AyHXlhm+z/P0jdMeoPpFedmbqDiVwYYxBEJY7iQRRjfRGCulQxxqYDU+lNTHQgXTp/Q44wf8A9nXf+6y/+7ituT9I50hJCi7tVywXW9lCFUE4LMVH3V5nAJwDsapN+ko6Rf51B3f94wZ5ea9/OtuafLx/XL/sNJZYrZP7PxNLvPQ54wAP723p91nOeXkEJHxxnuqtxb0L+MxsQeHXbEBTmO1mnT20DgBokYFlDBWAJKsGU4KmtxP6TjpIP++bM+/h6Z+OJFH4Cgf9KL0kH+Xsv/5eP/jVLh/7f1z/AOwN5vX8/Sc8b0QeMf8A3ZxD/wDl95/8GoH9DrjG397L/wAf/q+7/H7I4+OK6Af0pvST/j7L/cB/8WkP0q3ST/jbE/8AiH//AGq9WP8Auf8ANL/sOO835/8AJz8+hlxjGf1bfcs/8BuQfkY8/IVSf0OeMf8A3Zf/AO4XWfxiGa6Yf0q/SP8A4yx/3E//AB6hP6WHpGP8pY/7if8A49avH5Q/5pf9hn9t+f8Aycx/+hzxg8uG33fzsbleQzzaMDl9cqoTeiTxYHB4feg+BsLvP/qa66v6WfpGP2rA/wDiTfuuBUi/pdekQ/8Au7/c5f3XQrXXjXaH/NL/APmZ/bflf7lX0WPR+4jbcZ4ZNLZXaRx31szs9ncoqr2yqSxaIBVGcknAC5JNP6YsWrpzOvjxHho+BsuH5q4f0v8A0h/ocN/3O4/+drzD1hde11xHizcWuezFzJPBcP2KGOFWtVijj7NGZyoCQR51OxJyc711s2oVp7VTWzb5afeK8jePFJ3fL/PqZvrGfHA+jh//AHuP/T0P76x3V51zz2YcRvIokVVYxyvEzKrZVWKFdarqYhWyAC4/aObfWT/9SdHwDyfjA5f/AIyH86fq+6JWv2IuQMznAZ30xqAQG7wAAGzk+Hd3eDhjKUZJcJbnpPk1Tp/1pzXKdkPs4dWsoGLF255kbbIBAOnGMgHfSuPpV1MXeuygYKUGgJp2OOy+yzt3No1DyYZ3zXiLrq9HNLe19dt2+z7NJQgLSJIrsqN2T4OmSPtAzqTp0K5BUrh/bvUMn977U/8Ag68XK12O7BM6Mq91WUqBBmrCV1zmDUUQNNijFZBWuLkAhSRls4HjgZPyFVbzhobnV5rcEgkZIzg+GdjiieOlA1S96NKawF/0Q+XfXQZI6qXcO1KKjkfSfqttpkKzxRyqd8OoblyIzyPmN65kvURw6Nj/AHHEfAMGYA+OliR8K7xxxW5AZFa9JwRjzG9G2WjmadXtun+Lt4k2/YiRfdkgVoXSnhOHOdvIbflXf7/ghA/hXKemlmNW3h8ayVI410n4tbw+zLJpJGcYY5HuANcEiKPMe9SzYz4ZJXY+XdXZOujom8gWVF1aV0sBuw9okEDmRvvWiQcCcAFYWJxzCY7t9ziu1jaSOKabMBIoEwwNt/cMiitHxKx/ZII/Hb8KyfAOBvcu4iwSkbztk6fYjKhseLe0ML7+WKz/ABbqslhtjdM6FcoNIzr+0ZkBJIAGCu435iuZSuSj3fHqajpssscssYtwj8T7L5mn8Pj0l/BsY/H+NW+Aw6Qy89WTvy3GOVegeq70bYLkxGSaTDOAQmlfZ0RscEhzn7QjPlyr0x0c9EXhEO/q5lP/AIWWWQY80LiP/o/nXmz1+KOpno9/bQVyVbJbd/pRqOCTxrL+6+Dyd6NHT6WxvrZFndYZ5o4ZIS+Yn7ZxGMRtlQ4ZwQyANkd4yK+lYirVujHVvZ2+OwtbeLG4KQxqwP8ApBc5+NbatG7NJUMFqdFpYp81SjqKRp6TLQyImmNINSzVA1A8eaLNKhBlFLFPSNQDCnptFPmhRtNMRSY704qgTGhaizQk0IExpiKWaZqFFSUU60xoQxMQq1EtVIlq2g76z3OVcFmOplqBasIKMBLU/Z0CipgBQoyipdNMFotNRAE0zCjAp2FACKdVNP3Uq0gMeVNn8qLA8dqQ8vr30ZBh76Ex/E+7GPKiG3OiX6+v7KFInl7v7KikTvPLu8T4Y8vOrDjHdUHu8PH62oQpzEDmD4+fu91R6ds7fHn76nZW5+PnQhMnJyx/0sUBGkX13fOpJYO7mfADO3gcd/wopLfnvt4j7ufDnnbxoHBH3cActmOT57k4PdVMi7U/tLn5ADw5H8KEP34O+3LA28/KiSLY5Pdt86EjHdnw+PiO7bwzQDBx3be9j+7bb4V5D9OHpo9jf8Cu4vaktXubhABnJims30kHGQwBUjmQTyr1zM47wRvuRy+Hca8een5Cjz8IDt2SBL8ltDSucNZ4VVH3mc4QbgDOTsDWlFSuMuGmn8miSk1uuTZusXoP0P49cnicvG47CVtC3duZoYzI0ShCVEqB5CyBUE8GQyKhMaSawOL+lp182fE7mxt+GqV4Vwm2NnZM0bxNK0nZiSRVkxIsAit7eKMSIkhKSMwHaBV5/wBG+qlr0yOgZUiQO+CmpQSQrO7qUyxH3VG+CF5Zrl3STh81vIUkIJUgbciP6Q8j+B2rOk8LWFqbnKSVqCdVFPbbbfbbfsTNqnPakr59T05drw0uYpr+GOWI9myszIoIUcpXj7N9sfdcgctiDjaeC9TdlOoMXEYHzy0SJJ/1f4V5P4hwF+37BRly/ZgZxlvedu76OKKXqwnOjMafaZ0+2m4VGdifABVb3aTnFeo24vY66meu7v0aYts3QXzMbn8Am9Ye79Hm3zj10Dz7KU/hprzRLwyWEBJXkyOS9s7RgchpXXpxtzAFREDvJ/2mPw51qOSfn+frNdcfI9FcR6hLcDIvlOO7sZQT81x+NaDx7oPawkh7v7o1NpgnfC4zn7ONh3eJPlXJ5rIEcgfLY5rBXshBIOwJzjkPDlyrsY8su5xTknwdGlk4Yf8Av7/0a6+X+I76xdxBYE/8PXH/ADW7/wDgVz24nx7qgccvfnH512PbfL7fxOq0bhIbTJHrBxvhuwmx8imrf3VHJFa/5184JvxGjNag04JOBjfYeHlQ+vHO/wCQ/hRZvRfb+JOg22WztuS3Qb/xe4/emajl4PbnldqT4C3uvjuYxyrVhOc7Y32q29wEB0nLnnjcAeW/P4Vr9Y9F9v4j2Zsc/Q1QoczqFPImC43784CFsfCqJ4BB/ncQ8jBefL/g5/hWFk4/IRgsSB3ZOKpmUk8yf5b0lqF2S+38Qsb8zZZOEREAetQLgczHefjptWO3uNVJuBojf8JhYDmVFwP+vAm/h3eYrBaqEmuGWZS7f1NKFdzsfWDOW4LwJQMFZ+LoCcANm5tXDAk405fTk4GVbwrauo7p5YJcQtxGJri0jQiWJIe3d31J9mqh0aLWO0+3U+zgey2rA1rrOQfqHo8cbl+MA+eLu3x8s1zbov0WmuG0QqWc7BRksT4AKCc/CuKE5VJR4apm6PQnTPrpiWwmswMIwmEKMR2qh00rJKAzaCzYZUByDvvhq9m9R9qFsLVQQcRICRuNQUax37hwwPgc18rukXRGaAZkTAzgsMkA/wBFsgFT5MBX1L9H1AOH25Heuo/6RJ1e7ff315mRUdmDOmipoxUcdSiuA5QlFElMBR4oUWaZqbTTioQgK0EqVO60LVbKYm54aDVM8NArOslVZY81Cmv8V4eCvKuBdYVthj3V6RvIxg+VcD6z7cdpUKjkvEIe6sV6tsfj+VbBxKPurFSx4U+4/kaIrOIdQz/3Tc/8yuR89GPxxXVun0mOE4P7TwAfCSQ/u/CuR9RS4luGPI2kyg+fa24P/XHzrp3Wy2LK0Tvd42/6Ex/9oV2cMerXYYr+Jf1Pp9G+nwTWSfp9x3r0ekBCcyBg/wDm4wfjsR7gK9O2gyBXnX0ZrT2c+AP4Z/lXo+0Xb6x8K+Rk/afpBrprhOMf6L/SeLD3dBhXpf17ltR4VOgqKKpK+ho6TJENItvQx0sVsEpNMDQk0i9CMM0jQhqfNAMacmhxQufwoCQUz0z0IqEDzRE0CUsVSjEUWaGnzQgSimVaVNpNCjtQkUsUtVAGq0LmkUpitCGJtjV2NKqRDFW46zRyonQ1NGtQxGrKUspLGlSHao0ap1NCj6KLTSAogvfUIJU8abFHozSVaEGAFCRSVQOdSKpqpgjRPl40xqZl/spBc/WB7qAiVfCpG+Z78+dEe/uzSRcZ2yfw953oCJ0qKWOrC/P8KglJOd/rwqgqOPPPd7/4VA+RzO/hVqR/w93M/nVdZBv+ePoVLATYG2ANtzzP499OD4AjwHMnzPnjyp1QDnv5DG/vPPapWl25gZ8ssdvwXG2KoogZB5Du8KF0OefLYd/yoiwwcDc93d+WacEgd42zjHce+qCLsu/J+IJz7q8afpDLcGXhXP7l/wB+BnVZDbGMc8++vZbMT3cq8Y/pDosy8J54Ivz4d9j+HKuTHyceTg07pP0cvrfh9vxOW9ghS9cx29sqLG6JbICG0xo7RwPPH2a7NI2o+yyhieJ36M8iySus+iJmkk09mHZm+zAUgZOSMHSM6ckCobXpZIuFdRIoJRWfJK+Kjny22BXGKxjhiWJJbUc47h3AgeIr0oTaXS+Dpvc23p10XlfiUkMW0jzlUbVowS2Q2rI04G+citF6QWssM0kLSEtC7x5SVmTIOlyjBsYfHtY58jnBr0L1k9E7We5muIuKWC9oysE9YIKnslVwHUMGXUGOoHvIxtmtJveqK306v1lYu5ONIuDgDH3mcpjflgaj7q43uzVHO+GTsyDOTg43JJ8eZJ8e7bapZfCtyh6vkRcevcPyST/wwD80Hz5cqqXPQbLuqXFtLp1MGgmSVWRSAZOYwiqTJITtDGkruVSKR1rdDps1G+vCcYGMYGwxjA8qwXEZNXvrp46nbl4WnjeEokcsrLrdZtMBi7RVjMX2kmicSokbMXSKcjeMK+hT8FhBB9bhIO+QJSfl2f54pDIpcMSxuPKNVZxyNVGlwduVbVccAgJH90x7430tjc4zuBjHPccqwTWMfLX3Zzg43bGPl7VcvUcdFCQ0ZTNTT8PA5Op2ztn+kRg5A3wNXuPvqM2233h9HH4UslECPRzOMjAwMDvzv3n41ERWf4f0DuJFDrGSp5Hu548Mdx+RrLmlybjBy4VmAdqasuei0vIgKdvvEJz3H3sc/Osnwvq3uJM6RFy2zc2ynOe4NKD8xVTvgjTXJquacCt+i6jL4/5JP95tf3TGsnB6PV/kYjj/AN5t8f8ArKrMmb60k/vD0eP/AITjI+V3b/xrZfRL4TPJfQRWvZl37JlLZWQTdusYbWoLIqTSwAuRpCFSN8k6t1v36DhPBbXtI2ntpeKmaNHDsi3E9tJAzAfdEgD6c89DHliuXcH6RtFnSSMgoxVmUsjY1Rvg4eNsDUjZBwNthWVJx4Ke0fSFt404cWZgJnQxsNi5TsTJIhJALLHIsZQncHHea9A+j0v97bbxKtnu3DlT+K18veJdJ5JwVZiEVWIUEkbLsPmBty+VfUvqFs2Th1uG5/an/Va4kKH3FSG9xrozVI54s6NHRx0AFS6a4TlYQo8UK0WaEC1UxFIGkWqgWKBjRLTGoUhYVCwqw6ionFAUrqLb6zXAOtBcy+7+Nd/vm2Jrz909kzKcVGVM5zxSGsLeR+y3kjH/AKBNbRxKGsPew+xJjujkPyQ1EaZ5u6oL/BkTv7KT5PLa/vi/Gui9Zt5rawi32CDHedIUZHn7R+dcj6rZ8Tkf0kx8mU/urp/S5s3tqp5Kqt4EciN/9WvV8Pj1eJY/S39jPo37n6O55ec0vtiezPRs4aBDnxz+LV3CNK5f6P8AaabUeap88ZrqsQ51+f8AhUnl12vzeedr6nL8TzdR7uHDDygv6IlFE1CtPqr6k80kWkx5UIpFqpAhSpqVUBsKRpjTA0KERQkU+aQoUQpLT01CCNMTSFKhB2NOppqdaFHpE0zUwNCD4pFaZqMCgBNMy0o6RaqDEQiryiq0KjFWkrJyInjSrKJ41BFVhBQ0iTRUmmo4zUwFSgEqUYSl3VIpqEB091OVomFGp+vrnQWQtB9d9Hox9fKiFMwogJk8v40IG9Ed6InFUyA0Hn9eNIRjup6cCoWyHs6je2+vCrgXfy2+vOqrOfxrRStJFvzAx5UOrkBjHw/hVhkwN9s+e/ntz+NQwflvnn7hj+NQDaRufr8KcW/ftny38+791HkDYfPmflypSHPc2B5/KiKRLGfDnzOdyPAeHvo2xzGBnxJZtvLGOW1IREbfn+OKkAO2cZ2x4DPj8KoImX8e8+Pw/HavGH6RUYk4R7uIZ8edht8P317abJOBjI2yOX8Pxrxn+kU4WSeEkn9u+Q4yd3WzbfzxHt5ZrlxupHFk4PGVhZKWRWcRoq9o5Y4UNISWYnGdkC4G58Ac16Y6peoCK5iEycK4nfxOBpuJOI23ArbHIyWsclreXFxqOymcRowwdK9/COjPCxJciJsFYEEpyAcyMQsZIwciMZYDxA8K+t9jZIiKiH7NFVEwABoVQE2Hs4CgAeWK3PJvSMQxWrZ88etf0foISqxC+sJ3JSKDirWU9rdSbsILPjPD1itY5yqEJBxG3tRKzLi4UgivPl7ZNGzI6lWRijqylXVlOllZSAVZSCpUgEEEEDFfX7pl0Ht7u3ltbpBLDMvZuhTJwfusrZykkZw8bghldVIIIBr5O9LYGSW4t5ZGlmtLmeyeRslpBayGFHYkkklUA3J5DeuXFO+TjyQo1to81snVV0uezu+1iZVcwzW51BHBSePRIpSQMjK6ZVlZSGUspBDEHX5BWzejRaSNxSKaLPawSoY9lO7BwdmBVvYVgA4I3GRVz28ckuaGB1NX5nWvR+6yDDxFijIyXEdykkSFTGolZZ3dIEOkaRDoULpwraQQNq6w36P7o4hKPxa+BXmTNwBVOD+z/djk5xt7x51L1h+mVJZXKQ3lxeyuuLnQsFlIo1rJDg5EYU6Wk9jIXdSQcLjzI/TDhQVVM18SqqufaPIADLA6c+JzXj6HHmhKXUn01Gr/AMV/1R6uty45xj08pu/sr7z0bfehF0UjI18au+44E3DC2+2B2UEwyM5IzsAeZxmpxD0L+igCsnGLyRTz0S2JKjHI6rKP2vdqG2PA15uk6acOO3b3Z3HNWOw5jc4BI2yDtU56c8NzhZbsjzLL+7evW948nY9Ew+hV0UkTMXG7lWHNJprFT35A02jHVtsD4jcUdv6F3RVyQOM3YYdzT8NXVvyTFtgkY3GxGRjVXnXgvFrK5kEcD3RkJwBrKj2jpG5xzJHf++uucM9H2WXA+1z/AM7/ALcflUcmglfBkrn0Uei6yhH4jxGNCxUSNLw4pgPoEmqK1kOhh9oMKX0YyqtlBgOB8NjsyYLUi6thd8Sgtp3VXaSKB5mhcsERWbTFnUETvISPOkZ5vRLum5liP+eJkfNT+ddj6CdB7+2tra31oFt2ufZLROTHcoylC4iOeanck7c85z4fiscmXEo4931fc1/Vo93wnLDDlcsmyca+1P7j5s8ftcQeI1Jg8xsrAjPjkjbyrUK+ovSHqNa97NOI9nPEJI5JQpMBfsIJY4hm3SBvZaXuYD2nPM7+MvSw6BWPDbprO1t2Qt2V32rTySaI5IinqkaPnKdorTmV3dyXCco8t62iytxqSadnm62K6+qL2OD4pUq9C+iB1GR8Snmknz2VunsqNi0rEAHPcI1IbluSuCNNd+c+lWzoRj1OjhEHApWxiNt+W2M+7OM/Cqk0BU4IIPgQQfka+kM3oRcIcklJiTzb1mYknxyzNk1q/Wb6ENmLC4a1M3rMMbTwBpDKGMS62gCtg/bIpRcMAHKHBAIPAsyOR4zwfZ3KgNkHJVgD5kYHuFfY3oBHizs8f5rbn5wIf318ZsV9nOgaYs7MeFpbf9nSmbsTGbAoosUAFS5rqnOgqcUCmj1UA+KWmktPmhRgaaiFC1DJE9RlqkxQOKAxPHJsKfdXAekzanPvruHSuXCmuF8RGWJ86yzSNX4nFWJv4/sZz4QTE/CFjWwcQiyaxvF4/wC5rvytbg/+jvvmiK3seQOqmPNwP9H94rqHSGLPE1HLTEP/AFbHHxJ+dc36nkzcfAf9auq8StM8XceCop+OFIHwO1e14V/9Rvyi39h9JrNv0brzy/ee7uqu20wRgbcvjhQK6HGfyrUuhlmFij92fxxy+FbfGK/OP0a97TTy/wAeWcvto87X7TUfJJEiijxtQJRjlX1p5YlNOFplp1oUdqY05FCDQBh6YNTZos0AJFPimxzog1QoxphSNFiqQQNDRZoaAdaJjTCnahB1FCacyUy0AWNqYGlqp2oUTGgowaErQhiojV1FqpAM1bjaociLMNWkFV0FTJRlLCcqlQVAjVZWgCUUaJQ4qRhUIxzz8ads00bU+PxoVDIlIGif8BTsPxqEYOP50ifL68aLT3U4Tv8AhzoyAR8j9GmX3b1I5wKdeVAQdmSaeNcchk+f13VMM48O7l9bU7HSMbg9+PDmM1DRQkt+88/r8KB08juM7DA276yDDv8AkB348fjUWjG7b+A7qoK/x9+O/wCP8KKVj3EcuWNv7aljgxud893IfQocf1fw2/nQpTSE+XxO2/hRpCc/njf3Crbr8+XIe7apQcbbitAiXI2xjvPf7s15n9Pvoc0nDra6UA+pXqyS7kt2V0nq+cDOf7o9XTAG2vJ2Br1AuQDtsd/M+Bqnxzo/HcRSwyqGimRo5FyfuOMEAjcEcwwIKtggggVU6dmZK1R8g7Hifq16GkOI50EeojCgjBjLHuHcTyGrJwAce6+ov0n4FgS1vmMTwgJHPgvHIi4Eay6csjoMKHwVZQCxVsl9L67PQ7YiRre3ee3Ua2WEa5otX3nigy001uWy5jhDvaklNBgSGRuAQ9Q/FoPYtyblNIMYVDKQpIA1ewfu6gCgcEZGw5VnIup9UeTkxySXTJbHu/pp6UXCrSJ5jcrMFUt2cH20j4GQgO0SFj7IMjoBkc+VfMS74qbmS6vHGhru5nuiuc6TPK0uM7ZwWxnA5cq3/iXo9cTkcC7BwPa7MKY1HvGBk7jxO/PeouIdWMqqwK40bY7/AA5fhXbwqueTq5nfHBz6QbfDfai6AX0saX8kLMkqiEo6HS6szOMqwwQcE71m7/ojImM9/IHYkVnPR56B+ty3tsxKq72ys6/eVdUxyMgj9nwrlm6X58zggtzl11JcTFpJ3eWUjTqlkLsQPujWxJAG+ByG9YtLVyjYG+eWe6va116GFsw9m7ug3M5FuR4DH2K+z45Oee9eZejHQkTXM9sWZDDHeyZGGLeoLIzLjA2fsjk93nWVk2s5VilKSjHlul82c5miYKu2+d6CdyCu3dvXV+I9UwWF5BKfZ7MYKrv2sqxDfuwWz8KynVp6MrX+srcdnocp/ihJuqq2fvp/SxjyrGfU49Ppnq8rrCnTl2t7Vtv9hzZtFmxaj9VnGsqV9O3FX8jkNnx2W3dZISUcMHDAAkFTqU4IIOCM4IIr156F/WtfXl263UvaR9m+kGKJDrGDkGONNgPhv41rI9CebUV9djPmbVtvh6xv8xXpL0afR+HC45WkkWaaVgA4jMYSMAEIFLybs+WLZGQEGNiTl5o5IqUd06afoziUHF0zsscWKRiqTRUvY11zlKhSvnT+kET++8fnY25/87OP3V9Iexr5yfpDF/vun/Mbf8ZJ67GH4jhycHmGvSvoedaa2TSBsldeqVRuzRSKqsyDO7RPGr478gZGrI80Zq5wjizwuJI20svL48wRyII2INdnLDrjS5OPHJRlb4PshwPjUNwgkgkSWM8mQ5+BHNWHerAMDzArR+ujrmt+HW8pLq1wY37OEHURlSO1mAzoiTc+1gyEBVySSvzw4b14aQdURDEc45SgJ8xjOP8AWbFan0s6fyXA04EaZyVBJLEci7HBbHMDAGd8EgY86GLK3UlS8zuzljStOzWooiSAASScAAZJJ2AAG5JOwAr7V8Ksezjjj/4uKOL/AMnGqfhpr51+hT6P8l5dx38yEWdnIJVLBgLi4jOqKKPcZSGQLLK3tLhFjIPanT9HlNdvNLsdTGiRVo2FCo2olWuucrCRqamAoqCwhTmklIUKIUOaI1G9AAU+VCzVLmoXNCGm9OZsIfr3VxaY7mus9Ykns48a5P2fOssqMRcxUE9lm3vAOZtLkfO3ernZZzWX6PWmtJ1x96GVf9qJx+OaiK+Dwn1QbXAPdjPyau4y2OeNsO4mEfDWMZ95/CuH9WM4EkfjmQH3Ds2H5mvSBsT+u0J/aWBifHDsc+e+DXpaOfRqskv/AGp/Yj6bULr/AEfivLMv8y/E9q8As9Mad/sr/Gs/Gax9ouFUeCj8hVyDlXxP6OQ6PDsXqm/rk2eRrneaRaQUVOEpGvpTzxwabO9LNI0AiaSUn/OnzVAyCnpiafFQqEq07UgabTQoxFFmmUURqCgC1OKGjFUggKcUAFE7UANGVoMVKpqogFOaSpTgbUoCpMKZjT5rIMRAKuJVG3q7EaGyzHmrUDVVjXuqzCaFLKrUqZqKOSphWQGpqbNRqP4mjHjQo4buotWaAEUaN8/nUsDN3VIrUBbn40WTiqRjtt5n8KbR9fupaaPP17qEBkTu7+VC5xyo1o1X3bc6FAQeOTRLGPr65UXOkvI+H1tQoLoTjw5Z8ceHlTRxjIzyA95qVvHw2+vKnRhtz+G31igAaMnJPyJ28Me/3UhGMZJJ+GfcM1JM3xPL3fXcKMRcvy/DJ8KFK/w8e/f3mi7PYY9/h/OrDD4+7agaPv5eHj8aoshQd248frupGMbbYH5mpm25fhzPvqAn5/l/OgHZ99jgjvBwR7iMEEeINWWvXIx2rkHIOpYpSdu9po5WzjvJ8aroO7Tn68aBhnbYeXL5+FQGP4xwQTbSYYYA2t7FfZAbC5FpnA1tgdxY8s1oV76P9gyKrQrpTIXKQhwGbUQZREJWGeSsxVRsAAa6Yzd35edVrkke7u+NVOiPc4nxX0TeESbmB84wcXEi58cacAHnviqXRrqIseHySvZxFWkAVtcjyEgA4++diupsEY5t412y5l2Pf37Zz/Ota4ohO+M55d/Mcia1dmaRo8sgXIOQeXLbOeRHh3V4G4hB2HGJV5a5eKxHuOmdZzGD7xKo25j4V79um3I5HfI25+G/MeANeDOuC0I4w3PPrmQfFZrOJ8/gcitN+6/k/wCh2tHHq1OJf34f5kbNx2PFtIfA22f96jrr/oh8NzbTSkffuJce5CIyf9pWFcn6cRabC5f+i1mP9q6Q/ur0l1F9GzbWEcZGMR62/wBOQmR/+k5r5T9Jc3V4Pg0Ufiy5/sVfe0fV+J478b1GZ8RxxX0uKNpsI9TnzP7/AN1dFhgAArTeittls45Vu6qK+lhHpSiuEq+o+Mk7dgBfKkakNMa5TJGa4D15+iPb8XuhdS3M8LCFINMaRsmImdlY6xnJ7Q53xsK78TQGqrXBlpPk8cP+jfte6/uPjBEfyIqtL+jdg7uIy/G2jP5SCvZpoAv8611y8zHQjxdJ+jaj7uJP8bNT+VwM/hWd6Ffo7rKJw93dTXYBz2aILSJvASFZJZiPHs5YidtxuD62C0OKvXLzHQilwnhccMaRRIkUUahI441CRoo5KqrgAd/mSSckk1cplFGorBolSjUVEBRrQBKKfFKnU0JQ+KZafvp6CgS9CRRtQmhQRUbCpRyqCZqlg5r1hNXN+xNdJ6eJmucSDmKjBSij58q2ToDCC5B5Hb/a2P51iLZc5rO9C9pPj++omXsfO/o3D2Nx2RPtRzSxH8FOfjHyr1iIAeIcPl/4yGHfnvoDY+bH8a809ZnDTBxbiCHYpfSyDw0vcMVP+xKpr090Ul7ReGSc9EghPuEhVfw0/Cufq6M1/wAUJx+uLPq9GvbeDZ8feOSMv+qL+5nsOyclR5bfIVbiNUrEezVuIfOvnfBNtDh/kR89qv7WXzLyGnIpoqIivdOoId1JqRNC/hUAWaFP5URoSaAkBps01Of50KPqoNdE1MBULYgKRFOWoWoQKkDQIaKhBIKQNItTCqUJ6MGhY0IagJEbahzSFOq0IILSXlTimzQGIgq2lU7erkIrJstg1YQ1ViqzGaMpZhNSqf4VDEKnAqCyRTUq/h+JqFPwqwtAOEogvwpgdqcmoiiVffinNFpoD++hAwn8qSilo+vyqQDc9+KooBY/OjQZ9w/Hv/lQqdqJG+VCjqM4325n+A76dH5D4+8/yooxt9cu+kvgD5E/uoUYJz8uf1+FFGMbnG/IfxxRMuOY5+f4miVD4YAPx8qAERnyzzPh5UMnLJPPfu7/AN2KN13xsf5UbnO57yTjGBjuxjx+FCgJGD8ds58KGQ7+IHI93gPfvRlds/DHL3Yx+NDnxwcDlnby+VCASXG+/OhcHHv/AA99GZDQse8+HjmgF2Xnz/dUbN/bjejjXJwD5+FNPGB3/htn99AV1P8APuz5ULPjly89/dvU5c499QuCNvjj93nQFYDw559/wrEcSjGCPwrJN8hVK4bmPhQHN+MxANjA32BO3LmK8ddd/BP77qcbBYpj5+xNb5+Ua+f4V7K6RW+GO+fh48j4CvP/AF19Hh6zazDcMjwue8HXHIg8cEdrjwOd6xllUGer4PDq12FP+NP6tzWv+5g3NrJCB/jLuyU/6EdzE8vuxHqr1DfRhIQvLYCuQdSFpqTPc07t8E0qPxH410vpDxYNI8Y/yejPvdS2D/q4Pxr4bJ1arxfBh/cwxeR+jfH29J73jGRRnqMnec+n6I7fczYuhabN51tTCta6FL7BPnWy5r7+z4kEGkRTmgLUICwoM07tQsKpkDFJTT5ocVSi1UVMq0QqkBGKOmAoloBKaJaalmoAgKc0xNORQDg09OKYUAxpE0GKQowNioZuVSutRSjasg5/0xTNc0u4966n0kj51zjjMODmoyoqWkfyrL9FyBJVCxGQat8DbEgqUU8meltwDs+NTkZPrdpHcDlsyRaNvIyWm/fkmuj9SPFA8EYztHNFJ8GZCT/5s/Op/Tp4Pobhd9jCo72srDc6dSzRjGNxp9ZyM/Dc1ovUTxMRvJCTnSzxe/s3IB+IBI99TVOlCfkz679GWsjz6V/vwdfNf+T6K28WFFGp5VFZtlB7gfmAak5V5HgyrRYl5Rr6m0fO6yPTmkn5l2I1KRUFs+1WCK9tHSGFMTTg00hoQTmkf5UqcigCYUJNETQqKgGJ7qJRQk04NZsCxQkURoapQqcCm002aoocikBQk0RoGEabTQLRg0AlFSBqjLU/OgCzTEcqVM1UUYW2xV6GqMbfGrkdYZtF2M1OlV4TVhHoWi2iVMtVkBxU8Z2qEJieQqZUqFTj31KFqEDxUi1Eo+FSolUBNTIlMadB4fOhoKQfDFOi/X8ffRrypBNsfM0BHH3d3fUjnupAeH5UXZjbxznyoUER7+OB+dKDfHx/H9/Op0Xb8ajQf2fuoB3YeG/nTseX18qNUp9H19edAMqd+Nvx7qYtn9w8KTt3938Kd5dsfH50AiD34FIYO+MAeWCx8TSyCPPvNLwyfgPLlmgIuzy3LbP4U5HvqVbjnUDp7/zNACW8NhTYPPw7qkHmP7KErvgA+Pnjn+W9AQRr3b+e4/f31Hnn8edSSPufl9fChc7b+PL63oQpTLnc/wAMVRuY6yU/fz5beXvqtP8APxHw5ihTnHSU4LY8Nzy+fjXFut2b2Is4x24PLBHsOdvL9+K7d07hxht9+7xBO/xB/CuCddTERJz/AMbgeXsN/GuHN8DPX8IdazE/X7mWPRZumkgkYj2UkcL/AKwV2+GT+dX+hfGu2mv3BODeMgPlDGsIx5exke+m6hgIOFiTGPYkmPwLE/gorWPR3kY27ljlmkDN72hQnY/1ia+d/RvF7bNr9W+0seNfL3m/8sTXj+X9tjxru5yf2fiz0r0QX7PPiazgNYbooPsh7zWZxX1bPCHBqN2osULihSJlpZosUBqmQM0iabs6WapAi2KYtSIp8UA5osUNSE0Awo9NNRYoBGkDSxTgUAlohTBaeoUDFI05pmqEBqGU86mNRMlAahx6Ln9e+ufcetq6TxuGtL4vBzo0U1iwHP509o+JB76K1TDEGoZ2w4rBSr6VfRP1rgdxgZe3Md6vkICRMc+VvJL8q8idWvHj6xFIWyZo0cn+vEewkzy9omMP7nFfRLhVgk8LwyDKTRtC4O4KSoY3B8fZY18w7bh72d1LbSH27S5khPMZGsxOyg/slo0YeIfPv5Jx68Monq+D6j9W1+LI+Lp/J7fefVDq84v2ttG+d+zVT70Gg/PFbHnauQejdx3tLZlz93S3wcfvKtXXw21eb4fDoxdPk5fa2zs+OYfZa7JHtd/WrLVmNqsVBbjapwK9NHgCxSNI0gaAanzQlqLTWSDBqcDvpiKSihQVNHmgJ5UeKhBjSpBqVSiiFI0iabNU0KkBTUeKEHpBaGnxVFhCnjodVPQyFpplFJTT1qgYK2Srsa1QhbFXoq4jZeWijNRxHuqTFVlLcbVZQVUiq0pqFJ7cfIVIX3qKM1YIqEEBUgPdQLRDxqALNHH+dABUhPdWgLSPl31MD4/AUB91Jeef7KFDVCRikcbfQpHw+dFjYUIhyM/KnAz3YHL5d/76RH5UgfnVDEWHy2qRhty2+udRb7UUj/LuoUeRRt5D8800pzn3DPwpY+u8kmiuOeB7s/xqFHB2wNvyqN48n99F2mKjZtvM8sZ8e+gGY+H176Z2z44H1iiZdgdt/wB1MM4yOVCDW/Md+P45pSxEb9/jQm4542zRXA5fKgI5eY8frNRyr3nc55juFTMuP4fvqu5/mKgK8i/XjmqsvPwq1cr4fXlVWQeI8ahTR+m8Ps77kNt+/wB4xXAuuNc24XGdMyHPkcr8c669AdNo8fAH8a4Z1iWpaFxvn2X5f0XVv3VxZfhfyPR0EujUQl6og6Tp6vwGYDY+pmLPI6pY+yz78v8AOsT1CQ4t3/5XP/mkP18u6r3pIyFOEEDbVLap4betRZHxAql1Dj+52/5U/wDq0/nXnfofC/Bs+f8Aj1L+yMfxOr41NvXxXlD+rZ6O6Kj7Me81mBWE6Kt9n8azeK9s6o2aF6LFMxoQhkoDUzGgIoQChLUTLQqNqqFDinpjRKtUglqSgxRrUKFikBT09UgxFPinxTA0AQpUhSU0KLFRSVLio5BUZBEUBoqDFQGD4tB31qPEIedb1xNdq1G8jxmqwaHdRkNVXiI3BrK8bjxWNuj7IrjZpG/dCrrIG9eJ/Tr6Gm14qt0owl/Arse4zQ6Yphju2WCQkcy588+v+gt3/CtI9OnoJ61wgzqMvYyrcbDJ7KTEM48gNUcreUfLw58T3oxPbdcmB9D/AKU6hGM7OpTn3jEg/wDbAr1gDn+yvnZ6HXSjS5Qn7jRyjyVX0v8AhI3y99fRCF66cI9EnH1PqvGsi1Cw6pfvwSf80dmXYRUwqKKjSuyfMMd6fTTEU4qmRR0WaZBTZqMo2mnIptNOTWSAp4Us0WKGpRRBac0g1MTRgZmpCkBSFUo5olWmpYqkQWmnoc0WqhRIaJVpgKBIcb0IGKUmadDS1UIa/APGr6tWNt/GskhrBtMtQD6/KrBqvDVvTVKh4jV5G2qmiVPGahSzGasVBF+NTE91QBr9fzqSMUAFGjVAO5qVTtQDajB2qgdTThu+mTlUkY2rQBVPxNSMO4d3fT0P1ilGQkapAmBk7k8v51Gm38P41PD796Aj0Z3PwH13UBTl9cqnVeXuPu+sULx8hSjQBk7+/u/dSUZI7vOikXc92KjFQEgiG+Tt/Dl86jVd96NT+40M0ufr8ahSFj9d29SBSAQaYvQOdz5nNEBkTn/DNBNzON6J5CNvGiZSBnmD8xVI2RBfPFMVOc/W3vopOQqOY5/LyoQgnYcxVWc+dWnfbYd29VHaho1PpZESv19eFcl41DkOrDnkeOxGK7T0gi2PgB9GuS8YTDfHv8K4Z/C16M58bqSZoHpUN/epP+WtSfcJ0JH4fnWN6j5PsXA2+0BPxiT+BrJelFg8LHlNbH5Tx/nnFaZ1F8aAuJoD3xJKo/0NKNj39ovyrqfoWr/R2S8tRP8ApA6/i7/9fH+RfeeruiTfZ/E1nM1r3Q8+x8a2HNeoYQNJqTCmahQHFBpqQUJNDIJahB/jTqKYrVKMGoxTaaJVzSxQj3Y8KMCkFp1oQIGnBpgKWKAfFI0qQNQCFLNIU9AIUzLT5p8VSERFM1E1PioCjdx1qvE4q3GWte4xB30BoHSC3rWjJ7OK3LjS7GtIbYtWWVGZ6G3OG+NdXveDJcwSQSDMdxE8Dg96TIUb8Gz764nwS5xIDn6767dwGbKg+FE6DR8w+p5XsOLPaSnDLLNZSdy6lLR537iyjT/pDyr6e9Fb3tIIpO8oufeBhs/62a+e3pkdGjb8dM6Aj1hYrlT3GaIBWAABO7RIx8WkJzzx7Z6gOkAnso2ByN/f7R1gfAOBVy11KS7o9THPr0TxvnHNNfKdp/al9Z1SMUVCKLNaR5Y4NOaGOnNUg60mFMDS1Vk0MaWKRp6FG00ytS1UxNZA+aZmpqFloZDanAoc0TNVNCpAUgafNUyGKYLQlqJmxVFiRqOQUCjNEj0KODtTMKWKbtBUMmvwjbFX0Oaw0I3BPd+dZiFu+sM0i3Au9WwapxVcU1SlhfrzqZFxUKfj3VPGaholBxVpDVdWHxqRRWSkw5UaChQ7U5b+NaAejejLeFRqc86lSoZocnajI5UMfKnPjzrQDK/jtT/Qp0+v5UlPf4fQqkGI3Oakztjl9d9NGvOi1ZP40BJ2RwO4D+2gVPz/AHUUs21ONt/GoBmlB+vmaAt9fCiQc/hQlRnHz+vKoaI3WmV8Z935nl8KIvvigVOdQWOgB58vrAphIO7l3+NJ27vd9e6o2bA7udUDOpIJ7qjJ5n8KlZsAgczv8OdBIox50JyRrnl3/XKmY92/8xRkge+o58DG/n8TQpWlPP6/CqcnjU9w9V5D/KoUpcUTINcj4/Dhj57H4V2G73Fcw6X23tZ8zWWbTo5N6S0eeFN5PE3+zPGe73d9cF6B9Juy4ta527ZHib3PHsB/+dEY+hXfPSA34XceSg/J1NeOel3GTBd2M39ALL/sSB8ef3BXF+hsOnwbU4/4dRP/AE/gdXxh/wDrcb88a/qz6ZdCm9g++tmVq0zoJeZXbkQD863IGu6zSHpGmFImsmhjQ4p9VJaAFqTPTNSK0A+aeNqTGmVapGSUgaDFGTRAcCn1UxFEBSyiFPTCnFQyOBTU6vSC0KMDSIpU4ojILLQmiNDigImrGcWjyKyjCqd2mRQlmg8Zg2Nc4v5cE++un9I4yAfjXKOMvucVJGgYbrBB867Z0NusoPlXATdV2Lq0v8x+41xlR5j9P6DTNaTge1G5xzwdo3wfeVH411z0KOMq9vcRq2pY5Bo/0JAXj/6BUfCuc+nSoaOP/T8PGPOfd7P1iqn6O/jB9YvYSdhDC6j3MyE/AaBUwe/jvylL+pzxydDlHtKNfbf3HuhKZTToadRXOdccNvT4ptNOy04ILFCaTUy86WaoYNRsaDTT5rJRMKY01LNEByKHVTkUymlEHjWnK02KYU4KFmkTTBaWKpkJKI0MRp0/KqWg1Jp8b/uoI/GnB76hB3NOwoc0udSymt2q1koVrFWpNZS3FSgi5C1WozVNDtirEJqUassxt+FWlfeqlvVmJ6AsA1Mp+vKoFqePxrJSxG1LVUUfKpQaoDC1MF/Cgi/OiR96oHRPGnc/yodWalWqSwlOKLVtigokOPyoQJn29+3ypah8PrnUecn51KX/AAPzqgHH8aMtn4Ck53qLXWQTmTNQs/ePdT6sUQcbe/4UBHGe+kr/AI99EjDO9Ar7fHNDRGwoRvgVMxzQE8vKgAZO74VGhxUinbPnQIdjQlgSNVeY/XuqUioJUxQpBJUDrUhNRSigK8r1pHTC22z8a3WUVrnSqPK/XyrDNI4L1378Pul/8C5/2VJrw91tSY9Vf+rv8HPLyK17w6wbfXbzR9xRx80I2rwR1opm3tG/qkfia736O4vZabXQ7e2jJf44/imdHxJ9WfC/7rX1P/c+gvUB0gMllaSE+00Khv8ASQaG/FTXaY2yBXk/0PeO6+HJvkxyOh8tREwH/nTj3V6ospcqK4ZKmc8eC6tMaEGirJsWaYmkRTUA9IGkTSJoAiKYUyUYFACBR6abFPQgQFPilSq0Bs05FIU4qAcUwow1BihBU1PilQgxNCaLNA7UBHJVaep3OKgmNUlGl9MNgT5Vxri0+9dg6eS4UmuFcWv+dYNIrS3YrpfVJxbIceB+vzrhHGOOgZGa6X6Pd2WMvwNYkyo1H0u7kFoVO2XYHv5Q4/fWtegyxXipAxiXhzMw22MVxCoIPh7Te+sD6W/SvVdhFP3NR+e2/wAvhWz+g1aluIo+No+HOje+e4jZfgdBx/Pbenj04d+7k/rbJk+I97mnBpjSWuRALFJKZqYLWSiajC0BoVegHZqZRRClioUAURNCop6gHJoRTPSzQDk0S0KrSBoB8U2aq3/EQmM53ONhn51YjNUEwp0NAhojz2rYFijU91IUGuoQJFokFMKWN6hTVbc1ftz9flWNjNZO1b4/W1ZIi/iplquhq0GqGiyrVLHUAPzqWM71ClyM1OG+vryquGog9UjZZDZqQVBD9e+plqUVBhvlU0bCoMUfafXuqkZNGfr86kdvx2qs771I22PGhklX8tvnSWgVaMNQoadwo1H4VFmiFAGWqFVqQGmZ96AYUqMrScfKhoBf3Cnj7/L6NGmP3VHHNjNQjAU99RSN86l/LFQMtUBs3s8/dVfNGw+vdUZfFUgLn4VCXpO2aiagBeoZRUoNQymhbK89YPjqZQ1nHHfWOv48ioaOKdIYvvL7/wARXgvrB4UfVQvfDLKhHeBG2P3H8a+gvSq23PnXi7p/Zqr3cZHK4d+X7Mupm+BLg58q93wiPuaiK5cYv/lv8TztXJLJjk/Nr6zdvQY45mK6i/otFIPjrRvwEf0a9rcEuNq+dnoUcc7O+eInAljdMd2RpcH5xkfGvoHwaQ8q8nLyd+Efds2dRR1DFR5riQokxTYpBqbNAEpFJjUamjxVISUs0I/On1VLA4NImkrd9IVQEDRA0yikKlkHLU6imxTmqgOTTGlTGtGRZpjSpi1QCqORvzog1QTSbUojE5qlPcYBp5Zfr3VgOP8AFwooU0/rBv8AKkZ8TXnzpf0gCjY71v8A1mdLdIIzXnPpBxgsTWTSBm4jqbNehPR9m0RTynYKv/VFeaLHciup9K+mwsOFMoOJbjOB34O3vrhcXJ9KLdbnnbre6Ves3s7g5BbQvuBx/GvZ3oDdGcJdXWNnaK2jPiluntEbnA7RypHinux4L6H8CkuZ44oxqkkcIg8WbvPkoy7HuCk19dep7oEtjZW9uv8Ak0AJxgs3NnbzdiWPvruTSglA44vq3N3zTyGmLUtdcaNiam1Us0INQgXdQk0WKbNCi7vOmLUqdjWSiLUmpAUjSwMabFOpptNVECYUOKImgBoUGWMHmM0YFKixVIEx76Q8aEtRVbFDYo8cqWabnRlH0b0Z50lNMBv9fOspg1K3lrI2wHzrD20n86yNs1AZJBjarkTbYqlE1WEeowXA9SiqyP41OlRFZaQbVKFHwqvGalDUIWB3VOrVVWpY33oETq34UUa8z8qiQ/jUgaqUlj5ijc/hUAqRqgokDb5o4zzNRRbnepE50BIppA1CD+FSOaEofVRGosU6PQ0WlnzUBXzoA1OwoCR1xvUbNih1UnnoZCV6rlqeVqAmgIyaFzTuahehBnFA9OzUBFUpGTULCpGNDIaAruaqSrV1xVWUVDRzTptZc/LevIHXbwfFzLgHEsAYf6UerVj/AFQm9e3+ltlkfX415b68+FaeylA+6xjPubx8iQB8a9vwjIo6jpfEk4/Wjz9dG8fUuU0zyN1PcZMXEInBx9r/ANZtOP8ApV9POjXEA6K4/aAP8fxzXyokiNveEHnHL+Ryp/I+dfSLqb6QCSEAHuDjv2YZ28g2a83Vx9nl6T3tJH22kc1zGS+qS/FHaLOXarC1irGbl9fCsmK69nTaDoqAmlpqswEFolFDRA0IEBSdNsU+abFUCQUVKi00AqekKY0As0gaEmnoZHps0LSUDy0shIzVE0tAZaieQVoEkj1WmnAqC84gqjc4rS+PdMBjANAZ7i/G1VTv9eVcr6VdLM5JNUuO9I85JNcd6c9OBuoNQGE6edJNbEZrnF5Pk0fE+J5Oc71gL3jipux+HfSjaNq4RcKntucKNzXPesPptJeygDOhfZVRuABsNvrJqOe/luiEUELnkO/+P5CvUfo0ei6HZZ5lyqnIyNifLx82+AxvU61i3fxeR2cWknnXXxjXMn/RepsvoYejuYAL24XEjLiJSPuI25Y/15Nt+5dhzbPsqLliqnD+HBFVVAAAA+VXQKym3uzhkop1HganBoQaWqto4x6cmhNImoBhSFJjTYoQRFImkaYVDQS0mFDRFqySwVFOTTIaKtChs0gtNTg0A6mnFMacUKEaY0lp2NaA60RHfQvTGoA3HfTZp3agzQjNKtRWTiesVaDxrIK1QpftzV9XrHRPy8auQEUBdU9/wqdDtVZXqZD/ABqAsx1Zj5eQqoG+vzqZW+VQFkHaiU0CNtTqtAWYDUiiq0ZqSNqBInFEv5VEx76NT+NDRMfGkZKhVqJjQhLG22PnTq/8BUKrRFqFskJpzUbUwagJUbnRaqgJoiaFCDc6BjTq1RtQyxpKBmp9VRu1WiCY1CxomNAWpQBY01ImmJowA9RPUlRGgAaoJFqdjULmlFRieKQZU1wXrf6N9pDIo5kEjw1Lup+YFehZlrn3TLhWQwxzFcuHI8c1JdmmYyR6otHy+63rDTcJL/xigt/pxnQ3/RCH3k16k9GDpjmONSfunszv3McL8mA/2q4d6SnR0wuVI2161Pk+dQ/2sfKrPo59JtMmgn73wGTjf4MM13/GUnNZI8On9Z7H6L1N5NNL96DX0rg+jHDptgaz0Uma0bohxTXGreI5eY2YfOtrtJsHHdXkRex08sHFtPlbGUQ07LQIakRq5DriFEtNTgVTIRpCmp9VAPmnzQUdCMcU2aHVQyPUARaheXFRF6heWtECeWg7XeoWkxVC+4sFG5HzogX5bgCsDxbpKq5Ga1rjfTE74rSuI8XJ5mlijOcc6VFu+tH470kVQSTvWA6T9OFjBwd64t0p6bs5O+1ErM8G0dLusknIB2rlHHOkGckmsRxvpFjJJrROJcVZz5eFdiGOzjbM5xLpX/R3NQ9HOjkly42JGefdVHgnCwXXX93IzXur0Wery1lyQNTRBTggafazg+Z2rq6rP7FdMFcmfQeF6PDkTz6mSUI/u95f7EPUN6NZOmWZcLsQCPab3/0V8ts+VevuE8JWNQqgADbw5VNZ2gUYG1WFrqYsb+KXJddr/bvpgunGuIrgErRihBpBq7Z4whT4oAadjQyxzSApw1ATQo6ikaVMTQMQpCkKYtQg+qkDmmNLTUYQ7U4psU5pZodqYihp1FVgKlilTVLAWaILUefr3UQaqA9VIU2aSmqBKaWKZ1pPUBocEv8AGslE+/131iIZKyMbfL8aEMkm1X4UrGQt9fvq7bc8VkpfWp4z3VVR/wAKlQ0BcQ1OpqlE9WQ34UBMjVOJKrRtRaqWC2lJTUIlqVWoOCYDuqQVArUavQEyvRK1QFqNGoWiXVRGo9dLVQUGaSmg1UtfdQoeaWugDU2vagDzTMaBjQF6oHJqJjRM9MWojILPUZNOaEmqQVDTlqEmoUTLULVIzULigI81CwqWo2FQ0VpFrX+klpkVsLrWO4pFlTVQPE/pd9BDLbmZR7UR1Hbmnf8AEc/dmvLHVhxPRKN8b/l7X8RX0i6dcAWRHRhkMCCPIgivnB0i6PNY3zxNyV9QPPUmc/ln+Vd3LL2uDp7pG9Bl/VdXDKuL3+8+gnU10gEkXPmBIPyf8d/jXXUavJfUf0l7JwpOykOPONxv+BBx5V6utpdufPcHxFeJgyWqZ9R45pljze0j8M918+5lrW4+v31cArCh6u2174+6u8j5Vou6t6NGqENncURFDLJS9CpxUZak7VSUTk0/a1W7SmeWtURk7yVA8tQvN8qryXYFQhbeQVRub8Ad1YbinSULkZrR+L9JS1LLZtXF+loHI1pHFOPlu+sLc8R5k1qPSDpaqDnS7JwZ7ifHQoyTXL+lvWNzCn41q3SfpszkjO1aHxLiRrSRmy/x3pGWySa0Lj3SMDkcmqvSDpJjKqcnxrW4LVnO9dqEO7OKTGeRnPjWSs+E+WTWR4RwbJwK9SdQ/ovPOVluVKx7EIdmbzfwX+rzPfSc6EY2aB1IejzNfMrkFIQd3I5+SZ5+bch517+6uOreKzQLEuNtz3sccye+sz0a6LRwIERQoGAAAAAByrOKtdJ+87Z2VsLTTrSB50mWqBZpYpUQ5UABpGlqpqyByKY0qdatkHxQYpyaQNQCIpYp80OKIg9MaImoy1AEafFKjoaAxTE0s0hUARNIUyvSJoVBMKaNqNlqI1QyUNTGmNMTVIEWoStIGhLU7kZz+M1fgrHQGryNUCMlHNVmJvP31Siq3bioUvwcqtIaoW7VcjkoCzGasqaqI1TxNUBOookbao0kowaoJo2qRDVdSKNaMFgtRpJVcHlRqaAsO9INUKmjBq0CZJKcPURai11DQZNPqqIGn10AYkpgaDFEWoQLXQGgZqReqLHY0GaRehoUehzSLUwoZEaACic0OKhaBkNC1O9ATQghQMKKhahSGVaqTpkYq44qCRaos0Lj/Dxv9bV4t9MfoDpEV4o/xTdnJ5o7eyTt3OQP9c+Fe8OPWe2a5R1kdDUureWFxlZEZDtuNQwGX+sp3B8RXJCVGJqzx/1V9MchCDl4fZPi0R2XPjgHBr2z1dcfEkKrkZTHxUjKnx8vhXzPgSazneNhh4HMMg5EjV7Lb81PcfBlr131GdPcrG4PLCnfmpP5q35mvL1sP1de1juj7XQz/wCI6N4Jf2uPePqvzt9R6pqMNQ8OuNQo2rmwZY5IqUXsz5XJBxdPksRXuKux3WawLUu2Irto4DYDIKZpawacQxRrxSqiGYMlV5ZvOsbPxoAVrPFelfcPzq8ENj4hxoLvmtR4x0szsK16+4uW7/ryrDy3vn9e+sNkot3/ABQk5z41hr7i4AyT+6sPxrpUqD8q5Z0j6ZM2QDtURGbR0p6ejcKa5bxfj7OedVriZmqjeusY1OcD8/d41yxRxtkF5PsSdhzNc+6SdKdWVTl4+NR9JOlTSnSmy/iffVPhvCe812oxrdnE3ZXsuGk7mtw6O9GHldURCxY4CqCWJPhWwdXnVhNeSrHEpJOMn9hB4u3d5Dma93dTPo9w2ShiNcpHtORv7l/oqPAc+8msTydkbUTQeob0XVi0TXIDSc1TmqY37/vN58h3eNepuH8NVBgDGKnt7cAYA5VNXXZz0JVohTCnBrJRA0JojQ0A5NMaVMTQDmnzQsKZRUsCU0WKalQCYUwakDSIpYGY0sUwNOnfQyEWoTTmhBqAd80kkpwaZedDQWKRFAG3osUA6ikvfTLT5oUKmAoZKMGtEGc0DKKI0qhRsUzcqEtRYojLObWprIxPWKhbuq7E1GUykMlXkl7qxERrJRCgL8NWYjVCBquRy07AvgUaNUET1KDUBajanQ1Cr0avQE6yUZNRZ3ow1DRLThqiV6c0BOppw9Qmnq2RlhJNqLNQ5p9VQqJgaeo80OaAnD0JagDU1QEmaDNDqpE1QOTTE0i9BVIItSDUIpxUII0g1NqpxQqQiaBxTmgNALNMafFMwoQiYVE61OxqORaoMfdQZFafxPh+Ca3l0rDcTsMjbnVQPCfpj9VQjdOIovsNpguguBgN7McvduDhM77mPlg1znqo6UmCbsWxtjkfZdSuQw/00IPkcjmDXvvpR0cSeKSGVdSSK0bKeRVhg/MHn3V83usroNNw27MLEnQddtKcfaw5yFJGAXQ7MMjBzth1NcjissHCR3fD9W9HqI5Vxw/k+T6CdX3SjWoGfaUAj+smMqc+ONq6LG+oZFeOuqPrD1pGyncDln/bj+e6/wA69RdF+kiugYHmNx+/+Nfn8M8vDdS8eT+xk9n5M+u8W0MZpZ8Xwy3MxMpqq71ZuLrbyrCX3EcCvtYZFJWnsfFSjRbknxWIveNgbDnWKvuIk+VYmeQ8/jXNZxtFq/4yT37ViLm4oLi4HurUeP8AS5V2BzU5MvYzd9xUKNzWg9Iem+MhTWscc6TM5Iz9ZrAMhY1oxdi4jxZnO+apx2Zatg4f0aJGo4VRzZjhR55NaP0660Y4AY7b2n5GQjb/AFB3e8/IVtRbMt0WOkvGo7ZTqI142QYJ8ifAfjXHON8fkuGyTt3AchUM7vMxZySTvuc/jWx9GOhskrBERmJ5KoJY+4fvrspKHzOOrMdwrgZGNsk/vrunU91ATXzBsFIe+Qj7w8Iwef8Apch58q7D1M+iicJJdgHkRFzA8pD+0f6o28zXq3gfR1IlCqoAAwAByHu8q4ZZLOVQo1rq36qobOMJGgHieZJ8WJ3LHxPlywK32OPFOq0YrhN0MKenFIiqUWacmkBQ1ANIaQanpGpYG1UqYCnVqhUNTaqIUIFCBChalqpGgGDUDGixTZqgSUQagUUZqEHQ02aBGpzQo4NEKBqVAOq0QNAGoxQoRoWNMtRyXPxqkJTSJoU3FOp22qgWreizQLQqagDzTFqRPfQM3fRA5hbvWShrGwPV+J60yIvRGrkDVj4DViKXlWWaMqDViI/zqjFLVmN6gsyaSYqZGrHpLVmN6AtKakd6rq1SA0ITdpmpO1qsjVKJKGicUavVYS1JqoQmVqkBqsrVIGoCcGi1VF2lJKosl10g1AppA0soeukHoTTA1DIdI0qY0NCpGlmnFAMr0kps0xoQIihFLNODQ0A1MTTmmzQgxpCmp6GQM0JFG9NigIZBUDxVZKVGRWga3xXhmdxXDuv7qYTiUBQjTKntwyDmrgY38UYeyw8PMKR6OdKxN/woHuorROT5UcD4rPw24e3uEKMre0O7+rIh5FW7iOY8CDj1P1W9ZqkD2sg89+R8R5HvFbz1+ejfFxGPf2JkyYpQPaX+q39JCean3gg714gv7S94PP2VwjLvsc5icf0kbl7xsR3ivP8AEPD8etg4vn88H1Phfiyww/V9Rvj7P+H/AGPotwrpArAEHY+H7qvT2AcAr9bV4/6A9eQJGh8HvRuR938t6710R63YpNi2h/6LEYP+i2wNfJab9a8Ofs8qcsXZrlf7G9bpYS9/G1T7rhmzcQsCvOtV41xILkVtt1xoSDG34VhL/o5r5jevq8WojNXHg+elCuTlnHOkDnIHKtE4iGJrtPE+iiJktgD+scDz3Ncd6b9ZljbE4YSuP2UPs/Fu/wCA+Nd+FyOrNpFfh3RxnPL49w881X4/0vs7MHUwllA+6pyoPgT/AA+dck6YdelxcZRPs0O2lBj5kbn41oqWbOd8k/Ou3HHXxHXu+DaumvW1PdHAOlOQRfZUD3fvNa7wrg5YjYk/XOuldXHUJc3ZGiMhT+0QQvzx+WTXsLqq9E23t9LSjtX54IGgHnsv7X+tn3CrLIlsjSj5nm/ql9G2e6IbSUiOMuw5+Ohdi3v5eZ5V7N6r+om3s1GlQX73YAsT78DA/qjAro/DeDKi4UADy+vwrIxriuu3Zy0RwWoFThaWKeoUdaQpUgKAQNO9MTTtUAs0JpZowaIo2KGkTTCoBqc0LCnqkEFpGhC0VQtCpZpiKTmqQGTnTEUwNNroByaEmiZqHVQBYpZ2pA0s0ASikxpNQjnQDGpMUC0jUKERUJfepCabT41TISvR6RUIGKkU/jVRRs0s5oZDSYcqUAu0qGQUby1GRnnzx/ZVRGcvgkq3G9Y+3erkc1aaHYyNrLVlTVK3FW1ao0UvwmrsUmaxkDY51bSWoC/G9TRvVQPUyH+FQF5JhUiyVQjkqzE1AWtYow9VFepQaUCfNGjVCDTq1KBY7apVeqqmpkNCkyyU4qLNOslSiFlWpM1Ra6VC2SK1ProFaiiNQMMNTsaErQ4qiw9VERUTUT0AiKdVpZpLUKIikKM1HVKIUJFEVpE0Msjp6IrTVSAkUwFFilQhHQPUrCmxVIV9NQyCrQSgdKoKEsHlWldPOqm2vY2iniSRGH7Q5H+kpGCrDuZSCPEV0Ax1EyUop8++tD0F7iBjJw+XWnPsZWKyLjfCSgYcdwDBSO9jXGL+24pZ7TQTADbdC428GTP+1nFfWaaAVi7/AKKRyDDIpB8QDV6r5VnJGcoqot0fK/hHpDXUR2Y48CcgY7sGt0sfTHulH3QfhXtHpP6LHDLglntItR/aVOzb5xlSfjWqH0IuFg5WHH+szfgxauLoxJ2oljGUuZUeFOnPXNeXjFmkbBz7IOFAPcAMADu5Vptpwd5DjdmJ2ABZiT8yT7q+g3Sv0FLORkaF5IQBpkVdDK4ByGAIyr4yMjIIxlTjNda6Aej7Y2QHYwKG/pn2pD72bJ+WK7KyUvdRwSx71dng7q79Eq/ucM0fYIce1J98g+EY9of62mvVPVp6HtpbENKO2cYOXG2fJc4+ea9FW/D1XkMVa0VxttlSSMPwzo5HGAFUADwAH4VlEjA7qkC0gtSijaaLNMaQqFDIps0wNOBQDgUQNNTUoD0xNDinxUA5amDUiKWKoGJp6SinLUAJFKkwoDUsos01MDUjGhQRzpFqVNIKpkA86cGmZaSioBy1MQKN6jK0oDYohTrTE0AWaYUOedRsaMBrSQ0x7qcj50oDtRFqjFOy0AbU2jNCKGI86tAfNPp7u7FRh6kLYoCNXoS+9MxoSeQoZo5RE+asxGqMVW4XrREZaKarUctYqBqtJQ0ZMPVm3PjVCKT51ZjaoUyQk+vKrKtVCOSrEbVAWQam1d1VVejElQpbElSA91Vk3qZGqkLitToarhqkWgJxUqPzqsr5o80BOpqVDUCNTq+9CkqtRlqhQ1Mu9UIfXRA0KinBqBh5pKDQDeiZqECBoy1RhqIn8aM0hytEq0ANPG1SgEaFhR0wNANo7qBqkoWaqQHFI06nwpiKpBUiaRpCgEEocU4almiIAajKVKKBjVFERFCy1OTQVCkWimMdTBaECgI2jpitS4of31KLZFppaak00laqiACOliiK0OapBaaamzTk0FiNNT09CCxT0OabFSyjh6ZTS00QqFEDSIpUqoGApzTUjVA2aY0y061kgwakTTkgVGJgaFCBpUJajogOTUWKcyUIqgRp1FNkUIkzRAY0TJQhqI0YHYUwNCWpM1RkCY1C1EGHdTDehR805pmG9Fq/KgGY0i1JaF2/lQEkfnQ1Gkn8KeV60QVEz1CkgotdZKKU7b0z922aYjxpmfYeHKiBx23l8auRvWOjNXI22rZx2ZGBwKtRvWMjPKshCdhUKi2klXkasWpq5AayzSMhHLVkTbVQWpojUKZBJ6lEtY8NyqbXtUsF1ZKkSTeqcTVLSwZBW/jUnaVjw9WJH2qgvBqcGoByFEpo2Czqo1qBGqVaAmAowfGoDSzQE+RTlqi1cqlU86AMClQKadzQEgai11FHTigsk1UQeojUkZ3qWAtVFqqOQ04NQoZNDppyKZ1/KrYBCUiaPO1ATVIKlqoWpjVsgZpjTtQq1ANTM1I0Tc6FAYUGKJjTUAxNKktI1mwC9CD9d1SsKjBpZADTUZNAedUompEUwpnoACaQNGVoR31TNC1Ug9App3pYH1U5amxRIOdC2ImkDUead6gDzT5qPFJTvSyhihZqdO+os1bA5o3qNRRSHYVGAJDn4UlQYoc0xNLISg0DZps0lNUos0xbehY0C86hLJcUBoFO9DmllJlNEWqGhY0BMzimZ6FFqKq2QkR6QNRpRGoLDZ6TPUSmiNUWGJKjkfemlocb0JYcjZ/hSQ1FmmoUk1fyolbaom7qT0AcooX8KOL91V3NQvY//9k=;direction=north;" vertex="1" parent="1">
                    <mxGeometry x="215" y="-40" width="520" height="390" as="geometry"/>
                </mxCell>
                <mxCell id="4" value="" style="rounded=1;whiteSpace=wrap;html=1;fillColor=none;" vertex="1" parent="1">
                    <mxGeometry x="440" y="40" width="110" height="80" as="geometry"/>
                </mxCell>
                <mxCell id="7" value="" style="rounded=1;whiteSpace=wrap;html=1;fillColor=none;" vertex="1" parent="1">
                    <mxGeometry x="370" y="160" width="40" height="60" as="geometry"/>
                </mxCell>
                <mxCell id="10" value="" style="rounded=1;whiteSpace=wrap;html=1;fillColor=none;" vertex="1" parent="1">
                    <mxGeometry x="420" y="160" width="10" height="60" as="geometry"/>
                </mxCell>
                <mxCell id="18" style="edgeStyle=orthogonalEdgeStyle;rounded=0;orthogonalLoop=1;jettySize=auto;html=1;exitX=0;exitY=0.5;exitDx=0;exitDy=0;entryX=1;entryY=0.626;entryDx=0;entryDy=0;entryPerimeter=0;" edge="1" parent="1" source="11" target="4">
                    <mxGeometry relative="1" as="geometry"/>
                </mxCell>
                <mxCell id="11" value="Environmental sensor" style="text;html=1;strokeColor=none;fillColor=none;align=center;verticalAlign=middle;whiteSpace=wrap;rounded=0;" vertex="1" parent="1">
                    <mxGeometry x="580" y="80" width="80" height="20" as="geometry"/>
                </mxCell>
                <mxCell id="17" style="edgeStyle=orthogonalEdgeStyle;rounded=0;orthogonalLoop=1;jettySize=auto;html=1;entryX=0.5;entryY=1;entryDx=0;entryDy=0;" edge="1" parent="1" source="13" target="7">
                    <mxGeometry relative="1" as="geometry"/>
                </mxCell>
                <mxCell id="13" value="Wakeup/timer reset buttons" style="text;html=1;strokeColor=none;fillColor=none;align=center;verticalAlign=middle;whiteSpace=wrap;rounded=0;" vertex="1" parent="1">
                    <mxGeometry x="230" y="230" width="110" height="20" as="geometry"/>
                </mxCell>
                <mxCell id="15" style="edgeStyle=orthogonalEdgeStyle;rounded=0;orthogonalLoop=1;jettySize=auto;html=1;entryX=0.5;entryY=1;entryDx=0;entryDy=0;" edge="1" parent="1" source="14" target="10">
                    <mxGeometry relative="1" as="geometry"/>
                </mxCell>
                <mxCell id="14" value="countdown until sleep" style="text;html=1;strokeColor=none;fillColor=none;align=center;verticalAlign=middle;whiteSpace=wrap;rounded=0;" vertex="1" parent="1">
                    <mxGeometry x="397.5" y="260" width="55" height="20" as="geometry"/>
                </mxCell>
            </root>
        </mxGraphModel>
    </diagram>
</mxfile>